<?xml version="1.0" encoding="utf-8"?>
<!-- Generator: Adobe Illustrator 23.0.0, SVG Export Plug-In . SVG Version: 6.00 Build 0)  -->
<svg version="1.1" id="图层_1" xmlns="http://www.w3.org/2000/svg" xmlns:xlink="http://www.w3.org/1999/xlink" x="0px" y="0px"
	 viewBox="0 0 640 646" style="enable-background:new 0 0 640 646;" xml:space="preserve">
<style type="text/css">
	.st0{clip-path:url(#SVGID_2_);}
	.st1{fill:#FFFFFF;}
</style>
<g>
	<defs>
		<rect id="SVGID_1_" width="640" height="645"/>
	</defs>
	<clipPath id="SVGID_2_">
		<use xlink:href="#SVGID_1_"  style="overflow:visible;"/>
	</clipPath>
	<g class="st0">
		<path class="st1" d="M37,646c-1.67,0-3.33,0-5,0c0.3-0.4,0.64-0.77,0.91-1.19c15.97-25.46,28.9-52.48,39.1-80.66
			c21.18-58.51,28.78-119.08,25.74-181.1c-0.17-3.44-0.75-6.87-1.14-10.3c-0.59,0.03-1.19,0.06-1.78,0.1
			c3.11,29.32,1.39,58.48-2.2,87.91c-2.3-2.64-3.81-5.53-5.17-8.48c-11.86-25.79-17.35-52.92-17.95-81.25
			c-0.56-26.84-0.92-53.63,3.64-80.2c1.14-6.62,2.86-13.14,4.31-19.71c-0.58-0.14-1.16-0.27-1.75-0.41
			c-1.56,6.83-3.03,13.69-4.71,20.49c-2.47,9.95-1.11,20.55-5.95,30.18c-3.26,6.48-5.71,13.51-7.53,20.55
			c-5.34,20.67-9.88,41.51-6.48,63.08c0.87,5.52,2.5,10.91,4.1,17.7c-18.16-24.45-25.5-49.9-17.43-78.7
			c3-10.71,6.37-21.31,9.39-32.02C57.27,276,66.21,239.63,77.77,204.11c13.24-40.69,32.09-79.1,53.16-116.37
			c15.75-27.86,35.35-52.33,61.24-71.45C199.1,11.18,206.06,6.1,213,1c13,0,26,0,39,0c-3.93,1.7-7.98,3.18-11.78,5.13
			c-8.99,4.63-14.9,12.6-21.2,20.11c-10.94,13.04-20.98,26.66-27.39,42.59c-0.97,2.41-1.32,5.07-1.95,7.61
			c0.46,0.13,0.91,0.25,1.37,0.38c0.72-2.24,1.3-4.54,2.18-6.72c7.8-19.27,20.38-35.39,34.3-50.43
			c4.98-5.38,10.98-10.45,17.51-13.59c8.23-3.96,17.53-6.96,25.96,0.7c0.09,0.08,0.54-0.23,2.14-0.97C270.82,4,268.91,2.5,267,1
			c46.33,0,92.67,0,139,0c0.79,0.69,1.46,1.64,2.38,2.04c4.11,1.79,8.39,3.22,12.42,5.15c17.96,8.59,33.97,20.18,49.78,32.17
			c16.72,12.69,33.55,25.23,47.79,40.76c38.21,41.69,67.73,88.71,86.4,142.27c6.73,19.31,13.77,38.54,13.48,59.51
			c-0.2,14.65-4.37,28.34-8.8,42.03c0.26-5.48,1.26-10.88,1.48-16.32c1.27-31.22-7.03-59.84-23.71-86.15
			c-1.49-2.36-2.81-4.89-3.77-7.5c-4.13-11.22-8.08-22.51-12.16-33.75c-0.31-0.86-1.06-1.56-1.61-2.34
			c-0.48,1.89-0.15,3.29,0.41,4.6c10.03,23.55,16.68,47.96,19.47,73.47c4.21,38.37,2.93,76.1-11.27,112.58
			c-1.04,2.68-2.21,5.32-3.32,7.98c-0.4-0.11-0.81-0.22-1.21-0.33c4.65-28.33,9.5-56.65-0.81-84.72c-0.54,0.86-0.78,1.81-0.51,2.57
			c4.21,11.98,4.68,24.3,1.66,36.41c-4.29,17.24-9.53,34.24-14.35,51.34c-0.43,1.54-0.74,3.11-1.1,4.67c0.5,0.12,1,0.24,1.51,0.36
			c0.68-2.13,1.35-4.26,2.06-6.39c0.72-2.16,1.47-4.3,2.54-7.4c6.24,40.74,12.3,80.51,38.98,113.22c-3.52-2.46-6.6-5.2-9.72-7.89
			c-13.57-11.69-21.6-27.31-30.02-42.61c-1.31-2.39-2.07-5.25-2.39-7.98c-1.05-9.09-1.75-18.22-2.67-27.33
			c-0.16-1.57-0.73-3.11-1.12-4.66c-0.44,0.11-0.88,0.21-1.31,0.32c0.81,7.21,2.13,14.41,2.35,21.64
			c0.99,32.14,1.41,64.29,2.57,96.43c0.72,20.05-3.08,39.1-10.82,57.38c-3.48,8.21-8.07,15.94-12.15,23.89
			c3.25-15.38,7.02-30.31,10.19-45.36c2.61-12.39,1.82-41.52-0.67-45.4c-0.01,5.29,0.05,10.57-0.02,15.86
			c-0.06,4.31,0.69,8.92-0.59,12.86c-2.92,8.98-6.35,17.88-10.52,26.35c-4.34,8.81-9.79,17.06-14.75,25.56
			c-0.49-0.21-0.99-0.42-1.48-0.63c1.91-29.98,12.72-58.45,15.76-88.26c-0.86,0.92-1.26,1.96-1.48,3.02
			c-2.5,11.87-4.26,23.95-7.58,35.58C517.01,572.1,517.26,609.01,518,646c-9.67,0-19.33,0-29,0c-5.5-4.65-11.1-9.19-16.44-14.02
			c-1.65-1.49-3.52-3.69-3.7-5.7c-1.89-21.71-3.66-43.44-5.03-65.19c-0.57-9.08-0.09-18.24-0.09-24.84
			c4.97-4.88,8.48-8.13,11.76-11.61c3.36-3.57,6.5-7.35,9.73-11.04c-5.14,37.03-9.77,73.66-2.16,110.58c0.52-1.5,0.47-3,0.35-4.49
			c-0.79-9.46-1.84-18.9-2.35-28.38c-1.19-22.59,2.87-44.77,5.24-67.1c1.16-10.9,5.08-19.68,12.69-27.17
			c1.3-1.28,2.3-2.85,3.47-4.26c26.1-31.37,41.04-67.3,44.83-107.99c0.62-6.61-0.21-13.56,3.41-19.83
			c10.66-18.45,14.2-38.53,13.06-59.59c-0.05-0.89-0.54-1.76-0.83-2.64c0.16,23.88-3.74,46.34-17.58,66.28
			c4.64-22.86,10.26-45.66-0.79-68.23c5.11,14.27,5.35,28.91,2.9,43.74c-8.33-24.92-5.97-50.56-5.68-76.06
			c0.54-0.08,1.08-0.15,1.62-0.23c1.72,9.22,3.44,18.45,5.01,26.88c13.14-52.36,1.27-101.48-24.01-148.29
			c-11.36-21.03-31.43-45.56-39.12-47.84c16.58,16.32,29.52,34.13,40,53.64c10.61,19.73,17.45,40.85,22.75,62.61
			c5.79,23.8,3.98,49.71,0.33,65.25c-10.38-37.2-22.12-61.11-46.41-90.18c-8.27-9.89-16.29-19.55-20.72-31.78
			c-0.36-0.99-1.25-1.78-1.9-2.66c-0.37,0.2-0.74,0.41-1.12,0.61c15.85,32.47,23.44,66.77,23.16,102.8c-0.75-1.47-1.28-3-1.7-4.56
			c-7.29-26.8-17.34-52.54-32.51-75.83c-9.13-14.03-19.95-26.98-30.47-40.05c-2.33-2.9-4.21-5.5-5.29-9.11
			c-2.9-9.69-6.28-19.24-9.54-28.82c-0.42-1.23-1.26-2.31-1.91-3.46c-0.41,0.17-0.81,0.33-1.22,0.5
			c9.99,24.62,17.09,49.99,18.22,76.56c1.12,26.37,1.24,52.78-5.06,80.12c-11.69-26.76-13.45-54.24-17.63-81.15
			c2.67,46.63,10.52,91.52,44.32,127.66c-18.74-4.15-35.58-11.99-49.93-24.36c-6.52-5.62-9.03-14.23-12.78-21.8
			c0.4-0.31,0.79-0.62,1.19-0.93c3.34,2.84,6.68,5.69,10.02,8.53c0.29-0.29,0.57-0.58,0.86-0.87
			c-31.74-31.24-55.57-67.33-68.32-110.28c0.53,13.32,6.09,25.03,12.19,36.41c6.04,11.28,12.34,22.5,19.43,33.13
			c7.13,10.69,15.39,20.64,22.87,30.53c-35.03-22.19-59.97-53.11-75.96-92.02c-15.78-38.39-24.75-77.48-18.74-119.24
			c-0.74,0.76-1.38,1.55-1.46,2.4c-0.85,8.25-2.08,16.5-2.31,24.78c-0.61,22.89,4.7,44.88,10.66,66.78c1.2,4.4,2.32,9.35,1.47,13.65
			c-2.07,10.56-5.21,20.93-8.11,31.32c-6.38,22.95-8.99,46.41-8.84,70.13c0.12,19.75,1.13,39.49,1.76,59.94
			c-8.98-39.24-17.3-77.98-16.42-118.14c-0.89,8.59-1.36,17.13-0.79,25.6c0.9,13.3,0.68,26.2-2.21,39.5
			c-7.25,33.41-7.23,67.46-5.81,101.5c0.12,2.87,0.02,5.75,0.02,8.62c-0.44,0.04-0.87,0.08-1.31,0.12
			c-6.87-33.4-9.8-67.34-8.61-101.36c1.2-34.04,4.79-67.99,7.37-102.44c-0.38,1.55-0.73,2.72-0.95,3.92
			c-5.95,33.06-7.31,66.56-8.45,99.98c-0.65,19.07,1.68,38.24,2.49,57.37c1.23,29.26,9.42,56.63,21.99,82.86
			c4.06,8.47,8.07,16.97,12.44,26.18c-1.02-0.66-1.33-0.77-1.49-0.99c-1.29-1.74-2.51-3.53-3.83-5.24
			c-13.15-17-22.35-36.11-30.76-55.78c-13.18-30.81-22.41-62.84-25.91-95.96c-2.86-27.06-2.03-54.52-2.76-81.8
			c-0.18-6.87-0.03-13.75-0.03-20.63c-0.97,1.02-1.42,2.16-1.46,3.32c-1.62,45.83-2.53,91.55,8.95,136.59
			c9.22,36.16,21.79,70.83,41.5,102.69c1.03,1.66,1.77,3.58,2.28,5.47c9.75,36.05,22.18,70.96,40.74,103.63
			c18.88,33.23,43.64,59.83,79.14,75.44c18.1,7.96,36.16,16.02,54.14,24.25C465.3,629.63,477.34,636,487,646c-7.33,0-14.67,0-22,0
			c-8.72-5.69-18.63-7.73-28.68-8.99c-19.3-2.41-38.49-0.66-57.58,2.43c-13.25,2.15-26.49,4.37-39.73,6.56c-14.67,0-29.33,0-44,0
			c-4.56-4.49-9.71-8.53-13.57-13.56c-7.54-9.81-12.5-21.05-16.44-32.8c-6.74-20.16-7.54-41.12-8.88-62.02
			c-0.08-1.29-0.32-2.57-0.49-3.86c-0.42,0.05-0.84,0.1-1.26,0.15c0,2.55-0.08,5.09,0.01,7.63c0.41,10.45,1.73,20.95,1.15,31.34
			c-1.36,24.4-3.62,48.75-5.52,73.12c-4,0-8,0-12,0c0.05-1.83,0.15-3.66,0.14-5.48c-0.15-47.16-1.22-94.31-6.2-141.24
			c-2.84-26.78-6.6-53.48-10.87-80.07c-3.02-18.81-7.57-37.38-11.48-56.04c-0.03-0.17-0.53-0.24-1.54-0.65
			c-0.55,15.63,5.4,29.74,8.19,44.38c2.83,14.85,6.08,29.64,8.4,44.57c2.29,14.77,3.66,29.69,5.43,44.54
			c-0.41,0.12-0.83,0.24-1.24,0.36c-3.3-6.48-7.52-12.67-9.74-19.5c-9.07-27.97-18.82-55.82-25.82-84.33
			c-6.53-26.58-10.26-53.87-14.54-80.96c-5.61-35.51-7.78-71.02-0.84-106.8c8.37-43.16,17.61-86,34.74-126.73
			c0.57-1.35,0.9-2.79,1.35-4.18c-1.5,0.25-2.05,0.84-2.33,1.54c-3.96,10.05-8.82,19.86-11.62,30.22
			c-7.67,28.39-15,56.9-21.44,85.59c-4.55,20.27-7.69,40.85-7.18,61.85c1.05,43.81,8.46,86.81,17.48,129.43
			c5.73,27.07,15.07,53.38,22.77,80.04c0.41,1.42,1.2,2.96,0.99,4.3c-1.96,12.29-3.65,24.65-6.28,36.8
			c-7.17,33.06-16.98,65.33-30.41,96.43c-3.32,7.68-7.12,15.15-10.7,22.71c4.78-27.25,11.21-53.92,15.58-80.92
			c6.7-41.33,8.02-76.56,4.08-82.53c0,2.67,0.02,4.45,0,6.22c-0.13,9.16,0.01,18.34-0.45,27.48c-1.46,29-6.31,57.56-12.69,85.81
			c-5.08,22.51-11.14,44.79-16.77,67.17c-7.33,0-14.67,0-22,0c1.48-11.2,3.04-22.39,4.42-33.6c3.37-27.41,6.7-54.84,4.92-82.56
			c-0.1-1.52-0.32-3.04-0.49-4.56c-1.19,3.57-1.32,7.07-1.17,10.55c1.05,25.56-2.16,50.82-5.21,76.09
			c-1.37,11.37-2.97,22.71-4.47,34.07c-17.33,0-34.67,0-52,0c2.02-6.64,4.3-13.21,6.02-19.92c8.23-32.17,13.59-64.79,14.72-98.02
			c0.22-6.52,0.03-13.06,0.03-19.59c-1.09,1.57-1.45,3.25-1.53,4.93c-0.2,4.83-0.12,9.67-0.46,14.49
			c-0.56,7.78,0.57,16.41-2.43,23.15c-9.26,20.79-19.96,40.93-33.45,59.45C53.39,622.17,45.29,634.15,37,646z M175.21,513.32
			c-0.43-0.99-0.78-2.03-1.3-2.97c-5.14-9.28-10.87-18.28-15.38-27.86c-22.87-48.57-31.64-100.34-33.43-153.49
			c-0.6-17.79,0.1-35.66,0.94-53.46c1.9-40.09,7.97-79.53,22.72-117.05c6.6-16.79,15.51-32.68,23.36-48.98
			c1.1-2.28,2.19-4.57,3.29-6.85c-0.5-0.21-1-0.41-1.5-0.62c-2.51,4.63-4.88,9.33-7.55,13.87c-25.43,43.26-36.46,90.88-41.08,140.1
			c-3.5,37.34-3.99,74.83,0.68,112.24c3.72,29.78,8.5,59.27,19.58,87.38c4.42,11.22,8.88,22.42,13.33,33.64
			c-0.45,0.28-0.89,0.56-1.34,0.84c-7.82-11.84-16.87-23.06-23.22-35.65c-17.77-35.23-27.46-73.01-32.36-112.07
			c-0.61-4.88-1.41-9.75-2.12-14.62c-2.54,9.06,7.96,60.22,15.42,85.87C126.44,452.16,149.17,483.56,175.21,513.32z M256.65,454.21
			c-0.44,0.03-0.88,0.05-1.32,0.08c-0.05,0.94-0.28,1.91-0.12,2.82c4.06,24.12,8.94,48.02,17.75,70.96
			c9.31,24.23,19.14,48.18,34.53,69.4c6.56,9.04,14.57,16.11,25.62,18.61c6.91,1.56,14.06,2.18,21.14,2.87
			c17.36,1.71,34.76,3.08,52.11,4.88c5.27,0.54,10.44,2.02,15.65,3.07c0.12-0.44,0.24-0.88,0.37-1.32
			c-1.79-0.55-3.55-1.23-5.37-1.62c-21.04-4.53-42.33-7.05-63.86-6.92c-20.6,0.12-36.44-7.77-47.55-25.61
			c-21.88-35.11-36.21-73.1-44.58-113.46C259.4,470.07,258.1,462.12,256.65,454.21z M313.74,21.36c-0.11,0.42-0.23,0.84-0.34,1.26
			c0.52,0.29,1.01,0.76,1.56,0.84c11.67,1.86,20.98,8.08,29.21,16.08c22.04,21.41,38.87,46.22,48.9,75.44
			c1.96,5.71,4.18,11.32,6.28,16.98c0.74-1.86,0.74-3.61,0.22-5.18c-10.39-31.3-25.3-59.92-48.85-83.59
			c-8.07-8.11-16.47-15.54-27.3-19.6C320.36,22.43,316.98,22.08,313.74,21.36z M440.43,76.02c29.41,28.43,50.74,62.65,70.26,98.17
			C492.8,137.5,471.55,103.2,440.43,76.02z"/>
		<path d="M487,646c-9.66-10-21.7-16.37-34.12-22.06c-17.98-8.23-36.04-16.29-54.14-24.25c-35.5-15.61-60.26-42.2-79.14-75.44
			c-18.56-32.67-30.99-67.58-40.74-103.63c-0.51-1.9-1.25-3.81-2.28-5.47c-19.71-31.86-32.28-66.53-41.5-102.69
			c-11.48-45.04-10.57-90.76-8.95-136.59c0.04-1.16,0.48-2.3,1.46-3.32c0,6.88-0.15,13.76,0.03,20.63
			c0.72,27.28-0.11,54.74,2.76,81.8c3.5,33.12,12.73,65.15,25.91,95.96c8.41,19.66,17.61,38.78,30.76,55.78
			c1.32,1.71,2.54,3.5,3.83,5.24c0.16,0.22,0.47,0.32,1.49,0.99c-4.37-9.2-8.38-17.7-12.44-26.18
			c-12.57-26.23-20.76-53.61-21.99-82.86c-0.81-19.13-3.14-38.3-2.49-57.37c1.14-33.42,2.5-66.92,8.45-99.98
			c0.22-1.2,0.57-2.38,0.95-3.92c-2.58,34.45-6.18,68.41-7.37,102.44c-1.19,34.02,1.74,67.96,8.61,101.36
			c0.44-0.04,0.87-0.08,1.31-0.12c0-2.87,0.1-5.75-0.02-8.62c-1.43-34.03-1.45-68.09,5.81-101.5c2.89-13.31,3.11-26.21,2.21-39.5
			c-0.57-8.47-0.11-17.01,0.79-25.6c-0.88,40.16,7.44,78.9,16.42,118.14c-0.64-20.45-1.64-40.19-1.76-59.94
			c-0.15-23.72,2.46-47.18,8.84-70.13c2.89-10.39,6.03-20.76,8.11-31.32c0.84-4.3-0.28-9.26-1.47-13.65
			c-5.96-21.89-11.27-43.89-10.66-66.78c0.22-8.27,1.46-16.52,2.31-24.78c0.09-0.85,0.73-1.64,1.46-2.4
			c-6.01,41.75,2.96,80.85,18.74,119.24c16,38.91,40.93,69.83,75.96,92.02c-7.48-9.89-15.74-19.84-22.87-30.53
			c-7.1-10.63-13.39-21.85-19.43-33.13c-6.09-11.38-11.65-23.1-12.19-36.41c12.74,42.96,36.58,79.05,68.32,110.28
			c-0.29,0.29-0.57,0.58-0.86,0.87c-3.34-2.84-6.68-5.69-10.02-8.53c-0.4,0.31-0.79,0.62-1.19,0.93c3.74,7.57,6.26,16.18,12.78,21.8
			c14.35,12.38,31.19,20.22,49.93,24.36c-33.8-36.15-41.66-81.03-44.32-127.66c4.18,26.91,5.94,54.39,17.63,81.15
			c6.3-27.34,6.18-53.75,5.06-80.12c-1.13-26.57-8.24-51.93-18.22-76.56c0.41-0.17,0.81-0.33,1.22-0.5
			c0.65,1.15,1.49,2.23,1.91,3.46c3.26,9.58,6.65,19.13,9.54,28.82c1.08,3.61,2.96,6.21,5.29,9.11
			c10.51,13.07,21.33,26.03,30.47,40.05c15.17,23.29,25.22,49.03,32.51,75.83c0.42,1.56,0.95,3.09,1.7,4.56
			c0.28-36.04-7.31-70.33-23.16-102.8c0.37-0.2,0.74-0.41,1.12-0.61c0.65,0.88,1.54,1.67,1.9,2.66
			c4.43,12.23,12.45,21.89,20.72,31.78c24.29,29.07,36.04,52.98,46.41,90.18c3.66-15.54,5.47-41.45-0.33-65.25
			c-5.3-21.76-12.14-42.88-22.75-62.61c-10.49-19.5-23.42-37.32-40-53.64c7.69,2.28,27.76,26.81,39.12,47.84
			c25.29,46.81,37.16,95.93,24.01,148.29c-1.57-8.43-3.29-17.66-5.01-26.88c-0.54,0.08-1.08,0.15-1.62,0.23
			c-0.28,25.5-2.65,51.13,5.68,76.06c2.46-14.83,2.22-29.47-2.9-43.74c11.05,22.57,5.43,45.37,0.79,68.23
			c13.84-19.95,17.74-42.4,17.58-66.28c0.29,0.88,0.78,1.75,0.83,2.64c1.14,21.06-2.4,41.14-13.06,59.59
			c-3.62,6.27-2.8,13.22-3.41,19.83c-3.79,40.69-18.73,76.62-44.83,107.99c-1.17,1.41-2.18,2.98-3.47,4.26
			c-7.61,7.5-11.54,16.28-12.69,27.17c-2.37,22.33-6.43,44.51-5.24,67.1c0.5,9.47,1.56,18.92,2.35,28.38
			c0.12,1.49,0.18,2.99-0.35,4.49c-7.6-36.92-2.98-73.55,2.16-110.58c-3.23,3.69-6.37,7.48-9.73,11.04
			c-3.28,3.48-6.79,6.73-11.76,11.61c0,6.61-0.48,15.76,0.09,24.84c1.37,21.75,3.14,43.48,5.03,65.19c0.18,2.01,2.05,4.21,3.7,5.7
			c5.34,4.83,10.94,9.37,16.44,14.02C488.33,646,487.67,646,487,646z M380.43,263.69c-0.35-1.36-0.45-2.85-1.08-4.06
			c-3.98-7.67-7.89-15.38-12.2-22.86c-2.02-3.5-4.72-6.66-7.39-9.74c-4.02-4.64-8.28-9.08-12.43-13.61
			c-1.13-1.23-2.21-2.51-3.31-3.76c-0.44,0.23-0.87,0.46-1.31,0.69c3.22,12.32,6.23,24.69,9.74,36.93
			c2.95,10.28,3.21,10.18,13.68,10.78c2.65,0.15,5.49,0.01,7.87,0.95c2.39,0.95,4.32,3.07,6.45,4.68c-1.33,0.68-2.61,1.81-3.99,1.96
			c-5.72,0.63-11.47,0.96-18.23,1.48c3.89,10.22,7.46,19.61,11.03,28.99c-5.06-7.48-9.96-14.91-14.02-22.79
			c-2.92-5.66-7.56-6.84-12.42-5.17c-15.56,5.35-30.92,11.29-46.26,17.28c-1.29,0.5-2.74,3.14-2.54,4.55
			c1.93,13.46,4.2,26.86,6.36,40.29c0.11,0.69,0.01,1.42,0.01,2.13c-0.36,0.09-0.71,0.19-1.07,0.28
			c-4.37-12.92-8.74-25.84-13.12-38.79c-2.22,1.54-4.37,3.03-6.51,4.51c-0.28-0.4-0.56-0.8-0.85-1.19c1.73-1.46,3.63-2.76,5.11-4.44
			c0.99-1.11,2.14-2.9,1.91-4.15c-2.54-13.95-5.33-27.85-8.05-41.77c-1.38,2.88-2.21,5.74-2.77,8.65
			c-6.54,34.25-6.25,68.83-6.01,103.53c0.1,14.94,4.18,27.93,10.07,40.91c8.73,19.22,16.63,38.95,31.74,54.47
			c0.45,0.46,0.46,1.36,0.67,2.05c-0.47,0.34-0.94,0.68-1.4,1.02c-10.31-10.07-18.81-21.76-27.81-33.09
			c-0.11,1.16,0.05,2.13,0.35,3.05c5.24,15.95,10.64,31.84,15.65,47.86c1.6,5.13,4.3,8.4,8.96,11.35
			c22.64,14.35,46.38,26.18,72.4,32.88c26.89,6.92,53.81,13.93,82.04,11.95c3.5-0.25,6.17-0.95,8.56-3.93
			c5.09-6.36,10.71-12.29,16.08-18.42c26.94-30.8,49.86-63.75,56.08-105.55c1.42-9.57,2.76-19.16,4.14-28.73
			c-0.39-0.09-0.78-0.17-1.17-0.26c-2.89,3.71-5.78,7.42-8.68,11.13c-0.42-0.34-0.84-0.68-1.26-1.02c1.01-1.4,2.13-2.75,3.01-4.23
			c1.25-2.12,2.79-4.23,3.39-6.55c1.38-5.3,2.58-10.69,3.24-16.12c0.49-4.01,0.73-8.31-0.16-12.19c-2.98-13.01-5.7-26-5.51-39.44
			c0.2-13.99,0.41-27.98,0.44-41.97c0-2.57-0.59-5.22-1.36-7.7c-6.01-19.37-17.21-35.9-28.87-52.15
			c-5.53-7.71-11.32-15.24-16.99-22.85c2.51,14.8,5.48,28.91,8.75,42.95c0.26,1.13,2.46,2.3,3.91,2.55c2.87,0.5,5.85,0.36,8.78,0.49
			c-0.03,0.56-0.05,1.11-0.08,1.67c-3.86,0-7.73,0-11.74,0c0.4,14.32,2.39,28.12,1.37,41.9c-0.5,0.01-1,0.03-1.5,0.04
			c-3.94-13.55-7.89-27.1-12.33-42.37c-10.37,7.04-19.49,13.23-28.61,19.42c-0.35-0.28-0.71-0.56-1.06-0.84
			c0.64-1.77,0.96-3.76,1.98-5.28c6.32-9.46,18.03-8.97,26.98-14.19c-12.77-32.81-30-62.62-54.53-88.04
			c-0.02,2.57,0.46,4.93,0.94,7.29c0.52,2.6,1.18,5.19,1.51,7.81c4.08,32.6,3.61,65.11-2.48,97.44c-0.92,4.9-0.38,9.07,1.95,13.36
			c7.02,12.97,15.51,24.84,25.66,35.54c0.69,0.72,1.2,1.61,2.16,2.92c-10.26-0.02-18.64-3.89-26.91-7.7
			c-8.36-3.84-16.38-8.44-24.94-12.92c5.64,7.07,11.08,13.88,16.52,20.7c-6.2-2.33-12.27-5.26-17.67-9.11
			c-10.81-7.72-19.31-17.76-27.02-28.51C383.37,265.37,381.72,264.66,380.43,263.69z M410.88,528.89
			c-38.38-6.73-74.65-19.89-107.39-42.15c9.28,21.17,19.64,41.24,32.84,59.72c2.27,3.18,4.81,5.35,8.7,6.62
			c12.3,4,24.48,8.39,36.62,12.89c5.71,2.12,11.19,4.84,15.9,6.91C402.02,558.12,406.38,543.73,410.88,528.89z M346,258.56
			c-17.93-33.74-29.68-69.07-37.18-106.27c-13.77,43.01-18.66,86.58-15.12,132.11C307.89,268.57,327.18,264.47,346,258.56z
			 M466.15,628.07c0.34-0.29,0.69-0.58,1.03-0.87c-3.9-9.76-8.61-19.13-14.75-27.77c-0.6-0.84-1.97-1.19-3.03-1.65
			c-27.55-11.99-55.03-24.12-82.69-35.85c-7.36-3.12-15.24-5.02-22.89-7.48c10.89,15.23,24.25,27.15,40.56,35.15
			c22.05,10.82,44.48,20.86,66.73,31.26C456.15,623.21,461.14,625.66,466.15,628.07z M447.45,534.79
			c-10.13-1.61-20.42-3.12-30.65-4.93c-2.92-0.52-3.91,0.85-4.63,3.08c-3.11,9.63-6.56,19.16-9.2,28.92
			c-3.31,12.21-3.06,12.4,8.5,17.5c9.62,4.24,19.36,8.2,29.13,12.32C442.96,572.11,445.23,553.19,447.45,534.79z M443.09,593.17
			c13.06,1.7,15.8,13.48,20.92,21.97c-1-26.82-2.02-53.99-3.03-81.25c-3.3,0-7.01,0-11.52,0c-2.15,18.97-4.26,37.61-6.36,56.25
			C443.02,590.94,443.09,591.76,443.09,593.17z M311.41,148.49c-0.54,25.43,31.6,110.21,46.83,124.15c-0.65-2.2-1.17-3.92-1.67-5.64
			c-4.49-15.45-9.95-30.7-13.13-46.42c-2.22-10.95-5.6-20.76-11.71-30.08c-4.61-7.03-7.99-14.89-11.66-22.5
			C317.14,161.95,314.59,155.72,311.41,148.49z M370.16,235.99c15.35,35.27,36.73,56.61,51.28,62.51c-1.01-1.42-1.7-2.5-2.5-3.49
			c-9.64-11.94-18.32-24.49-24.65-38.55c-0.46-1.03-1.04-2.16-1.89-2.84C385.03,247.69,377.58,241.86,370.16,235.99z M347.28,260.38
			c-15.95,4.76-31.74,8.58-44.75,18.97c15.59-5.22,30.49-12.57,47.53-14.13C349.1,263.54,348.3,262.14,347.28,260.38z
			 M357.53,259.51c-0.3,0.48-0.61,0.95-0.91,1.43c0.78,1.3,1.58,3.72,2.35,3.71c5.96-0.07,11.91-0.6,17.87-0.99
			c0-0.79,0-1.58,0-2.37C370.4,260.7,363.96,260.11,357.53,259.51z"/>
		<path class="st1" d="M209,646c-17.33,0-34.67,0-52,0c2.88-8.6,5.61-17,10.61-25c6.63-10.6,11.13-22.62,15.79-34.33
			c12-30.18,21.23-61.2,26.76-93.26c1.25-7.25,2.34-14.52,3.47-21.62c5.55,10.08,11.01,19.92,16.37,29.81
			c0.53,0.97,0.66,2.24,0.7,3.38c0.51,15.65,3.27,31.09,1.4,46.98c-2.01,17.07-3.96,34.05-8.98,50.51
			C218.69,617.06,213.73,631.5,209,646z"/>
		<path d="M410,1c12.68,6.8,25.92,12.74,37.93,20.56c49.05,31.93,90.14,71.77,120.86,122.11c21.13,34.63,36.96,71.38,47.88,110.32
			c6.93,24.71,3.15,48.85-5.37,72.46c-2.78,7.71-6.37,15.13-10.41,22.41c5.81-20.37,10.63-40.72,7.44-61.99
			c-3.16-21.01-8.78-41.23-21.11-60.57c0,2.23-0.17,3.24,0.02,4.19c6.05,29.9,7.72,59.98,5.11,90.42
			c-1.61,18.83-8.15,36.21-13.97,53.82c-1.23,3.74-4.86,6.64-7.1,10.11c-1.07,1.66-2.38,3.91-2.08,5.62
			c5.11,28.2,10.54,56.37,26.26,81.08c4.36,6.85,9.75,13.05,14.65,19.56c0.67,0.88,1.26,1.83,1.4,3.14
			c-22.87-12.4-37.06-32.54-49.28-54.96c0,4.82-0.06,9.64,0.01,14.46c0.31,23.32,0.88,46.65,0.94,69.97
			c0.07,26.42-8.65,50.22-22.77,72.21c-2.96,4.61-6.31,8.98-9.5,13.44c-0.14,0.2-0.56,0.21-1.6,0.55
			c9.54-22.11,16.17-44.53,17.84-68.35c-0.89,2.13-1.89,4.23-2.64,6.4c-5.07,14.6-13.43,27.41-21.64,40.32
			c-1.51,2.38-2.63,5.46-2.68,8.24c-0.27,16.48-0.18,32.98-0.2,49.46c-0.67,0-1.33,0-2,0c-0.74-36.99-0.99-73.9,9.31-110.01
			c3.32-11.63,5.08-23.71,7.58-35.58c0.22-1.07,0.62-2.1,1.48-3.02c-3.04,29.82-13.86,58.29-15.76,88.26
			c0.49,0.21,0.99,0.42,1.48,0.63c4.96-8.5,10.42-16.75,14.75-25.56c4.17-8.47,7.6-17.37,10.52-26.35
			c1.28-3.94,0.54-8.55,0.59-12.86c0.07-5.28,0.02-10.57,0.02-15.86c2.5,3.88,3.28,33.01,0.67,45.4
			c-3.17,15.05-6.93,29.98-10.19,45.36c4.08-7.95,8.67-15.68,12.15-23.89c7.75-18.28,11.55-37.34,10.82-57.38
			c-1.16-32.13-1.57-64.29-2.57-96.43c-0.22-7.23-1.54-14.42-2.35-21.64c0.44-0.11,0.88-0.21,1.31-0.32
			c0.38,1.55,0.96,3.08,1.12,4.66c0.92,9.11,1.62,18.24,2.67,27.33c0.32,2.73,1.07,5.59,2.39,7.98
			c8.42,15.3,16.45,30.92,30.02,42.61c3.12,2.69,6.2,5.43,9.72,7.89c-26.68-32.72-32.74-72.48-38.98-113.22
			c-1.07,3.1-1.82,5.25-2.54,7.4c-0.71,2.12-1.37,4.26-2.06,6.39c-0.5-0.12-1-0.24-1.51-0.36c0.36-1.56,0.67-3.13,1.1-4.67
			c4.82-17.11,10.06-34.11,14.35-51.34c3.01-12.11,2.55-24.43-1.66-36.41c-0.27-0.77-0.04-1.71,0.51-2.57
			c10.31,28.06,5.46,56.39,0.81,84.72c0.4,0.11,0.81,0.22,1.21,0.33c1.11-2.66,2.28-5.3,3.32-7.98
			c14.2-36.48,15.48-74.21,11.27-112.58c-2.8-25.52-9.44-49.92-19.47-73.47c-0.56-1.31-0.89-2.71-0.41-4.6
			c0.55,0.78,1.3,1.48,1.61,2.34c4.07,11.24,8.02,22.53,12.16,33.75c0.96,2.61,2.28,5.15,3.77,7.5
			c16.68,26.31,24.98,54.93,23.71,86.15c-0.22,5.43-1.22,10.83-1.48,16.32c4.43-13.7,8.6-27.39,8.8-42.03
			c0.29-20.97-6.75-40.2-13.48-59.51c-18.67-53.56-48.2-100.58-86.4-142.27c-14.23-15.53-31.07-28.07-47.79-40.76
			c-15.8-11.99-31.81-23.58-49.78-32.17c-4.04-1.93-8.31-3.36-12.42-5.15c-0.92-0.4-1.59-1.34-2.38-2.04C407.33,1,408.67,1,410,1z
			 M576.7,332.62c-3,10.51-6.59,20.9-8.76,31.58c-1.26,6.17-0.23,12.81-0.23,19.24c0.88,0.04,1.77,0.08,2.65,0.12
			C574,366.73,576.11,349.68,576.7,332.62z"/>
		<path d="M209,646c4.73-14.5,9.69-28.94,14.13-43.53c5.01-16.45,6.97-33.44,8.98-50.51c1.87-15.89-0.89-31.34-1.4-46.98
			c-0.04-1.14-0.17-2.41-0.7-3.38c-5.37-9.89-10.82-19.74-16.37-29.81c-1.14,7.1-2.22,14.38-3.47,21.62
			c-5.53,32.06-14.77,63.08-26.76,93.26c-4.66,11.71-9.16,23.74-15.79,34.33c-5,7.99-7.73,16.4-10.61,25c-0.67,0-1.33,0-2,0
			c5.63-22.38,11.69-44.66,16.77-67.17c6.38-28.26,11.23-56.81,12.69-85.81c0.46-9.15,0.32-18.32,0.45-27.48
			c0.02-1.77,0-3.55,0-6.22c3.94,5.96,2.62,41.2-4.08,82.53c-4.38,27-10.8,53.67-15.58,80.92c3.58-7.57,7.39-15.03,10.7-22.71
			c13.43-31.09,23.24-63.37,30.41-96.43c2.63-12.15,4.32-24.51,6.28-36.8c0.22-1.35-0.57-2.88-0.99-4.3
			c-7.71-26.66-17.04-52.96-22.77-80.04c-9.02-42.62-16.43-85.62-17.48-129.43c-0.5-21.01,2.63-41.58,7.18-61.85
			c6.44-28.69,13.77-57.2,21.44-85.59c2.8-10.37,7.66-20.17,11.62-30.22c0.28-0.7,0.83-1.29,2.33-1.54
			c-0.44,1.4-0.78,2.84-1.35,4.18c-17.13,40.72-26.37,83.56-34.74,126.73c-6.94,35.78-4.77,71.29,0.84,106.8
			c4.28,27.09,8.01,54.38,14.54,80.96c7,28.51,16.75,56.36,25.82,84.33c2.22,6.84,6.44,13.02,9.74,19.5
			c0.41-0.12,0.83-0.24,1.24-0.36c-1.77-14.85-3.13-29.77-5.43-44.54c-2.32-14.93-5.57-29.72-8.4-44.57
			c-2.79-14.64-8.74-28.75-8.19-44.38c1.01,0.41,1.5,0.48,1.54,0.65c3.9,18.67,8.46,37.23,11.48,56.04
			c4.27,26.59,8.02,53.29,10.87,80.07c4.98,46.93,6.05,94.08,6.2,141.24c0.01,1.83-0.09,3.66-0.14,5.48c-0.67,0-1.33,0-2,0
			c0.26-13.52,1.93-11.94-11.04-13.7c-8.52-1.15-8.56-0.95-11.64,7.17c-0.82,2.16-1.55,4.35-2.32,6.52
			C210.33,646,209.67,646,209,646z M236.39,631.77c-0.66-24.57-1.31-49.13-1.97-73.68c-2.38,24.72-10.11,48.02-17.1,71.38
			C223.68,630.24,229.57,630.95,236.39,631.77z"/>
		<path d="M30,646c18.21-29.76,33.7-60.93,44.05-94.23c6.88-22.16,11.3-45.1,16.67-67.72c0.36-1.54,0.11-4-0.89-4.96
			c-12.38-11.94-18.91-27.63-27.46-42.05c-4.91-8.27-11.01-15.81-16.09-23.99c-13.5-21.72-17.34-44.95-10.47-69.84
			c8.81-31.88,17.28-63.85,26.12-95.72c17.18-61.9,42.61-120.19,76.05-175.08c17.37-28.52,41.22-50.25,68.48-68.74
			C207.68,2.85,208.82,1.9,210,1c1,0,2,0,3,0c-6.94,5.1-13.9,10.18-20.83,15.29c-25.89,19.12-45.49,43.58-61.24,71.45
			c-21.07,37.28-39.92,75.68-53.16,116.37C66.21,239.63,57.27,276,47.1,311.98c-3.02,10.7-6.39,21.31-9.39,32.02
			c-8.07,28.8-0.74,54.25,17.43,78.7c-1.6-6.79-3.23-12.18-4.1-17.7c-3.4-21.56,1.15-42.41,6.48-63.08
			c1.82-7.04,4.27-14.06,7.53-20.55c4.84-9.63,3.48-20.23,5.95-30.18c1.69-6.8,3.15-13.66,4.71-20.49c0.58,0.14,1.16,0.27,1.75,0.41
			c-1.45,6.57-3.18,13.09-4.31,19.71c-4.57,26.57-4.21,53.37-3.64,80.2c0.59,28.33,6.09,55.47,17.95,81.25
			c1.36,2.95,2.86,5.84,5.17,8.48c3.59-29.43,5.31-58.59,2.2-87.91c0.59-0.03,1.19-0.06,1.78-0.1c0.39,3.43,0.97,6.86,1.14,10.3
			c3.05,62.02-4.56,122.59-25.74,181.1c-10.2,28.18-23.13,55.2-39.1,80.66c-0.26,0.42-0.6,0.79-0.91,1.19
			C31.33,646,30.67,646,30,646z M67.53,320.72c-1.1,2.32-1.87,3.77-2.5,5.28c-7.18,17.19-10.74,35.25-12.48,53.68
			c-2.28,24.18,1.19,46.53,21.17,63.36c3.69,3.11,7.05,6.6,10.56,9.91c0.49-0.24,0.98-0.48,1.48-0.72
			C64.7,410.69,66.94,366.1,67.53,320.72z M91.05,477.25c4.17-9.33,1.38-15.91-6.22-20.96c-1.36-0.9-2.39-2.29-3.6-3.42
			c-2.31-2.15-4.65-4.25-6.95-6.41c-2.26-2.13-4.47-4.31-6.71-6.47C73.97,453.47,80.04,466.89,91.05,477.25z"/>
		<path class="st1" d="M460,646c-34.33,0-68.67,0-103,0c2.37-0.58,4.73-1.24,7.13-1.72c23.56-4.81,47.26-8.24,71.36-5.26
			C443.94,640.06,452.65,640.81,460,646z"/>
		<path d="M77,646c2.51-8.56,5.57-17,7.41-25.71c4.4-20.87,8.21-41.87,11.29-63.17C81.11,589.66,59.07,617.2,39,646
			c-0.67,0-1.33,0-2,0c8.29-11.85,16.39-23.83,24.9-35.52c13.49-18.52,24.19-38.66,33.45-59.45c3-6.75,1.88-15.37,2.43-23.15
			c0.34-4.81,0.26-9.66,0.46-14.49c0.07-1.69,0.44-3.36,1.53-4.93c0,6.53,0.19,13.07-0.03,19.59c-1.13,33.23-6.49,65.85-14.72,98.02
			c-1.72,6.71-4,13.29-6.02,19.92C78.33,646,77.67,646,77,646z"/>
		<path d="M250,646c1.9-24.37,4.16-48.72,5.52-73.12c0.58-10.39-0.74-20.89-1.15-31.34c-0.1-2.54-0.01-5.09-0.01-7.63
			c0.42-0.05,0.84-0.1,1.26-0.15c0.17,1.29,0.4,2.57,0.49,3.86c1.34,20.91,2.14,41.86,8.88,62.02c3.93,11.75,8.9,22.99,16.44,32.8
			c3.86,5.03,9.01,9.07,13.57,13.56c-1,0-2,0-3,0c-2.88-2.22-5.51-5.81-8.69-6.4c-10.06-1.85-20.33-2.58-31.31-3.83
			c0,3.99,0,7.11,0,10.23C251.33,646,250.67,646,250,646z M282.1,636.91c-13.66-17.98-20.96-37.82-25.59-59.2
			c-1.45,18.63-2.91,37.25-4.38,56.11C262.29,634.87,271.65,635.84,282.1,636.91z"/>
		<path class="st1" d="M211,646c0.77-2.17,1.5-4.37,2.32-6.52c3.08-8.12,3.12-8.33,11.64-7.17c12.98,1.76,11.3,0.18,11.04,13.7
			C227.67,646,219.33,646,211,646z"/>
		<path class="st1" d="M252,646c0-3.12,0-6.24,0-10.23c10.97,1.25,21.24,1.98,31.31,3.83c3.18,0.59,5.81,4.18,8.69,6.4
			C278.67,646,265.33,646,252,646z"/>
		<path d="M131,646c1.5-11.35,3.09-22.7,4.47-34.07c3.05-25.27,6.26-50.54,5.21-76.09c-0.14-3.49-0.02-6.99,1.17-10.55
			c0.17,1.52,0.39,3.04,0.49,4.56c1.79,27.72-1.54,55.14-4.92,82.56c-1.38,11.21-2.94,22.4-4.42,33.6C132.33,646,131.67,646,131,646
			z"/>
		<path d="M460,646c-7.35-5.19-16.06-5.94-24.51-6.98c-24.1-2.98-47.8,0.45-71.36,5.26c-2.39,0.49-4.75,1.15-7.13,1.72
			c-6,0-12,0-18,0c13.24-2.19,26.48-4.41,39.73-6.56c19.1-3.09,38.28-4.84,57.58-2.43c10.05,1.25,19.97,3.29,28.68,8.99
			C463.33,646,461.67,646,460,646z"/>
		<path d="M267,1c1.91,1.5,3.82,3,6.14,4.81c-1.6,0.74-2.05,1.05-2.14,0.97c-8.43-7.66-17.73-4.65-25.96-0.7
			c-6.53,3.14-12.53,8.21-17.51,13.59c-13.93,15.04-26.51,31.16-34.3,50.43c-0.88,2.18-1.46,4.48-2.18,6.72
			c-0.46-0.13-0.91-0.25-1.37-0.38c0.63-2.54,0.98-5.21,1.95-7.61c6.41-15.93,16.46-29.56,27.39-42.59
			c6.3-7.51,12.21-15.48,21.2-20.11C244.02,4.18,248.07,2.7,252,1C257,1,262,1,267,1z"/>
		<path d="M175.21,513.32c-26.04-29.75-48.76-61.16-59.96-99.67c-7.46-25.65-17.97-76.82-15.42-85.87
			c0.71,4.87,1.51,9.73,2.12,14.62c4.91,39.06,14.6,76.84,32.36,112.07c6.35,12.59,15.4,23.8,23.22,35.65
			c0.45-0.28,0.89-0.56,1.34-0.84c-4.44-11.21-8.9-22.42-13.33-33.64c-11.08-28.11-15.87-57.6-19.58-87.38
			c-4.67-37.41-4.18-74.89-0.68-112.24c4.62-49.22,15.65-96.84,41.08-140.1c2.67-4.53,5.04-9.24,7.55-13.87
			c0.5,0.21,1,0.41,1.5,0.62c-1.1,2.28-2.19,4.57-3.29,6.85c-7.86,16.3-16.76,32.19-23.36,48.98
			c-14.75,37.51-20.82,76.96-22.72,117.05c-0.84,17.8-1.54,35.67-0.94,53.46c1.79,53.14,10.56,104.92,33.43,153.49
			c4.51,9.58,10.24,18.58,15.38,27.86C174.43,511.29,174.78,512.33,175.21,513.32z"/>
		<path d="M256.65,454.21c1.45,7.91,2.75,15.86,4.38,23.74c8.37,40.36,22.7,78.35,44.58,113.46c11.11,17.84,26.95,25.73,47.55,25.61
			c21.53-0.13,42.82,2.39,63.86,6.92c1.82,0.39,3.58,1.07,5.37,1.62c-0.12,0.44-0.24,0.88-0.37,1.32
			c-5.21-1.05-10.38-2.52-15.65-3.07c-17.35-1.79-34.75-3.17-52.11-4.88c-7.08-0.7-14.23-1.31-21.14-2.87
			c-11.05-2.5-19.06-9.57-25.62-18.61c-15.39-21.22-25.22-45.16-34.53-69.4c-8.81-22.94-13.69-46.84-17.75-70.96
			c-0.15-0.91,0.07-1.88,0.12-2.82C255.77,454.26,256.21,454.23,256.65,454.21z"/>
		<path d="M313.74,21.36c3.24,0.72,6.61,1.08,9.68,2.23c10.83,4.07,19.23,11.5,27.3,19.6c23.56,23.67,38.46,52.29,48.85,83.59
			c0.52,1.57,0.52,3.32-0.22,5.18c-2.1-5.66-4.33-11.27-6.28-16.98c-10.02-29.22-26.86-54.03-48.9-75.44
			c-8.23-8-17.54-14.22-29.21-16.08c-0.55-0.09-1.04-0.55-1.56-0.84C313.51,22.2,313.63,21.78,313.74,21.36z"/>
		<path d="M440.43,76.02c31.12,27.18,52.36,61.48,70.26,98.17C491.17,138.67,469.84,104.45,440.43,76.02z"/>
		<path class="st1" d="M380.41,263.71c1.3,0.96,2.96,1.66,3.86,2.91c7.71,10.75,16.22,20.79,27.02,28.51
			c5.4,3.86,11.46,6.78,17.67,9.11c-5.44-6.82-10.88-13.63-16.52-20.7c8.56,4.47,16.58,9.07,24.94,12.92
			c8.27,3.8,16.65,7.68,26.91,7.7c-0.96-1.31-1.47-2.2-2.16-2.92c-10.15-10.69-18.64-22.57-25.66-35.54
			c-2.32-4.29-2.87-8.46-1.95-13.36c6.09-32.32,6.55-64.84,2.48-97.44c-0.33-2.63-0.99-5.21-1.51-7.81
			c-0.47-2.36-0.96-4.73-0.94-7.29c24.52,25.42,41.76,55.23,54.53,88.04c-8.95,5.22-20.66,4.73-26.98,14.19
			c-1.02,1.52-1.34,3.51-1.98,5.28c0.35,0.28,0.71,0.56,1.06,0.84c9.12-6.19,18.23-12.38,28.61-19.42
			c4.44,15.27,8.39,28.82,12.33,42.37c0.5-0.01,1-0.03,1.5-0.04c1.02-13.78-0.97-27.57-1.37-41.9c4.01,0,7.88,0,11.74,0
			c0.03-0.56,0.05-1.11,0.08-1.67c-2.93-0.13-5.91,0.01-8.78-0.49c-1.45-0.25-3.65-1.42-3.91-2.55
			c-3.27-14.04-6.24-28.14-8.75-42.95c5.67,7.61,11.46,15.14,16.99,22.85c11.66,16.25,22.86,32.78,28.87,52.15
			c0.77,2.47,1.36,5.13,1.36,7.7c-0.03,13.99-0.24,27.98-0.44,41.97c-0.19,13.44,2.52,26.43,5.51,39.44
			c0.89,3.88,0.65,8.18,0.16,12.19c-0.66,5.43-1.86,10.82-3.24,16.12c-0.6,2.32-2.14,4.43-3.39,6.55c-0.88,1.48-2,2.82-3.01,4.23
			c0.42,0.34,0.84,0.68,1.26,1.02c2.89-3.71,5.78-7.42,8.68-11.13c0.39,0.09,0.78,0.17,1.17,0.26c-1.38,9.58-2.71,19.16-4.14,28.73
			c-6.22,41.81-29.15,74.75-56.08,105.55c-5.37,6.14-10.99,12.07-16.08,18.42c-2.39,2.98-5.06,3.68-8.56,3.93
			c-28.23,1.98-55.15-5.03-82.04-11.95c-26.02-6.7-49.76-18.53-72.4-32.88c-4.66-2.95-7.35-6.22-8.96-11.35
			c-5.01-16.02-10.41-31.91-15.65-47.86c-0.3-0.92-0.46-1.88-0.35-3.05c9,11.33,17.5,23.03,27.81,33.09
			c0.47-0.34,0.94-0.68,1.4-1.02c-0.21-0.69-0.22-1.59-0.67-2.05c-15.11-15.52-23.01-35.25-31.74-54.47
			c-5.89-12.97-9.97-25.97-10.07-40.91c-0.23-34.7-0.53-69.28,6.01-103.53c0.56-2.91,1.39-5.77,2.77-8.65
			c2.72,13.92,5.51,27.82,8.05,41.77c0.23,1.25-0.92,3.03-1.91,4.15c-1.48,1.67-3.39,2.98-5.11,4.44c0.28,0.4,0.56,0.8,0.85,1.19
			c2.15-1.49,4.3-2.98,6.51-4.51c4.38,12.95,8.75,25.87,13.12,38.79c0.36-0.09,0.71-0.19,1.07-0.28c0-0.71,0.1-1.44-0.01-2.13
			c-2.15-13.42-4.43-26.83-6.36-40.29c-0.2-1.42,1.25-4.05,2.54-4.55c15.33-5.98,30.69-11.93,46.26-17.28
			c4.86-1.67,9.51-0.5,12.42,5.17c4.05,7.87,8.95,15.31,14.02,22.79c-3.57-9.38-7.14-18.76-11.03-28.99
			c6.77-0.52,12.52-0.85,18.23-1.48c1.39-0.15,2.67-1.28,3.99-1.96L380.41,263.71z M387.1,326.16c0.06-0.37,0.12-0.73,0.18-1.1
			c-1.03-0.27-2.05-0.79-3.08-0.79c-14.28-0.03-28.57-0.16-42.85,0.1c-11.34,0.21-20.26,5.85-27.98,13.7
			c-2.57,2.61-5.14,5.23-7.55,7.98c-8.06,9.2-9.28,6.39,1.81,14.9c0.21,0.16,0.63,0.05,1.18,0.08c10.52-9.99,21.2-19.97,35.73-24.48
			c14.33-4.45,28.88-3.92,43.59-1.53c0.08-0.51,0.16-1.02,0.25-1.53c-2.85-2.2-5.69-4.41-9.46-7.32
			C382.6,326.16,384.85,326.16,387.1,326.16z M533.45,298.1c-1.85-8.7-5.66-13.7-12.96-16.75c-6.76-2.82-12.77-3.19-18.78,1.1
			c-6.35,4.53-12.24,9.88-19.06,13.5c-7.61,4.04-4.73,11.04-6.59,16.85c1.97-0.85,3.44-2.07,4.88-3.31
			c4.9-4.23,9.89-8.36,14.66-12.74c8.02-7.36,16.83-7.68,26.33-3.48C525.35,294.79,528.84,296.18,533.45,298.1z M456.75,452.45
			c-0.09-0.59-0.17-1.18-0.26-1.77c-17.67,3.93-35.34,7.85-53.01,11.78C421.89,462.59,439,455.88,456.75,452.45z M339.35,315.73
			c1.32-0.1,2.64-0.19,3.96-0.3c9.23-0.74,18.45-1.72,27.69-2.06c2.41-0.09,4.92,1.79,7.33,2.89c2.02,0.92,3.97,2.03,5.95,3.05
			c0.21-0.41,0.43-0.83,0.64-1.24c-1.85-1.2-3.7-2.41-6.09-3.96c2.45-0.4,4.24-0.69,6.02-0.98c-0.05-0.45-0.1-0.9-0.15-1.35
			C369.49,311.38,354.19,309.24,339.35,315.73z M467.75,303.89c0.67,0.35,1.34,0.71,2.01,1.06c-0.46-13.58,11.25-16.59,19.28-22.79
			c-0.39-0.45-0.78-0.89-1.17-1.34c-7.27,4.65-14.54,9.31-21.82,13.96c0.14,0.3,0.28,0.61,0.41,0.91c1.13,0,2.26,0,3.4,0
			C469.11,298.59,468.43,301.24,467.75,303.89z M326.32,407.52c0.5-0.43,1-0.87,1.5-1.3c-7.38-9.15-14.77-18.29-22.15-27.44
			c-0.48,0.38-0.96,0.77-1.43,1.15C311.59,389.12,318.95,398.32,326.32,407.52z M346.76,395.2c0.52-0.49,1.03-0.97,1.55-1.46
			c-7.36-7.12-14.71-14.24-22.07-21.36c-0.14,0.15-0.28,0.3-0.42,0.45C332.8,380.29,339.78,387.75,346.76,395.2z M394.74,385.87
			c-7.66-6.49-15.32-12.98-22.98-19.48C377.35,375.36,385.01,381.86,394.74,385.87z M368.01,389.96c-0.12,0.13-0.23,0.25-0.35,0.38
			c-6.59-6.93-13.19-13.86-19.78-20.79c0.08-0.07,0.16-0.15,0.25-0.22C354.75,376.2,361.38,383.08,368.01,389.96z M462.87,449.53
			c10.14-1.3,18.22-6.65,25.59-13.39C479.93,440.61,471.4,445.07,462.87,449.53z M376.45,387.22c0.35-0.35,0.7-0.69,1.06-1.04
			c-7.51-6.66-15.02-13.32-22.53-19.99c0.16-0.17,0.32-0.33,0.48-0.5C362.44,372.87,369.44,380.05,376.45,387.22z M337.14,399.43
			c0.47-0.4,0.95-0.8,1.42-1.19c-6.21-7.34-12.41-14.67-18.62-22.01c-0.48,0.41-0.97,0.81-1.45,1.22
			C324.71,384.78,330.93,392.11,337.14,399.43z M536.71,346.22c-0.21,0.2-0.41,0.41-0.62,0.61c-6.22-5.86-12.44-11.71-18.66-17.57
			c0.24-0.23,0.47-0.47,0.71-0.7C524.33,334.45,530.52,340.34,536.71,346.22z M512.39,333.68c-0.47,0.42-0.94,0.85-1.41,1.27
			c5.27,6.01,10.54,12.02,15.81,18.03c0.48-0.43,0.96-0.87,1.44-1.3C522.95,345.69,517.67,339.69,512.39,333.68z M519.04,355.68
			c0.47-0.39,0.94-0.77,1.41-1.16c-4.71-5.81-9.41-11.63-14.12-17.44c-0.48,0.39-0.95,0.78-1.43,1.18
			C509.62,344.07,514.33,349.88,519.04,355.68z M496.51,339.64c-0.47,0.4-0.94,0.8-1.41,1.2c3.98,4.96,7.96,9.92,11.93,14.88
			c0.48-0.4,0.96-0.79,1.45-1.19C504.49,349.57,500.5,344.61,496.51,339.64z M476.02,389.43c-2,5.51-4,11.03-6.01,16.54
			C475.15,401.57,476.68,395.8,476.02,389.43z M456.91,443.33c0.27,0.58,0.55,1.16,0.82,1.75c4.78-1.95,9.57-3.89,14.35-5.84
			c-0.25-0.58-0.49-1.17-0.74-1.75C466.54,439.44,461.73,441.38,456.91,443.33z M496.55,353.8c0.5-0.42,1.01-0.85,1.51-1.27
			c-2.89-3.51-5.79-7.02-8.68-10.52c-0.46,0.4-0.92,0.79-1.38,1.19C490.85,346.73,493.7,350.27,496.55,353.8z M528.59,329.51
			c-0.34,0.38-0.67,0.75-1.01,1.13c3.24,3.09,6.47,6.18,9.71,9.27c0.09-0.09,0.17-0.17,0.26-0.26
			C534.56,336.26,531.58,332.89,528.59,329.51z"/>
		<path class="st1" d="M410.88,528.89c-4.5,14.83-8.86,29.22-13.33,44c-4.72-2.07-10.2-4.79-15.9-6.91
			c-12.13-4.5-24.31-8.89-36.62-12.89c-3.9-1.27-6.43-3.43-8.7-6.62c-13.2-18.49-23.56-38.55-32.84-59.72
			C336.23,509,372.5,522.17,410.88,528.89z"/>
		<path class="st1" d="M346,258.56c-18.82,5.91-38.11,10.01-52.3,25.85c-3.54-45.53,1.35-89.1,15.12-132.11
			C316.32,189.49,328.07,224.82,346,258.56z"/>
		<path class="st1" d="M466.15,628.07c-5.01-2.4-10-4.85-15.03-7.21c-22.26-10.4-44.68-20.44-66.73-31.26
			c-16.31-8.01-29.67-19.93-40.56-35.15c7.64,2.46,15.52,4.35,22.89,7.48c27.66,11.73,55.15,23.86,82.69,35.85
			c1.06,0.46,2.43,0.81,3.03,1.65c6.14,8.64,10.85,18.01,14.75,27.77C466.83,627.49,466.49,627.78,466.15,628.07z"/>
		<path class="st1" d="M447.45,534.79c-2.22,18.4-4.5,37.31-6.85,56.88c-9.77-4.12-19.51-8.08-29.13-12.32
			c-11.57-5.1-11.81-5.28-8.5-17.5c2.64-9.76,6.09-19.29,9.2-28.92c0.72-2.22,1.71-3.59,4.63-3.08
			C427.03,531.68,437.32,533.19,447.45,534.79z"/>
		<path class="st1" d="M443.09,593.17c0-1.41-0.08-2.23,0.01-3.03c2.1-18.64,4.21-37.28,6.36-56.25c4.51,0,8.22,0,11.52,0
			c1.02,27.26,2.03,54.43,3.03,81.25C458.89,606.65,456.15,594.87,443.09,593.17z"/>
		<path class="st1" d="M311.41,148.49c3.19,7.22,5.73,13.46,8.66,19.51c3.68,7.61,7.05,15.47,11.66,22.5
			c6.11,9.31,9.49,19.13,11.71,30.08c3.18,15.71,8.64,30.97,13.13,46.42c0.5,1.72,1.02,3.44,1.67,5.64
			C343.01,258.7,310.87,173.93,311.41,148.49z"/>
		<path class="st1" d="M380.45,263.69c-2.13-1.61-4.06-3.74-6.45-4.68c-2.38-0.94-5.22-0.8-7.87-0.95
			c-10.47-0.6-10.73-0.5-13.68-10.78c-3.51-12.23-6.52-24.61-9.74-36.93c0.44-0.23,0.87-0.46,1.31-0.69
			c1.1,1.25,2.19,2.53,3.31,3.76c4.15,4.53,8.41,8.97,12.43,13.61c2.66,3.08,5.37,6.23,7.39,9.74c4.31,7.48,8.23,15.19,12.2,22.86
			c0.63,1.21,0.73,2.7,1.07,4.07C380.41,263.71,380.45,263.69,380.45,263.69z"/>
		<path class="st1" d="M370.16,235.99c7.42,5.86,14.87,11.7,22.24,17.63c0.85,0.68,1.43,1.81,1.89,2.84
			c6.33,14.06,15.01,26.61,24.65,38.55c0.8,0.99,1.49,2.07,2.5,3.49C406.89,292.6,385.51,271.27,370.16,235.99z"/>
		<path class="st1" d="M347.28,260.38c1.02,1.76,1.82,3.17,2.79,4.84c-17.04,1.55-31.94,8.91-47.53,14.13
			C315.54,268.96,331.33,265.14,347.28,260.38z"/>
		<path class="st1" d="M357.53,259.51c6.43,0.59,12.87,1.19,19.3,1.78c0,0.79,0,1.58,0,2.37c-5.96,0.39-11.91,0.93-17.87,0.99
			c-0.77,0.01-1.56-2.42-2.35-3.71C356.92,260.47,357.23,259.99,357.53,259.51z"/>
		<path class="st1" d="M236.39,631.77c-6.82-0.82-12.72-1.53-19.07-2.3c6.99-23.36,14.72-46.66,17.1-71.38
			C235.08,582.64,235.73,607.2,236.39,631.77z"/>
		<path class="st1" d="M91.05,477.25c-11-10.37-17.08-23.79-23.47-37.26c2.23,2.16,4.45,4.34,6.71,6.47
			c2.29,2.16,4.64,4.26,6.95,6.41c1.21,1.13,2.24,2.52,3.6,3.42C92.43,461.34,95.22,467.92,91.05,477.25z"/>
		<path class="st1" d="M282.1,636.91c-10.45-1.08-19.82-2.04-29.98-3.09c1.47-18.86,2.93-37.48,4.38-56.11
			C261.15,599.09,268.45,618.93,282.1,636.91z"/>
		<path d="M387.1,326.16c-2.25,0-4.5,0-8.17,0c3.76,2.91,6.61,5.12,9.46,7.32c-0.08,0.51-0.16,1.02-0.25,1.53
			c-14.71-2.39-29.25-2.92-43.59,1.53c-14.53,4.51-25.2,14.49-35.73,24.48c-0.55-0.03-0.97,0.08-1.18-0.08
			c-11.09-8.51-9.88-5.69-1.81-14.9c2.41-2.75,4.98-5.37,7.55-7.98c7.71-7.84,16.63-13.49,27.98-13.7
			c14.28-0.26,28.56-0.13,42.85-0.1c1.03,0,2.05,0.51,3.08,0.79C387.22,325.43,387.16,325.8,387.1,326.16z M325.53,338.82
			c3.64,1.75,6.68,2.39,9.11-1.63C330.7,333.45,328.2,335.6,325.53,338.82z"/>
		<path d="M533.45,298.1c-4.61-1.92-8.1-3.3-11.54-4.82c-9.5-4.2-18.31-3.88-26.33,3.48c-4.77,4.38-9.76,8.51-14.66,12.74
			c-1.44,1.25-2.91,2.46-4.88,3.31c1.86-5.81-1.02-12.82,6.59-16.85c6.82-3.62,12.72-8.97,19.06-13.5
			c6.01-4.29,12.02-3.92,18.78-1.1C527.79,284.39,531.6,289.4,533.45,298.1z"/>
		<path d="M456.75,452.45c-17.75,3.43-34.86,10.14-53.27,10.01c17.67-3.93,35.34-7.85,53.01-11.78
			C456.58,451.27,456.66,451.86,456.75,452.45z"/>
		<path d="M339.35,315.73c14.84-6.5,30.14-4.36,45.35-3.94c0.05,0.45,0.1,0.9,0.15,1.35c-1.78,0.29-3.57,0.58-6.02,0.98
			c2.39,1.55,4.24,2.75,6.09,3.96c-0.21,0.41-0.43,0.83-0.64,1.24c-1.98-1.02-3.92-2.13-5.95-3.05c-2.41-1.1-4.92-2.97-7.33-2.89
			c-9.24,0.33-18.46,1.32-27.69,2.06C341.99,315.54,340.67,315.64,339.35,315.73z"/>
		<path d="M467.75,303.89c0.68-2.65,1.37-5.3,2.11-8.2c-1.14,0-2.27,0-3.4,0c-0.14-0.3-0.28-0.61-0.41-0.91
			c7.27-4.65,14.54-9.31,21.82-13.96c0.39,0.45,0.78,0.89,1.17,1.34c-8.03,6.2-19.74,9.21-19.28,22.79
			C469.08,304.59,468.42,304.24,467.75,303.89z"/>
		<path d="M326.32,407.52c-7.36-9.2-14.72-18.39-22.09-27.59c0.48-0.38,0.96-0.77,1.43-1.15c7.38,9.15,14.77,18.29,22.15,27.44
			C327.32,406.65,326.82,407.08,326.32,407.52z"/>
		<path d="M346.76,395.2c-6.98-7.46-13.96-14.91-20.94-22.37c0.14-0.15,0.28-0.3,0.42-0.45c7.36,7.12,14.71,14.24,22.07,21.36
			C347.79,394.23,347.27,394.72,346.76,395.2z"/>
		<path d="M394.74,385.87c-9.73-4.01-17.39-10.5-22.98-19.48C379.42,372.88,387.08,379.37,394.74,385.87z"/>
		<path d="M368.01,389.96c-6.63-6.88-13.26-13.76-19.89-20.63c-0.08,0.07-0.16,0.15-0.25,0.22c6.59,6.93,13.19,13.86,19.78,20.79
			C367.78,390.21,367.89,390.08,368.01,389.96z"/>
		<path d="M462.87,449.53c8.53-4.46,17.06-8.93,25.59-13.39C481.09,442.88,473.01,448.24,462.87,449.53z"/>
		<path d="M376.45,387.22c-7-7.17-14-14.35-21-21.52c-0.16,0.17-0.32,0.33-0.48,0.5c7.51,6.66,15.02,13.32,22.53,19.99
			C377.15,386.53,376.8,386.87,376.45,387.22z"/>
		<path d="M337.14,399.43c-6.22-7.33-12.43-14.65-18.65-21.98c0.48-0.41,0.97-0.81,1.45-1.22c6.21,7.34,12.41,14.67,18.62,22.01
			C338.09,398.64,337.62,399.03,337.14,399.43z"/>
		<path d="M536.71,346.22c-6.19-5.89-12.38-11.77-18.57-17.66c-0.24,0.23-0.47,0.47-0.71,0.7c6.22,5.86,12.44,11.71,18.66,17.57
			C536.3,346.63,536.5,346.43,536.71,346.22z"/>
		<path d="M512.39,333.68c5.28,6,10.56,12,15.84,18c-0.48,0.43-0.96,0.87-1.44,1.3c-5.27-6.01-10.54-12.02-15.81-18.03
			C511.46,334.53,511.93,334.11,512.39,333.68z"/>
		<path d="M519.04,355.68c-4.71-5.81-9.43-11.62-14.14-17.42c0.48-0.39,0.95-0.79,1.43-1.18c4.71,5.81,9.41,11.63,14.12,17.44
			C519.98,354.91,519.51,355.3,519.04,355.68z"/>
		<path d="M496.51,339.64c3.99,4.96,7.98,9.93,11.97,14.89c-0.48,0.4-0.96,0.79-1.45,1.19c-3.98-4.96-7.96-9.92-11.93-14.88
			C495.57,340.44,496.04,340.04,496.51,339.64z"/>
		<path d="M476.02,389.43c0.65,6.37-0.87,12.15-6.01,16.54C472.02,400.45,474.02,394.94,476.02,389.43z"/>
		<path d="M456.91,443.33c4.81-1.95,9.63-3.9,14.44-5.84c0.25,0.58,0.49,1.17,0.74,1.75c-4.78,1.95-9.57,3.89-14.35,5.84
			C457.46,444.5,457.19,443.91,456.91,443.33z"/>
		<path d="M496.55,353.8c-2.85-3.54-5.7-7.07-8.56-10.61c0.46-0.4,0.92-0.79,1.38-1.19c2.89,3.51,5.79,7.02,8.68,10.52
			C497.56,352.96,497.06,353.38,496.55,353.8z"/>
		<path d="M528.59,329.51c2.99,3.38,5.97,6.76,8.96,10.14c-0.09,0.09-0.17,0.17-0.26,0.26c-3.24-3.09-6.47-6.18-9.71-9.27
			C527.92,330.26,528.25,329.88,528.59,329.51z"/>
		<path class="st1" d="M325.53,338.82c2.66-3.21,5.17-5.37,9.11-1.63C332.22,341.21,329.17,340.57,325.53,338.82z"/>
	</g>
</g>
</svg>
