<?xml version="1.0" encoding="utf-8"?>
<!-- Generator: Adobe Illustrator 23.0.0, SVG Export Plug-In . SVG Version: 6.00 Build 0)  -->
<svg version="1.1" id="图层_1" xmlns="http://www.w3.org/2000/svg" xmlns:xlink="http://www.w3.org/1999/xlink" x="0px" y="0px"
	 viewBox="0 0 559 392" style="enable-background:new 0 0 559 392;" xml:space="preserve">
<style type="text/css">
	.st0{fill:#FFFFFF;}
	.st1{fill:none;}
	.st2{display:none;fill:none;}
</style>
<g>
	<path class="st0" d="M197.98,1c8,0,16,0,24,0c-0.44,3.6-0.88,7.19-1.46,11.92c4.07-3.44,6.76-6.07,9.83-8.13
		c1.11-0.75,3.69-0.83,4.64-0.05c4.01,3.29,7.65,7.03,11.44,10.61c-3.46,2.49-6.11,4.39-8.76,6.3c-4,4.13-8,8.26-12,12.39
		c0.38,0.35,0.76,0.71,1.14,1.06c1.13-0.99,2.25-1.99,3.57-3.16c-0.44,4.11-0.83,7.81-1.22,11.5c0.51,0.09,1.02,0.17,1.54,0.26
		c0.54-7.87,1.98-15.4,7.67-21.28c5.17-3.17,10.13-7.49,16.49-2.94c-4.92,3.7-10.46,7.13-15.08,11.53
		c-4.87,4.64-4.9,11.48-5.55,17.87c1.25-3.68,2.51-7.35,3.76-11.03c0.15,0.04,0.3,0.09,0.45,0.13c-0.53,7.82-1.06,15.64-1.66,24.54
		c1.12-1.3,1.59-1.6,1.68-1.99c0.33-1.45,0.52-2.93,0.78-4.4c2.14-12.1,6.1-23.23,17.13-30.21c1.71-1.08,4.16-1,6.26-1.46
		c1.66,1.69,3.33,3.39,5.07,5.16c-11.19,4.65-16.45,8.99-17.74,17.01c-3.34,20.74-1.12,40.17,15.57,55.42
		c-1.45,0.15-2.91,0.3-5.06,0.52c9.28,5.23,39.15-2.71,44.42-11.55c-2.7,1.64-5.03,3.06-7.39,4.49c-0.27-0.57-0.44-0.75-0.4-0.84
		c0.65-1.52,1.29-3.05,1.99-4.55c8-17.15,6.99-33.6-4.06-49.14c-4.77-6.71-11.14-10.93-19.64-11.21c-5.04-0.17-6.69-3.73-8.8-7.78
		c14.88-2.69,27.37,1.38,38.87,9.26c11.29,7.73,18.89,17.4,15.99,32.23c-0.03,0.15,0.44,0.39,1.84,1.57
		c1.46-6.31,3.34-11.92,3.95-17.66c0.85-8.15-5.39-13.09-10.65-19c14.28,2.12,28.06,3.05,40.13,10.49c1.26,0.78,2.81,2.35,2.87,3.61
		c0.73,17.26,2.88,34.69,1.38,51.78c-2.25,25.51-14.63,47.44-29.75,67.77c-1.06,1.43-1.75,3.13-2.61,4.7
		c-2.52,2.58-5.04,5.16-7.56,7.74c-1.69,1.57-3.47,3.05-5.04,4.73c-7.96,8.53-17.28,14.44-29.23,15.34
		c-1.75,0.13-3.49,0.34-6.04,0.6c1.16,0.66,1.54,1.06,1.92,1.06c15.13,0.18,27.17-6.96,38.33-16.19l0.04-0.03
		c1.57-0.83,3.43-1.36,4.67-2.53c8.67-8.22,17.22-16.56,25.78-24.89c1.15-1.12,2.18-2.36,3.26-3.54c0.34,0.29,0.67,0.57,1.01,0.86
		c-4.04,6.26-8.08,12.51-12.11,18.77c-9.45,9.95-18.32,20.68-32.38,24.6c14.65-3,24.72-12.32,33.18-23.88
		c5.54-9.24,11.13-18.44,16.61-27.72c2.38-4.03,4.53-8.2,6.79-12.3c0.72,19.22,0.77,38,0.67,56.78c-0.01,2.63-0.29,5.42-1.19,7.87
		c-6.03,16.38-11.17,33.17-21.66,47.53c-0.83,1.14-1.13,2.67-1.67,4.02c-6.19,7.14-12.38,14.27-18.56,21.41
		c-8.8,6.68-17.61,13.37-26.41,20.05c0,0,0.01-0.01,0.01-0.01c-1.8,0.8-3.61,1.55-5.38,2.39c-19.49,9.31-38.63,20.11-61.63,14.6
		l0.02,0.02c-6.66-6-13.33-11.99-19.99-17.99l-0.04-0.04c-4-4.33-8-8.66-12-12.99l0.02,0.02c-1.17-1.02-2.33-2.03-3.5-3.05
		c-7.82-8.22-15.64-16.44-23.46-24.66c-3.43-5.25-6.73-10.59-10.31-15.73c-12.61-18.13-20.1-37.72-18.78-60.28
		c0.55-9.44-0.27-18.96-0.29-28.44c-0.02-8.91-7.34-15.33-7.05-24.98c0.26-8.42-0.76-16.83,1.95-25c3.4-10.27,11.63-12.7,19.63-5.41
		c4.25,3.87,7.46,8.88,10.75,12.89c0.58-5.12-2.36-11.62-8.18-16.92c-10.86-9.88-22.49-6.88-26.86,7.18
		c-1.65,5.3-2.45,10.86-3.69,16.55c-0.68-2.5-1.35-4.87-1.98-7.25c-2.95-11.25-3.02-22.66-2.2-34.17c0.48-6.76,2.25-9.02,9.12-9.68
		c2.64-0.25,5.34-0.34,7.98-0.12c1.34,0.11,3.18,0.71,3.8,1.71c2.69,4.33,5.02,8.89,7.7,13.75c-1.33,0.18-2.12,0.24-2.89,0.39
		c-0.78,0.15-1.54,0.39-2.31,0.58c5.62,0.51,8.82,3.98,12.55,7.54c6.21,5.93,13.32,10.92,20.22,16.09c1.49,1.11,3.68,1.28,5.55,1.88
		c-23.64-11.99-29.46-34.2-35.36-57.88c1.46,0.95,1.84,1.06,1.97,1.3c12.17,24.03,30.89,40.97,55.54,51.58
		c1.25,0.54,2.76,2.26,2.82,3.5c0.37,6.6,0.38,13.23,0.36,19.85c0,1.64-0.57,3.28-0.87,4.92c5.53-5.96,7.22-13.18,7.7-20.64
		c0.26-4.02,2.07-4.7,5.42-4.27c2.29,0.29,4.61,0.32,7.77,0.51c-4.96-4.35-9.22-7.56-12.8-11.41c-2.82-3.03-5.23-6.72-3.31-11.38
		l0.05,0.03c4.59,6.47,15.3,11.02,20.86,9.39c-4.03-2.45-8.48-5.15-12.93-7.85c-1.47-1.84-2.94-3.68-4.41-5.51
		c-0.75-1.28-1.47-2.59-2.27-3.84C206.02,44.89,199.06,23.89,197.98,1z M258.55,159.43c1.47,1.08,1.95,1.73,2.43,1.74
		c8.82,0.08,17.65,0.3,26.45-0.12c1.34-0.06,3.6-3.09,3.64-4.8c0.31-12.65,0.15-25.31,0.18-37.97c0.01-3.78-1.84-5.42-5.54-5.42
		c-12.66,0.01-25.31-0.02-37.97-0.1c-3.59-0.02-5.11,1.64-5.08,5.18c0.07,7.48,0.02,14.96,0.02,22.43
		c-0.53-0.22-1.05-0.43-1.58-0.65c-1.29,1.6-3.03,3.02-3.75,4.85c-0.66,1.67-0.05,3.8-0.28,5.7c-0.53,4.44-1.57,8.84-1.71,13.29
		c-0.06,1.84,1.67,3.74,2.59,5.61c0.6-0.16,1.19-0.32,1.79-0.49c0-3.38,0-6.75,0-10.13c0.5-0.08,0.99-0.16,1.49-0.24
		c-1.61,4.1,1.66,6.01,3.21,8.67c0.49,0.85,2.11,2.05,2.37,1.87c3.03-2.07,3.63,0.81,4.94,2.24c1.26,1.37,2.56,2.72,4.73,5.02
		c0.78-3.07,1.53-4.86,1.65-6.7c0.25-3.82,0.21-7.66,0.2-11.49c-0.01-2.2,0.27-3.53,2.65-5.06c1.97-1.28,4.22-1.23,5.95-2.57
		c1.24,1.12,2.49,2.24,3.73,3.36c0.23-0.19,0.46-0.38,0.68-0.57c-1.27-2.57-2.53-5.13-3.76-7.63c3.51,1.56,7.08,3.14,11.04,4.89
		c0,0.46,0,1.57,0,2.24c1.77-1.2,3.44-2.33,5.11-3.46c1.02,2.19,2.24,4.32,2.86,6.61c0.11,0.39-2.35,2.07-3.69,2.15
		c-6.63,0.4-13.28,0.43-19.91,0.66C261.84,158.58,260.71,158.99,258.55,159.43z M160.17,132.19c0.08-0.01,0.17-0.01,0.25-0.02
		c-0.44-4.79-0.47-9.66-1.4-14.34c-1.67-8.4-3.59-16.78-6.01-24.99c-1.01-3.43-4.01-5.93-8.12-5.13c-4.02,0.78-4.7,4.27-5.19,7.61
		c-1.76,11.94-0.16,23.54,4.32,34.66c1.59,3.95,3.88,7.77,6.58,11.04c1.27,1.54,4.51,2.59,6.41,2.11c1.42-0.36,2.45-3.43,3.05-5.47
		C160.56,135.96,160.17,134.02,160.17,132.19z M243.37,224.2c-0.64-1.09-0.78-1.67-1.15-1.9c-13.66-8.35-27.92-11.51-43.1-4.38
		c-1.01,0.48-1.87,2.87-1.61,4.13c0.46,2.21,1.72,4.3,2.86,6.32c4.42,7.81,8.89,8.82,17.48,3.54c-3.02,0-5.57,0.45-7.85-0.15
		c-1.74-0.45-4.03-1.94-4.52-3.46c-1.18-3.69,4.48-11.81,8.45-12.2c9.53-0.94,18.1,2.01,26.88,7.21c-2.89,1.46-4.92,2.49-6.96,3.52
		c0.2,0.37,0.39,0.73,0.59,1.1C237.37,226.7,240.29,225.48,243.37,224.2z M171.95,185.48c0.38-0.19,0.77-0.39,1.15-0.58
		c-6.34-7.16-12.67-14.33-19.39-21.93c-0.31,6.19,2.54,10.35,7.12,13.77C164.61,179.56,168.25,182.56,171.95,185.48z M231.72,169.08
		c1.32-5.78,2.48-10.9,3.65-16.02c-0.41-0.09-0.82-0.17-1.23-0.26c-1.29,2.6-2.57,5.21-3.81,7.72c-0.62-3.56-1.18-6.75-1.74-9.95
		c-1.5,0.89-2.24,2.27-1.96,2.52c3.22,2.92,1.28,5.98,0.51,9.07C226.34,165.39,227.66,167.53,231.72,169.08z M156.12,153.06
		c7.97-3.92,19.55-27.45,17.07-34.07C171.83,132.34,163.26,142.18,156.12,153.06z M227.18,142.85c1.58,1.59,3.15,3.18,4.73,4.77
		c0.71-0.72,2.12-1.57,2.01-2.14C233.37,142.46,231.43,141.11,227.18,142.85z"/>
	<path class="st0" d="M323.98,392c-1.33,0-2.67,0-4,0c9.44-18.23,17.47-37.01,23.36-56.73c9.4-31.51,15.96-63.61,20.54-96.12
		c2.48-17.62,4.94-35.3,6.03-53.04c1.2-19.6,0.79-39.3,1.18-58.95c0.04-2.1,0.56-4.26,1.22-6.27c3.6-11.06,7.99-21.92,10.8-33.17
		c3.24-12.99,5.13-26.31,7.52-39.04c0.58,8.02,1.19,16.51,1.81,25c1.29-1.06,1.6-2.11,1.51-3.13c-1.29-15.76-2.31-31.55-4.1-47.25
		c-0.86-7.52-3.2-14.87-4.86-22.3c22,0,44,0,66,0c2.29,9.85,4.38,19.75,6.89,29.55c12.93,50.57,22.85,101.92,38.93,151.68
		c7.4,22.89,15.95,45.23,30.89,64.47c2.37,3.06,5.5,5.53,8.27,8.28c0,0,0.04,0.04,0.04,0.04c1.16,1.73,2.32,3.45,3.46,5.15
		c-0.88-0.06-1.67-0.11-2.46-0.16l-0.04-0.03c-0.61-0.75-1.14-1.56-1.83-2.23c-7.34-7.12-14.79-14.14-22.02-21.37
		c-3.58-3.58-6.76-7.56-10.12-11.36l-0.04-0.05c-0.41-1.05-0.66-2.21-1.26-3.15c-10.41-16.21-19-33.23-23.6-52.08
		c-0.67-2.73-1.7-5.36-2.56-8.04c-0.38,0.12-0.76,0.23-1.14,0.35c0.75,3.44,1.51,6.88,2.26,10.31c-0.52,0.18-1.04,0.36-1.56,0.54
		c-5.17-13.1-10.87-26.01-15.37-39.34c-4.57-13.55-8.34-27.41-11.76-41.3c-3.31-13.43-5.73-27.08-8.54-40.63
		c1.34,24.45,5,48.55,9.03,72.67c4.02,24.04,5.97,48.43,8.69,71.59c0.94-36.21-6.89-72.5-12.94-109.01c0.85,1.31,1.18,2.7,1.6,4.07
		c6.49,21.16,12.88,42.35,19.54,63.45c3.09,9.79,7.12,19.3,9.95,29.16c2.29,7.97,3.4,16.29,5.07,24.44
		c3.59,17.45,4.98,34.95,0.7,52.48c-9.79,40.15-21.43,79.75-35.97,118.46c-0.39,1.04-0.94,2.01-1.42,3.02
		c-0.4-0.12-0.79-0.25-1.19-0.37c1.37-5.95,2.04-12.19,4.25-17.81c6.55-16.61,8.31-33.13,3.86-50.77
		c-2.61-10.35-3.01-21.4-3.22-32.16c-0.33-16.98,0.35-33.98,0.56-50.97c0.02-1.57-0.32-3.14-0.43-4.21
		c-2.18,55.25-4.37,110.78-6.56,166.31c-32.33,0-64.67,0-97,0c6.87-26.57,13.89-53.1,20.55-79.73c2.37-9.5,3.28-19.39,5.9-28.81
		c3.16-11.36,7.66-22.34,11.18-33.62c8.55-27.44,14.65-55.55,15.93-84.17c1.1-24.38-0.94-48.9-1.64-73.36
		c-0.02-0.74-0.65-1.46-0.99-2.18c-0.52,0.01-1.05,0.02-1.57,0.03c8.84,69.14-0.69,135.5-28.46,199.12
		c-0.51-3.71-0.03-7.29,0.15-10.89c0.17-3.41,0.04-6.84,0.04-10.26C359.83,312.45,351.97,355.46,323.98,392z M440.77,207.43
		c1.46,31.77-3.83,62.73-11.12,93.4c-7.39,31.09-20.05,59.99-37.44,86.83C417.89,366.96,452.45,239.11,440.77,207.43z
		 M377.67,247.68c6.95-10.04,14.85-61.68,10.45-70.41C388.23,201.95,384.39,225.04,377.67,247.68z"/>
	<path class="st0" d="M173.03,245.29c7.82,8.22,15.64,16.44,23.46,24.66c0.11,9.31,0.4,18.62,0.3,27.93
		c-0.22,21.24,5.42,41.1,13.96,60.27c1.58,3.55,3.99,6.72,6.02,10.06c0.52-0.25,1.04-0.51,1.55-0.76
		c-9.38-12.48-12.53-26.9-14.31-41.92c-1.78-14.95-0.36-29.69,0.7-45.29c2.93,2.33,5.09,4.03,7.25,5.74c0,0,0.04,0.04,0.04,0.04
		c0.94,3.32,1.78,6.67,2.85,9.95c4.22,12.92,8.36,25.87,12.88,38.69c1.02,2.9,3.46,5.31,5.95,9c-2.21-6.12-3.79-10.66-5.49-15.15
		c-3.51-9.29-7.16-18.52-10.57-27.84c-0.85-2.33-0.99-4.93-1.52-7.71c5.7,3.97,10.79,7.51,15.88,11.05c0,0-0.02-0.02-0.02-0.02
		c2.19,0.97,4.43,2.84,6.57,2.75c7.42-0.32,14.81-1.25,22.2-2.1c2.04-0.23,4.01-0.99,6.48-1.63c0,1.39,0.05,2.02-0.01,2.63
		c-1.43,14.21-2.99,28.4-4.24,42.62c-0.3,3.4-2.18,4.24-4.83,4.44c-5.8,0.44-11.62,0.88-17.43,1.04
		c-10.91,0.3-11.79,1.33-11.68,12.31c0.04,4.17-0.91,8.36-1.41,12.54c-5.67,4.74-11.54,5.52-17.75,1.01
		c-0.5-0.36-1.23-0.4-1.86-0.58l-0.05-0.06c-18.65-33.3-20.16-70.11-22.03-106.98c-6.29,34.8-14.26,69.35-9.49,105.11
		c-5.78-17.12-8.61-34.81-9.13-52.78c-0.51-17.69-0.11-35.41-0.11-52.59c-0.07,0.54-0.32,1.64-0.34,2.76
		c-0.36,17.12-1.3,34.26-0.87,51.37c0.58,22.95,4.24,45.41,15,66.16c-15.67,0-31.33,0-47,0c-11.34-26.28-14.48-53.95-15.31-82.3
		c-0.59-20.11,8.87-38.48,8.15-58.49c-0.24-6.58,1.67-13.23,2.59-19.85c-0.42-0.07-0.85-0.14-1.27-0.22
		c-0.43,2.37-0.97,4.72-1.28,7.11c-2.2,16.58-2.71,33.43-7.84,49.55c-0.5,1.56-0.92,3.19-1.69,4.61
		c-11.89,22.13-23.97,44.16-35.72,66.36c-5.54,10.48-9.59,21.37-3.64,33.22c-2,0-4,0-6,0c-2.85-8.58-6.17-17.53-3.15-26.34
		c5.49-16,12.18-31.6,18.38-47.36c2.16-5.5,4.76-10.88,6.44-16.53c8.6-29.03,17-58.12,25.37-87.22c2.19-7.61,4.06-15.32,6.08-22.98
		c-0.53-0.13-1.06-0.27-1.59-0.4c-0.88,3.3-1.89,6.57-2.61,9.91c-5.07,23.3-15.63,43.43-33.89,59.17c-0.83,0.72-1.34,1.8-2,2.72
		l-0.06,0.05c-5.99,4.32-11.98,8.65-17.97,12.97c0,0-0.01,0.01-0.01,0.01c0.46-1.04,0.72-2.25,1.42-3.09
		c3.12-3.69,6.36-7.27,9.56-10.89c0,0,0.04-0.05,0.04-0.05c2.61-2.93,5.66-5.58,7.74-8.85c10.63-16.67,18.31-34.69,23.28-53.81
		c1.99-7.64,3.35-15.45,4.98-23.11c4.68-0.72,7.99,0.89,11.04,4.38c4.25,4.87,8.75,9.69,16.12,9.8c0.92,0.01,2.35,1.7,2.64,2.84
		c3.56,14.28,10.35,26.98,18.83,38.84C165.88,236.62,169.55,240.89,173.03,245.29z"/>
	<path class="st0" d="M463.98,1c27.67,0,55.33,0,83,0c2.7,6.86,5.39,13.73,8.11,20.59c1.25,3.15,2.59,6.27,3.89,9.41c0,27,0,54,0,81
		c-2.19-9.96-4.37-19.91-6.56-29.87c-0.49,0.1-0.99,0.21-1.48,0.31c0.98,4.43,1.98,8.85,2.93,13.29c1.72,8.09,3.41,16.18,5.11,24.27
		c0,50,0,100,0,150c-7.66-4.99-15.32-9.98-22.98-14.98c0,0-0.04-0.04-0.04-0.04c-0.51-0.84-0.99-1.69-1.52-2.51
		c-7.58-11.91-15.85-23.44-22.52-35.84c-4.43-8.23-8.27-17.46-9.46-26.63c-4.15-32-6.95-64.18-10.48-96.27
		c-0.83-7.51-2.51-14.94-3.79-22.4c-0.15,0.04-0.31,0.07-0.46,0.11c4.31,37.19,8.62,74.37,12.92,111.56
		c-0.52,0.09-1.04,0.18-1.56,0.27c-0.79-2.33-1.73-4.62-2.36-7c-6.95-25.88-13.91-51.76-20.7-77.68c-1.21-4.62-2.13-9.41-2.34-14.16
		c-0.6-13.62,0.21-27.36-1.37-40.85C470.63,29.27,466.85,15.19,463.98,1z M554.93,252.57c0.37-0.03,0.74-0.05,1.1-0.08
		c-0.08-1.12-0.06-2.25-0.24-3.35c-4.79-28.47-13.13-55.94-23.23-82.94c-6.56-17.56-15.47-34.32-18.13-53.22
		c-0.09-0.65-0.64-1.24-0.97-1.86c-0.65,1.51-0.81,2.85-0.45,4.04c3.11,10.32,5.52,20.95,9.64,30.86
		c11.12,26.78,20.79,53.99,27.24,82.28C551.73,236.35,553.26,244.47,554.93,252.57z"/>
	<path class="st0" d="M85.03,170.99c-2.18-2.32-4.35-4.63-6.53-6.95c-1.05-1.49-2.04-3.02-3.17-4.45
		c-7.16-9.06-13.78-18.53-17.05-29.72c-5.54-18.92-9.91-38.32-8.78-58.01c1.36-23.69,4.9-47.25,7.49-70.87c13.67,0,27.33,0,41,0
		c-0.18,5.33-0.33,10.65-0.53,15.98c-0.78,20.9,0.14,41.61,7.1,61.62c2.02,5.81,4.95,11.49,5.84,17.47
		c2.25,15.26,7.76,29.26,15.07,42.6c2.35,4.3,5.23,9.45,9.24,11.45c8.14,4.06,8.55,10.07,7.42,17.41c-0.18,1.14-0.11,2.33-0.06,3.49
		c0.14,3.57-1.88,4.46-4.8,3.56c-3.15-0.97-6.17-2.35-9.24-3.55l-0.06-0.05c-1.28-1.49-2.51-3.03-3.85-4.47
		c-11.27-12.04-19.24-25.85-22.63-42.11c-0.9-4.34-1.68-8.7-2.52-13.05c-0.92,0.81-1.16,1.58-1.07,2.29
		c2.5,18.26,8.76,35.34,16.22,52.15c-18.16-13.44-27.52-32.43-33.8-53.49c-0.39,1.3-0.48,2.44-0.38,3.57
		c1.11,11.97,5.07,23.05,10.87,33.47c4.58,8.23,10.6,15.2,19.14,19.64l0.03,0.02c0.39,0.93,0.78,1.85,1.27,3.03
		c-7.53-2.7-14.51-8.05-21.51-16.96c-26.19-33.32-36.02-71.1-30.66-113.17c-1.27,4.36-2.18,8.7-2.16,13.03
		c0.06,12.13,0.73,24.26,0.75,36.4c0.05,28.3,8.88,53.54,25.79,76.1C84.23,168.44,84.52,169.8,85.03,170.99z"/>
	<path class="st0" d="M325.39,266.95c6.19-7.14,12.38-14.27,18.56-21.41c7.98-8.98,13.1-19.57,17.29-30.69
		c1.56-4.12,3.15-8.23,4.73-12.35c0.79,1.86,0.84,3.5,0.59,5.1c-3.25,21.05-6.17,42.16-9.9,63.12
		c-7.5,42.12-17.78,83.41-38.68,121.28c-9.67,0-19.33,0-29,0c2.24-5.73,4.54-11.35,3.05-17.82c-2.58-11.18-4.56-22.5-7.3-33.63
		c-3.2-13.04-6.95-25.94-10.56-39.27c24.34-4.61,47.63-12.33,68.05-27.21c-18.75,11.44-38.82,19.42-60.78,24.08
		c6.22-3.95,11.89-7.55,17.55-11.14c0,0-0.01,0.01-0.01,0.01C307.78,280.32,316.59,273.64,325.39,266.95z"/>
	<path class="st0" d="M539.98,392c-1.67,0-3.33,0-5,0c-5.65-9.01-11.75-17.77-16.86-27.08c-19.57-35.58-30.48-73.94-32.57-114.29
		c-1.01-19.52-1.98-38.82-6.43-57.86c-0.87-3.73-1.44-7.53-2.15-11.29c0.42-0.13,0.84-0.25,1.26-0.38c1.01,1.84,2.08,3.65,3.01,5.53
		c4.68,9.38,9.12,18.89,14.07,28.12c1.99,3.71,5.07,6.83,7.65,10.22l0.04,0.05c8.47,41.89,16.68,83.84,25.54,125.65
		C531.5,364.63,536.12,378.23,539.98,392z"/>
	<path class="st0" d="M220.52,68.04c1.47,1.84,2.94,3.68,4.41,5.51c0.53,1.25,1.06,2.5,1.74,4.12c-3.46-2.02-6.57-3.84-9.67-5.65
		c0,0-0.05-0.03-0.05-0.03c-5.82-8.25-11.65-16.5-17.47-24.75c1.77,4.62,4.07,8.96,6.68,13.11c1.94,3.09,4.99,5.64,6.31,8.93
		c4.37,10.92,6.84,22.29,5.22,34.17c-0.3,2.23-1.14,4.38-1.73,6.57c-0.82-20.74-5.42-38.61-11.62-43.81c2.59,7.19,5.31,14.7,8.3,23
		c-24.86-6.99-51.88-34.22-57.7-54.45c10.17,8.73,18.29,20.24,32.92,21.46c-8.8-1.79-15.7-6.93-21.28-13.62
		C156.45,30.42,148.8,16.87,145.98,1c16.67,0,33.33,0,50,0c0.24,1.64,0.55,3.27,0.7,4.92c1.85,20.82,8.21,40.14,19.43,57.79
		C217.18,65.4,219.03,66.61,220.52,68.04z"/>
	<path d="M328.58,166.73c0.86-1.57,1.55-3.28,2.61-4.7c15.12-20.32,27.5-42.26,29.75-67.77c1.5-17.09-0.65-34.51-1.38-51.78
		c-0.05-1.26-1.61-2.83-2.87-3.61c-12.07-7.44-25.85-8.38-40.13-10.49c5.26,5.9,11.5,10.85,10.65,19
		c-0.6,5.74-2.48,11.35-3.95,17.66c-1.4-1.18-1.87-1.42-1.84-1.57c2.9-14.83-4.7-24.5-15.99-32.23
		c-11.5-7.88-23.99-11.95-38.87-9.26c2.11,4.05,3.76,7.61,8.8,7.78c8.49,0.28,14.86,4.5,19.64,11.21
		c11.05,15.54,12.06,31.98,4.06,49.14c-0.7,1.5-1.34,3.03-1.99,4.55c-0.04,0.09,0.12,0.27,0.4,0.84c2.36-1.43,4.69-2.85,7.39-4.49
		c-5.28,8.83-35.15,16.78-44.42,11.55c2.15-0.22,3.61-0.37,5.06-0.52c-16.69-15.25-18.91-34.68-15.57-55.42
		c1.29-8.02,6.55-12.35,17.74-17.01c-1.74-1.77-3.4-3.47-5.07-5.16c0.25-0.31,0.49-0.61,0.74-0.92c-0.62-1.41-1.08-2.91-1.88-4.21
		C257.7,13.18,253.82,7.1,249.98,1c0.67,0,1.33,0,2,0c2.78,4.9,3.6,11.57,11.29,12.2c-1.01,0.75-1.81,1.34-3.13,2.32
		c10.38,0,19.96,0,30.82,0c-2.62-2.06-4.14-3.08-5.46-4.32c-3.55-3.35-7.02-6.8-10.52-10.21c0.67,0,1.33,0,2,0
		c12.84,13.49,27.7,23.45,46.82,26.86c-1.14-1.56-1.97-2.7-2.81-3.85c1.86,0.92,3.67,2,5.6,2.73c3,1.14,6.1,2.04,10.13,3.36
		c-0.99-2.35-1.36-3.22-1.72-4.08c3.26,1.9,6.43,3.98,9.81,5.64c4.31,2.12,8.79,3.89,13.19,5.8c0.45-0.45,0.9-0.89,1.35-1.34
		C355.9,24.42,352.44,12.71,348.98,1c0.33,0,0.67,0,1,0c1.29,2.86,2.94,5.62,3.82,8.61c5.47,18.57,8.22,37.53,9.72,56.89
		c1.95,25.27-2.64,48.81-14.84,70.7C342.9,147.56,335.34,156.92,328.58,166.73z M284.46,54.76c1.24,6.33,1.68,12.56-1.62,18.42
		c-2.26,4.02-6.31,5.48-10.14,3.76c-6.32-2.84-12.79-18.56-5.51-25.16c0.81-0.73,0.81-2.35,1.18-3.56
		c-1.37,0.04-2.98-0.37-4.07,0.21c-4.21,2.24-5.71,6.22-6.16,10.74c-0.93,9.23,1.37,17.75,5.96,25.5c-1.21,1.51-2.56,2.54-2.93,3.85
		c-0.32,1.13,0.47,2.57,0.77,3.88c1.18-0.29,3.24-0.34,3.39-0.9c1.17-4.41,4.45-3.34,7.57-3.59c3.06-0.25,6.34-0.89,9.01-2.31
		C290.06,81.23,291.61,63.4,284.46,54.76z M279.06,52.93c6.71,0.19,10.82-3.34,11.02-9.44c0.18-5.77-3.18-9.29-9.1-9.49
		c-6.48-0.22-11.38,3.93-11.52,9.78C269.32,49.12,273.14,52.76,279.06,52.93z M274.8,57.51c-1.67-1.48-2.64-2.34-3.61-3.19
		c-1,1.27-2.45,2.42-2.83,3.85c-0.21,0.78,1.4,2.03,2.19,3.08C271.77,60.18,272.99,59.11,274.8,57.51z"/>
	<path class="st0" d="M328.58,166.73c6.75-9.81,14.32-19.18,20.1-29.54c12.21-21.89,16.8-45.43,14.84-70.7
		c-1.5-19.36-4.25-38.31-9.72-56.89c-0.88-2.99-2.53-5.74-3.82-8.61c11.33,0,22.67,0,34,0c1.8,11.98,5.26,23.99,5.05,35.94
		c-0.37,20.97-4.52,41.65-10.33,61.87c-1.24,4.31-2.83,8.54-4.48,12.72c-1.58,4.01-3.43,7.91-5.17,11.86
		c6.26-27.66,8.85-50.23,5.02-57.54c0,3.36,0.16,5.3-0.03,7.21c-1.04,10.91-1.34,21.98-3.45,32.68c-3.29,16.67-7.41,33.3-20.38,45.8
		c-8.38,8.08-16.82,16.11-25.21,24.19c-1.4,1.35-2.68,2.84-4.01,4.26c0,0-0.04,0.03-0.04,0.03c-1.26,0.37-2.51,0.75-3.65,1.09
		c1.29-2.3,2.5-4.46,3.71-6.63C323.54,171.9,326.06,169.31,328.58,166.73z"/>
	<path class="st0" d="M558.98,271c0,4.33,0,8.67,0,13c-0.46,1.39-1.03,2.76-1.37,4.19c-3.28,13.92-6.1,27.97-9.91,41.74
		c-3.44,12.43-7.96,24.55-12.38,37.97c-5.04-10.28-29.65-129.48-28.46-135.49c5.73,6.12,11.25,12.54,17.36,18.34
		c3.77,3.57,8.45,6.19,12.73,9.23c0,0,0.04,0.03,0.04,0.03C544.33,263.67,551.66,267.34,558.98,271z"/>
	<path d="M145.98,1c2.82,15.87,10.47,29.42,20.61,41.58c5.58,6.69,12.48,11.83,21.28,13.62c-14.63-1.22-22.75-12.73-32.92-21.46
		c5.82,20.23,32.84,47.46,57.7,54.45c-3-8.3-5.71-15.81-8.3-23c6.21,5.2,10.8,23.06,11.62,43.81c0.59-2.19,1.43-4.34,1.73-6.57
		c1.62-11.88-0.85-23.25-5.22-34.17c-1.32-3.29-4.36-5.84-6.31-8.93c-2.61-4.15-4.92-8.49-6.68-13.11
		c5.82,8.25,11.65,16.5,17.47,24.75c-1.91,4.66,0.49,8.35,3.31,11.38c3.58,3.84,7.84,7.05,12.8,11.41c-3.16-0.2-5.48-0.22-7.77-0.51
		c-3.35-0.42-5.16,0.26-5.42,4.27c-0.48,7.46-2.17,14.68-7.7,20.64c0.31-1.64,0.87-3.28,0.87-4.92c0.02-6.62,0.01-13.24-0.36-19.85
		c-0.07-1.24-1.57-2.96-2.82-3.5c-24.66-10.61-43.37-27.55-55.54-51.58c-0.12-0.24-0.51-0.35-1.97-1.3
		c5.9,23.68,11.72,45.89,35.36,57.88c-1.87-0.6-4.06-0.77-5.55-1.88c-6.9-5.17-14.01-10.16-20.22-16.09
		c-3.73-3.56-6.93-7.04-12.55-7.54c0.77-0.2,1.53-0.43,2.31-0.58c0.77-0.15,1.56-0.22,2.89-0.39c-2.68-4.86-5-9.42-7.7-13.75
		c-0.62-1-2.46-1.6-3.8-1.71c-2.64-0.22-5.33-0.14-7.98,0.12c-6.88,0.66-8.64,2.92-9.12,9.68c-0.82,11.51-0.75,22.92,2.2,34.17
		c0.63,2.38,1.29,4.75,1.98,7.25c1.24-5.69,2.05-11.25,3.69-16.55c4.37-14.06,16-17.07,26.86-7.18c5.82,5.3,8.76,11.8,8.18,16.92
		c-3.29-4.01-6.5-9.02-10.75-12.89c-8-7.29-16.23-4.86-19.63,5.41c-2.71,8.17-1.69,16.58-1.95,25c-0.3,9.65,7.03,16.07,7.05,24.98
		c0.02,9.48,0.84,19,0.29,28.44c-1.32,22.56,6.17,42.15,18.78,60.28c3.58,5.14,6.88,10.48,10.31,15.73
		c-3.48-4.4-7.15-8.67-10.41-13.23c-8.48-11.86-15.27-24.56-18.83-38.84c-0.28-1.14-1.72-2.83-2.64-2.84
		c-7.37-0.11-11.87-4.94-16.12-9.8c-3.04-3.49-6.35-5.1-11.04-4.38c-1.63,7.66-2.99,15.47-4.98,23.11
		c-4.97,19.12-12.65,37.14-23.28,53.81c-2.08,3.27-5.14,5.92-7.74,8.85c1.12-1.79,2.18-3.62,3.37-5.36
		c16.09-23.83,26.31-49.92,29.89-78.5c0.18-1.41-0.8-3.74-1.96-4.42c-25.08-14.71-36.7-39-46.39-64.69
		c-0.87-2.31-1.51-4.7-2.62-6.95c1.42,16.74,5.62,32.72,13.66,47.57c8.01,14.8,17.67,28.13,34.14,35.78
		c-5.63,0.34-19.21-8.48-23.05-14.41c-0.51-1.2-0.8-2.55-1.56-3.56c-16.91-22.56-25.74-47.8-25.79-76.1
		c-0.02-12.13-0.69-24.26-0.75-36.4c-0.02-4.33,0.89-8.67,2.16-13.03c-5.35,42.07,4.48,79.85,30.66,113.17
		c7,8.91,13.98,14.26,21.51,16.96c-0.49-1.18-0.88-2.1-1.27-3.03c2.59-1.08,1.66-2.26,0.16-3.58c-2.11-1.86-4.47-3.56-6.17-5.75
		c-5.65-7.29-11.04-14.76-16.87-22.61c3.65,9.95,8.4,18.59,16.21,25.37c2.34,2.03,4.43,4.35,6.64,6.54
		c-8.54-4.44-14.56-11.41-19.14-19.64c-5.8-10.42-9.76-21.5-10.87-33.47c-0.1-1.13-0.01-2.27,0.38-3.57
		c6.28,21.05,15.64,40.05,33.8,53.49c-7.46-16.81-13.73-33.89-16.22-52.15c-0.1-0.72,0.15-1.48,1.07-2.29
		c0.84,4.35,1.62,8.71,2.52,13.05c3.39,16.27,11.36,30.07,22.63,42.11c1.34,1.43,2.57,2.98,3.85,4.47c-1.87-1.25-4.09-2.2-5.55-3.82
		c-3.67-4.09-7-8.48-10.47-12.75c3.32,7.88,6.95,15.65,12.06,22.27c3.61,4.67,9.14,7.91,14.06,11.45c0.87,0.63,3.62,0.13,4.31-0.76
		c2.46-3.2-0.66-9.66-4.56-11.16c-3.42-1.32-6.54-3.43-9.8-5.19c3.08,1.2,6.1,2.58,9.24,3.55c2.92,0.9,4.94,0.01,4.8-3.56
		c-0.05-1.16-0.11-2.35,0.06-3.49c1.13-7.33,0.71-13.34-7.42-17.41c-4.01-2-6.89-7.16-9.24-11.45
		c-7.31-13.34-12.82-27.34-15.07-42.6c-0.88-5.98-3.81-11.66-5.84-17.47c-6.97-20.01-7.89-40.71-7.1-61.62
		c0.2-5.33,0.35-10.65,0.53-15.98c0.67,0,1.33,0,2,0c0.05,16.91-1.11,33.93,0.43,50.7c2.18,23.82,11.28,45.61,24.26,65.71
		c1.42,2.19,2.86,4.37,4.29,6.56c-5.45-7.16-10.89-14.31-15.45-20.31c2.09,11.59,7.49,23.84,14.14,35.51
		c2.33,4.09,5.94,7.52,9.27,10.95c1.19,1.22,3.29,1.56,5.83,2.68c-0.44-8.7,0.42-16.34-7.44-21.42c-2.6-1.68-4.23-4.86-6.31-7.36
		c2.94,2.4,5.88,4.79,9.88,8.05c-4.63-11.96-8.7-22.45-12.77-32.95c-0.17,0.03-0.33,0.07-0.5,0.1c1.6,6.01,3.21,12.02,4.91,18.38
		c-9.31-7.44-18.82-50.03-14.78-66.05c-0.07,17.73,2.78,34.96,8.54,51.69c-2.43-34.64,1.47-68.64,9.7-102.23c0.33,0,0.67,0,1,0
		c1.31,30.36,11.06,57.29,31.97,79.7c0.18-0.74-0.08-1.3-0.42-1.8c-9.72-14.22-15.22-29.82-15.85-47.13c-0.07-1.99-1.33-4-2.26-5.89
		c-4.1-8.32-8.28-16.59-12.44-24.88c0.33,0,0.67,0,1,0c5.69,12.06,11.18,24.25,21.22,33.6c-6.82-10.34-11.46-21.57-14.22-33.6
		C144.65,1,145.32,1,145.98,1z M126.09,54.1c6.14-3.22,11.03-5.79,15.7-8.24c-2.76-10.88-5.57-21.96-8.38-33.05
		c-0.25-0.04-0.51-0.08-0.76-0.11C130.48,26.39,128.31,40.08,126.09,54.1z M219.72,85.84c-0.19,6.16,1.23,7.35,7.19,6.14
		C224.49,89.92,222.21,87.97,219.72,85.84z"/>
	<path class="st0" d="M532.98,392c-15.33,0-30.67,0-46,0c1.7-11.85,3.71-23.67,5-35.56c1.04-9.66,0.12-10.73-9.12-14.43
		c-6.61-2.65-13.36-4.95-20.27-7.49c7.13-25.42,14.19-50.6,21.42-76.35c0.34,1.56,0.62,2.64,0.79,3.73
		c1.92,11.82,3.13,23.8,5.87,35.42C498.74,331.51,512.53,363.28,532.98,392z"/>
	<path class="st0" d="M128.96,123.97c-1.43-2.18-2.88-4.36-4.29-6.56c-12.97-20.1-22.07-41.9-24.26-65.71
		c-1.54-16.77-0.38-33.79-0.43-50.7c11.33,0,22.67,0,34,0c-8.23,33.59-12.13,67.59-9.7,102.23c-5.76-16.73-8.6-33.96-8.54-51.69
		c-4.05,16.01,5.47,58.6,14.78,66.05c-1.7-6.36-3.3-12.37-4.91-18.38c0.17-0.03,0.33-0.07,0.5-0.1c4.07,10.5,8.14,21,12.77,32.95
		c-4-3.25-6.94-5.65-9.88-8.05C129,124.02,128.96,123.97,128.96,123.97z"/>
	<path class="st0" d="M286.98,392c-18.67,0-37.33,0-56,0c0.04-8.33,0.15-16.66,0.09-24.98c-0.08-11.66-0.06-12.12,11.92-11.76
		c13.04,0.4,25.04-2.73,36.54-8.5c1.25-0.63,2.64-1,4.75-1.78c1.64,7.73,2.93,14.9,4.73,21.94
		C291.24,375.58,291.7,383.96,286.98,392z M265.38,381.27c0.33-0.37,0.67-0.73,1-1.1c-3.71-5.41-12.02-7.25-12.78-15.47
		c-1.11,0.06-2.93,0.15-5.83,0.3C254.12,370.88,259.75,376.07,265.38,381.27z"/>
	<path class="st0" d="M485.98,392c-14.33,0-28.67,0-43,0c2.06-6.29,4.04-12.61,6.19-18.87c4.14-12.08,8.38-24.12,12.82-36.9
		c7.3,2.63,14.38,4.96,21.29,7.71c7.7,3.06,8.15,4.24,7.1,12.44C488.86,368.25,487.44,380.13,485.98,392z M474.94,364.81
		c2.02-4.32,3.48-7.46,4.74-10.14c-7.36,9.49-14.91,19.21-22.76,29.32c8.74-8.08,17.18-15.88,25.63-23.69
		c-0.21-0.24-0.42-0.49-0.63-0.73C479.96,361.03,478.02,362.49,474.94,364.81z"/>
	<path d="M485.98,392c1.46-11.87,2.87-23.75,4.39-35.62c1.05-8.21,0.6-9.38-7.1-12.44c-6.91-2.75-13.99-5.09-21.29-7.71
		c-4.44,12.77-8.68,24.82-12.82,36.9c-2.15,6.26-4.13,12.58-6.19,18.87c-0.67,0-1.33,0-2,0c2.19-55.53,4.38-111.06,6.56-166.31
		c0.12,1.07,0.45,2.65,0.43,4.21c-0.2,16.99-0.89,33.99-0.56,50.97c0.21,10.76,0.61,21.82,3.22,32.16
		c4.44,17.64,2.68,34.16-3.86,50.77c-2.22,5.62-2.88,11.85-4.25,17.81c0.4,0.12,0.79,0.25,1.19,0.37c0.48-1,1.03-1.98,1.42-3.02
		c14.54-38.71,26.18-78.31,35.97-118.46c4.28-17.54,2.88-35.03-0.7-52.48c-1.68-8.15-2.78-16.47-5.07-24.44
		c-2.83-9.86-6.86-19.37-9.95-29.16c-6.66-21.1-13.05-42.29-19.54-63.45c-0.42-1.37-0.76-2.76-1.6-4.07
		c6.05,36.52,13.88,72.8,12.94,109.01c-2.73-23.17-4.67-47.55-8.69-71.59c-4.04-24.12-7.69-48.22-9.03-72.67
		c2.81,13.55,5.23,27.2,8.54,40.63c3.42,13.89,7.19,27.75,11.76,41.3c4.5,13.32,10.2,26.24,15.37,39.34
		c0.52-0.18,1.04-0.36,1.56-0.54c-0.75-3.44-1.51-6.88-2.26-10.31c0.38-0.12,0.76-0.23,1.14-0.35c0.86,2.68,1.89,5.31,2.56,8.04
		c4.6,18.85,13.19,35.87,23.6,52.08c0.6,0.93,0.85,2.09,1.26,3.15c-2.58-3.39-5.66-6.51-7.65-10.22
		c-4.95-9.23-9.4-18.74-14.07-28.12c-0.94-1.88-2-3.69-3.01-5.53c-0.42,0.13-0.84,0.25-1.26,0.38c0.71,3.77,1.28,7.56,2.15,11.29
		c4.46,19.04,5.42,38.34,6.43,57.86c2.1,40.34,13,78.71,32.57,114.29c5.12,9.3,11.22,18.07,16.86,27.08c-0.67,0-1.33,0-2,0
		c-20.46-28.72-34.24-60.49-42.31-94.68c-2.74-11.62-3.95-23.61-5.87-35.42c-0.18-1.09-0.46-2.16-0.79-3.73
		c-7.22,25.75-14.29,50.93-21.42,76.35c6.92,2.54,13.67,4.84,20.27,7.49c9.24,3.71,10.17,4.78,9.12,14.43
		c-1.29,11.89-3.3,23.71-5,35.56C486.65,392,486.32,392,485.98,392z M445.14,363.3c1.92-6.41,3.9-12.87,5.76-19.36
		c0.5-1.74,1.08-3.66,0.82-5.37c-0.25-1.6-1.57-3.03-2.41-4.54c-1.2,1.24-3.06,2.29-3.47,3.75c-0.71,2.51-0.63,5.27-0.67,7.93
		C445.08,351.37,445.14,357.02,445.14,363.3z M447.56,306.23c-0.49,0-0.97-0.01-1.46-0.01c0,7.13,0.02,14.25-0.01,21.38
		c-0.01,2.33,0.17,4.83,3.27,4.02c0.99-0.26,2.11-2.93,1.91-4.31C450.26,320.25,448.83,313.25,447.56,306.23z"/>
	<path class="st0" d="M126.98,392c-10.33,0-20.67,0-31,0c-5.69-34.62,6.55-65.2,20.34-94.91c0,11.78,0.46,23.85-0.11,35.88
		c-0.74,15.58-0.83,30.93,5.43,45.63C123.52,383.02,125.21,387.53,126.98,392z M98.61,353.17c-0.5,12.11-2.15,24.27,2.89,35.76
		C100.54,376.96,99.58,365.07,98.61,353.17z"/>
	<path d="M321,179.98c1.33-1.42,2.61-2.91,4.01-4.26c8.39-8.08,16.82-16.11,25.21-24.19c12.96-12.5,17.09-29.12,20.38-45.8
		c2.11-10.7,2.41-21.77,3.45-32.68c0.18-1.91,0.03-3.85,0.03-7.21c3.83,7.31,1.24,29.88-5.02,57.54c1.73-3.95,3.59-7.85,5.17-11.86
		c1.64-4.18,3.24-8.4,4.48-12.72c5.8-20.23,9.96-40.9,10.33-61.87c0.21-11.95-3.24-23.96-5.05-35.94c0.33,0,0.67,0,1,0
		c1.67,7.43,4.01,14.78,4.86,22.3c1.79,15.7,2.81,31.49,4.1,47.25c0.08,1.02-0.22,2.07-1.51,3.13c-0.61-8.49-1.23-16.99-1.81-25
		c-2.39,12.73-4.27,26.06-7.52,39.04c-2.81,11.25-7.2,22.11-10.8,33.17c-0.66,2.01-1.17,4.17-1.22,6.27
		c-0.39,19.65,0.02,39.35-1.18,58.95c-1.09,17.74-3.55,35.42-6.03,53.04c-4.58,32.51-11.14,64.62-20.54,96.12
		c-5.88,19.72-13.92,38.5-23.36,56.73c-0.67,0-1.33,0-2,0c20.9-37.87,31.19-79.16,38.68-121.28c3.73-20.96,6.65-42.07,9.9-63.12
		c0.25-1.59,0.19-3.23-0.59-5.1c-1.58,4.12-3.17,8.23-4.73,12.35c-4.19,11.12-9.31,21.71-17.29,30.69c0.55-1.35,0.84-2.88,1.67-4.02
		c10.49-14.36,15.63-31.16,21.66-47.53c0.9-2.44,1.18-5.23,1.19-7.87c0.1-18.78,0.05-37.56-0.67-56.78
		c-2.26,4.1-4.41,8.27-6.79,12.3c-5.48,9.27-11.06,18.48-16.61,27.72c-0.27-0.24-0.54-0.48-0.81-0.72
		c4.04-6.26,8.08-12.51,12.12-18.77c-0.34-0.29-0.67-0.57-1.01-0.86c-1.08,1.18-2.11,2.43-3.26,3.54
		c-8.56,8.33-17.11,16.67-25.78,24.89C324.43,178.63,322.58,179.16,321,179.98z"/>
	<path class="st0" d="M348.98,1c3.46,11.71,6.91,23.42,10.37,35.13c-0.45,0.45-0.9,0.89-1.35,1.34c-4.41-1.92-8.88-3.69-13.19-5.8
		c-3.38-1.66-6.55-3.74-9.81-5.64c0,0-0.04-0.03-0.04-0.03c-1.22-1.3-2.44-2.61-3.68-3.9c-6.76-7.03-13.53-14.06-20.3-21.09
		C323.65,1,336.32,1,348.98,1z"/>
	<path d="M323.98,392c27.99-36.54,35.85-79.55,41.08-123.88c0,3.42,0.14,6.85-0.04,10.26c-0.18,3.6-0.66,7.18-0.15,10.89
		c27.77-63.62,37.3-129.98,28.46-199.12c0.52-0.01,1.05-0.02,1.57-0.03c0.35,0.73,0.97,1.45,0.99,2.18
		c0.7,24.46,2.74,48.98,1.64,73.36c-1.29,28.63-7.39,56.74-15.93,84.17c-3.51,11.27-8.02,22.26-11.18,33.62
		c-2.62,9.42-3.53,19.3-5.9,28.81c-6.65,26.63-13.67,53.16-20.55,79.73c-0.67,0-1.33,0-2,0c3.74-13.73,7.47-27.46,10.98-40.35
		c-8.79,13.14-17.88,26.75-26.98,40.35C325.32,392,324.65,392,323.98,392z M349.19,352.3c9.22-17.47,14.1-38.85,16.97-60.91
		c-1.67,2.18-3.11,4.51-3.74,7.05C357.74,317.09,353.22,335.78,349.19,352.3z"/>
	<path d="M463.98,1c2.86,14.19,6.65,28.27,8.33,42.59c1.58,13.48,0.77,27.23,1.37,40.85c0.21,4.75,1.13,9.55,2.34,14.16
		c6.79,25.92,13.75,51.8,20.7,77.68c0.64,2.37,1.57,4.67,2.36,7c0.52-0.09,1.04-0.18,1.56-0.27c-4.31-37.19-8.62-74.37-12.92-111.56
		c0.15-0.04,0.31-0.07,0.46-0.11c1.29,7.46,2.97,14.88,3.79,22.4c3.53,32.09,6.32,64.26,10.48,96.27c1.19,9.16,5.03,18.4,9.46,26.63
		c6.67,12.39,14.94,23.93,22.52,35.84c0.53,0.82,1.01,1.67,1.52,2.51c-2.78-2.74-5.9-5.22-8.27-8.28
		c-14.94-19.24-23.49-41.58-30.89-64.47c-16.08-49.77-26-101.11-38.93-151.68c-2.5-9.8-4.6-19.7-6.89-29.55c0.33,0,0.67,0,1,0
		c6.52,25.94,13.04,51.88,19.55,77.82c2.33-26.66-2.68-52.36-9.55-77.82C462.65,1,463.32,1,463.98,1z"/>
	<path d="M286.98,392c4.72-8.04,4.26-16.42,2.03-25.09c-1.81-7.04-3.09-14.21-4.73-21.94c-2.11,0.78-3.5,1.15-4.75,1.78
		c-11.5,5.77-23.5,8.9-36.54,8.5c-11.97-0.36-11.99,0.1-11.92,11.76c0.06,8.33-0.05,16.66-0.09,24.98c-2.67,0-5.33,0-8,0
		c1.83-3.16,3.75-6.28,5.41-9.53c0.42-0.82-0.03-2.07-0.08-3.13c-0.23-0.25-0.46-0.5-0.69-0.75c0.5-4.18,1.45-8.36,1.41-12.54
		c-0.11-10.98,0.77-12.01,11.68-12.31c5.82-0.16,11.63-0.6,17.43-1.04c2.66-0.2,4.54-1.04,4.83-4.44
		c1.25-14.22,2.81-28.42,4.24-42.62c0.06-0.62,0.01-1.25,0.01-2.63c-2.47,0.64-4.45,1.4-6.48,1.63c-7.39,0.85-14.78,1.79-22.2,2.1
		c-2.15,0.09-4.38-1.78-6.57-2.75c23,5.51,42.14-5.29,61.63-14.6c1.77-0.85,3.59-1.6,5.38-2.39c-5.66,3.6-11.33,7.19-17.55,11.14
		c21.96-4.66,42.03-12.64,60.78-24.08c-20.42,14.88-43.71,22.6-68.05,27.21c3.61,13.34,7.36,26.24,10.56,39.27
		c2.74,11.14,4.71,22.46,7.3,33.63c1.49,6.47-0.81,12.09-3.05,17.82C288.32,392,287.65,392,286.98,392z M270.75,305.94
		c-0.62,0.11-1.24,0.22-1.87,0.33c-1.99,11.07-5.23,21.85-1.59,33.53c3.14,10.11,2.42,10.19,12.29,5.24c3.19-1.6,3.9-3.44,2.88-6.69
		c-2.05-6.47-3.6-13.11-5.83-19.51C275.08,314.4,272.74,310.23,270.75,305.94z"/>
	<path d="M94.98,392c-0.56-9.05-2.48-18.27-1.37-27.11c1.79-14.22,5.58-28.19,9.36-42.33c-1.5,2.73-3,5.45-4.49,8.19
		c-1.59,2.92-3.17,5.84-4.73,8.77c-4.06,7.62-8.34,15.14-12.12,22.9c-4.65,9.54-7.26,19.37-1.66,29.57c-0.67,0-1.33,0-2,0
		c-5.94-11.85-1.9-22.75,3.64-33.22c11.75-22.2,23.82-44.24,35.72-66.36c0.77-1.43,1.19-3.05,1.69-4.61
		c5.13-16.12,5.64-32.97,7.84-49.55c0.32-2.38,0.85-4.74,1.28-7.11c0.42,0.07,0.85,0.14,1.27,0.22c-0.93,6.62-2.83,13.27-2.59,19.85
		c0.72,20.01-8.74,38.38-8.15,58.49c0.83,28.35,3.96,56.02,15.31,82.3c-0.67,0-1.33,0-2,0c-7.35-17.22-10.97-35.4-13.62-55.02
		c-1.83,11.39-1.26,21.5,1.71,31.27c2.45,8.07,5.9,15.84,8.9,23.75c-0.67,0-1.33,0-2,0c-1.78-4.47-3.46-8.98-5.34-13.41
		c-6.26-14.69-6.17-30.05-5.43-45.63c0.57-12.03,0.11-24.1,0.11-35.88C102.53,326.8,90.3,357.38,95.98,392
		C95.65,392,95.32,392,94.98,392z"/>
	<path d="M205.98,392c-8.64-11.1-10.8-24.52-12.94-37.77c-2.67-16.54-4.64-33.2-6.73-49.83c-0.72-5.74-0.9-11.55-1.59-17.32
		c-5.05,26.7-9.53,53.48-7.33,80.74c0.66,8.16,3.66,16.13,5.59,24.18c-0.67,0-1.33,0-2,0c-10.76-20.74-14.41-43.21-15-66.16
		c-0.43-17.1,0.51-34.24,0.87-51.37c0.02-1.11,0.27-2.22,0.34-2.76c0,17.18-0.4,34.9,0.11,52.59c0.52,17.97,3.34,35.66,9.13,52.78
		c-4.77-35.76,3.2-70.31,9.49-105.11c1.87,36.87,3.38,73.68,22.03,106.98c-2.07-2.66-4.38-5.18-6.14-8.04
		c-1.46-2.36-2.33-5.11-3.36-7.72c-0.96-2.43-1.79-4.92-2.67-7.38c1.76,12.9,3.66,25.71,12.18,36.17
		C207.32,392,206.65,392,205.98,392z"/>
	<path class="st0" d="M461.98,1c6.87,25.46,11.89,51.15,9.55,77.82C465.02,52.88,458.5,26.94,451.98,1C455.32,1,458.65,1,461.98,1z"
		/>
	<path d="M558.98,327c-7.44,13.3-14.97,26.56-22.22,39.97c-0.96,1.78-1.1,4.5-0.57,6.5c1.66,6.25,3.83,12.37,5.79,18.53
		c-0.67,0-1.33,0-2,0c-3.86-13.77-8.48-27.37-11.44-41.33c-8.86-41.81-17.07-83.75-25.54-125.65c3.36,3.8,6.54,7.78,10.12,11.36
		c7.23,7.23,14.68,14.25,22.02,21.37c0.68,0.66,1.22,1.48,1.83,2.23c-4.27-3.04-8.96-5.66-12.73-9.23
		c-6.12-5.8-11.63-12.22-17.36-18.34c-1.2,6.01,23.41,125.21,28.46,135.49c4.42-13.42,8.94-25.55,12.38-37.97
		c3.81-13.77,6.63-27.82,9.91-41.74c0.34-1.42,0.9-2.79,1.37-4.19c0,2.67,0,5.33,0,8c-3.03,12.25-5.93,24.54-9.13,36.75
		c-1.88,7.18-4.24,14.23-6.39,21.34c2.79-3.11,4.98-6.44,6.91-9.92c2.96-5.34,5.75-10.77,8.6-16.17
		C558.98,325,558.98,326,558.98,327z"/>
	<path class="st0" d="M135.98,1c4.15,8.29,8.34,16.56,12.44,24.88c0.93,1.89,2.19,3.9,2.26,5.89c0.63,17.31,6.13,32.91,15.85,47.13
		c0.34,0.5,0.6,1.06,0.42,1.8c-20.9-22.41-30.66-49.34-31.97-79.7C135.32,1,135.65,1,135.98,1z"/>
	<path d="M85.01,262.97c0.66-0.92,1.17-2,2-2.72c18.27-15.74,28.83-35.87,33.89-59.17c0.73-3.33,1.73-6.61,2.61-9.91
		c0.53,0.13,1.06,0.27,1.59,0.4c-2.02,7.66-3.89,15.37-6.08,22.98c-8.38,29.1-16.78,58.19-25.37,87.22
		c-1.67,5.65-4.27,11.02-6.44,16.53c-6.19,15.76-12.88,31.36-18.38,47.36c-3.02,8.81,0.3,17.75,3.15,26.34c-0.67,0-1.33,0-2,0
		c-0.67-2.4-1.29-4.8-2.01-7.18c-2.86-9.46-1.94-18.74,1.26-27.91c1.53-4.4,2.95-8.85,4.78-13.13c2.43-5.7,3.67-11.19,3.12-17.71
		c-0.94-11.18,3.64-21.59,8.26-31.53c5.17-11.13,11.82-21.58,16.9-32.75c3.78-8.31,6.08-17.3,9.18-26.39
		c-7.68,8.63-14.78,16.69-22.01,24.62C88.3,261.31,86.51,262.01,85.01,262.97z M100.91,268.75c-0.98,0.79-1.47,1.01-1.68,1.38
		c-8.58,14.87-15.73,30.36-19.78,47.1c-0.93,3.83-0.71,7.93-1.02,11.9c0.44,0.06,0.89,0.11,1.33,0.17
		c4.92-10.72,11.91-20.37,13.66-32.69C94.72,287.39,98.2,278.48,100.91,268.75z"/>
	<path class="st0" d="M320.99,24.01c0.84,1.15,1.68,2.29,2.81,3.85C304.68,24.45,289.83,14.49,276.98,1c7.67,0,15.33,0,23,0
		c2.98,4.13,5.63,8.57,9.05,12.3c3.59,3.92,7.93,7.15,11.94,10.68C320.97,23.99,320.99,24.01,320.99,24.01z"/>
	<path d="M237.66,21.64c2.65-1.9,5.3-3.81,8.76-6.3c-3.79-3.58-7.43-7.31-11.44-10.61c-0.95-0.78-3.52-0.7-4.64,0.05
		c-3.07,2.06-5.76,4.69-9.83,8.13c0.58-4.73,1.02-8.32,1.46-11.92c4,0,8,0,12,0c5.86,5.62,10.45,12.81,19.13,15.03
		c-1.9-2.81-3.8-5.63-5.7-8.44c5.31,5.31,10.63,10.62,15.94,15.93c-0.25,0.31-0.49,0.61-0.74,0.92c-2.11,0.46-4.55,0.38-6.26,1.46
		c-11.04,6.98-14.99,18.11-17.13,30.21c-0.26,1.47-0.45,2.95-0.78,4.4c-0.09,0.39-0.56,0.69-1.68,1.99
		c0.6-8.9,1.13-16.72,1.66-24.54c-0.15-0.04-0.3-0.09-0.45-0.13c-1.25,3.68-2.51,7.35-3.76,11.03c0.65-6.39,0.68-13.23,5.55-17.87
		c4.62-4.4,10.16-7.83,15.08-11.53c-6.36-4.55-11.32-0.23-16.49,2.94C238.12,22.15,237.89,21.89,237.66,21.64z"/>
	<path d="M56.98,1c-2.59,23.62-6.13,47.18-7.49,70.87c-1.13,19.69,3.24,39.09,8.78,58.01c3.28,11.19,9.89,20.66,17.05,29.72
		c1.13,1.43,2.12,2.96,3.17,4.45c-1.4-1.06-3.05-1.9-4.16-3.21c-10.46-12.33-17.57-26.33-21.06-42.18c-0.73-3.31-2.19-6.47-3.32-9.7
		c0.12-2.09,0.62-4.25,0.31-6.28c-2.58-16.7-3.35-33.44-1.6-50.28c0.56-5.39,0.79-10.82,1.18-16.23c-0.42-0.05-0.83-0.09-1.25-0.14
		c-1.74,8.29-3.89,16.53-5.14,24.89c-2.39,15.89-2.32,31.58,6.16,46.08c0.3,0.51,0.2,1.26,0.28,1.9c-2.36-4.61-5.55-8.98-6.93-13.87
		c-4.24-15.1-2.57-30.34,0.86-45.34C47.56,33.4,51.91,17.23,55.98,1C56.32,1,56.65,1,56.98,1z"/>
	<path class="st0" d="M274.98,1c3.5,3.41,6.96,6.85,10.52,10.21c1.31,1.24,2.83,2.26,5.46,4.32c-10.86,0-20.44,0-30.82,0
		c1.32-0.98,2.12-1.57,3.13-2.32c-7.69-0.64-8.51-7.3-11.29-12.2C259.65,1,267.32,1,274.98,1z"/>
	<path class="st0" d="M325.98,392c9.09-13.6,18.19-27.2,26.98-40.35c-3.51,12.88-7.24,26.62-10.98,40.35
		C336.65,392,331.32,392,325.98,392z"/>
	<path class="st0" d="M335,26.02c0.37,0.86,0.73,1.73,1.72,4.08c-4.03-1.32-7.13-2.22-10.13-3.36c-1.94-0.73-3.74-1.81-5.6-2.73
		c0,0-0.03-0.02-0.03-0.02c-1.02-1.24-2.03-2.49-3.05-3.72C312.61,13.84,307.3,7.42,301.98,1c2.33,0,4.67,0,7,0
		c6.36,6.84,12.61,13.77,19.14,20.44c1.87,1.91,4.54,3.05,6.84,4.54L335,26.02z"/>
	<path class="st0" d="M118.37,336.98c2.65,19.62,6.27,37.8,13.62,55.02c-1,0-2,0-3,0"/>
	<path class="st0" d="M143.98,1c2.77,12.02,7.41,23.25,14.22,33.6c-10.05-9.35-15.54-21.53-21.22-33.6C139.32,1,141.65,1,143.98,1z"
		/>
	<path class="st0" d="M247.41,7.6c1.9,2.81,3.8,5.63,5.7,8.44c-8.68-2.22-13.27-9.42-19.13-15.03c3,0,6,0,9,0
		C244.46,3.2,245.94,5.4,247.41,7.6z"/>
	<path d="M220.52,68.04c-1.49-1.43-3.34-2.64-4.42-4.33c-11.22-17.65-17.58-36.97-19.43-57.79c-0.15-1.65-0.46-3.28-0.7-4.92
		c0.67,0,1.33,0,2,0c1.07,22.89,8.04,43.89,20.27,63.2C219.05,65.45,219.77,66.76,220.52,68.04z"/>
	<path class="st0" d="M247.41,7.6c-1.48-2.2-2.95-4.4-4.43-6.6c2.33,0,4.67,0,7,0c3.84,6.1,7.71,12.18,11.5,18.31
		c0.8,1.3,1.26,2.8,1.88,4.21C258.04,18.21,252.73,12.9,247.41,7.6z"/>
	<path d="M558.98,271c-7.33-3.66-14.65-7.33-21.98-10.99c0.79,0.05,1.57,0.11,2.46,0.16c-1.14-1.7-2.3-3.43-3.46-5.15
		c7.66,4.99,15.32,9.98,22.98,14.98C558.98,270.33,558.98,270.67,558.98,271z"/>
	<path d="M558.98,120c-1.7-8.09-3.39-16.18-5.11-24.27c-0.94-4.44-1.95-8.86-2.93-13.29c0.49-0.1,0.99-0.21,1.48-0.31
		c2.19,9.96,4.37,19.91,6.56,29.87C558.98,114.67,558.98,117.33,558.98,120z"/>
	<path d="M215.98,392c2.46-1.84,4.92-3.69,7.01-5.25c-5.94-3.07-10.46-5.4-14.97-7.73c0.62,0.19,1.36,0.22,1.86,0.58
		c6.21,4.51,12.09,3.73,17.75-1.01c0.23,0.25,0.46,0.5,0.68,0.75c-3.44,4.22-6.88,8.44-10.33,12.66
		C217.32,392,216.65,392,215.98,392z"/>
	<path d="M334.96,25.98c-2.3-1.49-4.97-2.63-6.84-4.54C321.59,14.77,315.34,7.84,308.98,1c0.67,0,1.33,0,2,0
		c6.77,7.03,13.54,14.05,20.3,21.09C332.52,23.37,333.74,24.68,334.96,25.98z"/>
	<path d="M548.98,1c3.33,8.67,6.67,17.33,10,26c0,1.33,0,2.67,0,4c-1.3-3.14-2.63-6.26-3.89-9.41c-2.73-6.85-5.41-13.73-8.11-20.59
		C547.65,1,548.32,1,548.98,1z"/>
	<path d="M301.98,1c5.31,6.42,10.63,12.84,15.94,19.26c1.02,1.24,2.03,2.48,3.05,3.72c-4.01-3.53-8.35-6.77-11.94-10.68
		c-3.42-3.73-6.06-8.17-9.05-12.3C300.65,1,301.32,1,301.98,1z"/>
	<path class="st0" d="M217.98,392c3.44-4.22,6.88-8.44,10.33-12.66c0.05,1.05,0.5,2.31,0.08,3.13c-1.66,3.25-3.58,6.36-5.41,9.53
		C221.32,392,219.65,392,217.98,392z"/>
	<path d="M160.17,132.19c0,1.83,0.39,3.77-0.1,5.45c-0.6,2.04-1.64,5.12-3.05,5.47c-1.9,0.48-5.14-0.57-6.41-2.11
		c-2.7-3.27-4.99-7.09-6.58-11.04c-4.48-11.12-6.08-22.71-4.32-34.66c0.49-3.34,1.17-6.83,5.19-7.61c4.11-0.79,7.11,1.7,8.12,5.13
		c2.42,8.21,4.34,16.59,6.01,24.99c0.93,4.69,0.96,9.56,1.4,14.34C160.34,132.18,160.25,132.19,160.17,132.19z M153.43,132.68
		c2.2-4.29,2.15-5.93-0.55-8.39c-4.08-3.72-5.62-8.43-6.07-13.77c-0.21-2.56-1.04-5.08-1.58-7.61c-0.45,0.12-0.9,0.25-1.35,0.37
		C145.66,113.46,144.7,124.48,153.43,132.68z M155.43,102.11c-2.35-3.08-4.15-5.44-5.95-7.8c-1.1,1.95-2.97,3.85-3.12,5.88
		c-0.21,2.86,0.56,6.37,4.44,6.37C152.07,106.56,153.34,104.21,155.43,102.11z"/>
	<path d="M211.97,285.98c-2.16-1.71-4.31-3.42-7.25-5.74c-1.06,15.61-2.48,30.34-0.7,45.29c1.79,15.02,4.93,29.44,14.31,41.92
		c-0.52,0.25-1.04,0.51-1.55,0.76c-2.03-3.34-4.44-6.52-6.02-10.06c-8.54-19.17-14.18-39.03-13.96-60.27
		c0.1-9.31-0.19-18.62-0.3-27.93c1.16,1.02,2.33,2.03,3.5,3.05c-0.61,6.22-1.91,12.47-1.67,18.67c0.48,12.48,1.8,24.93,2.77,37.38
		c0.42-0.04,0.85-0.09,1.27-0.13c0-13.26-0.24-26.53,0.11-39.79c0.15-5.64,1.17-11.19-2.51-16.15
		C203.97,277.32,207.97,281.65,211.97,285.98z"/>
	<path d="M243.37,224.2c-3.08,1.28-6,2.5-8.92,3.72c-0.2-0.37-0.39-0.73-0.59-1.1c2.03-1.03,4.06-2.05,6.96-3.52
		c-8.78-5.2-17.35-8.14-26.88-7.21c-3.97,0.39-9.62,8.51-8.45,12.2c0.49,1.52,2.78,3.01,4.52,3.46c2.28,0.59,4.83,0.15,7.85,0.15
		c-8.59,5.28-13.06,4.28-17.48-3.54c-1.14-2.02-2.4-4.11-2.86-6.32c-0.26-1.25,0.59-3.65,1.61-4.13c15.18-7.13,29.44-3.97,43.1,4.38
		C242.58,222.52,242.73,223.11,243.37,224.2z"/>
	<path d="M231.99,304.01c-5.09-3.54-10.18-7.08-15.88-11.05c0.52,2.78,0.66,5.38,1.52,7.71c3.41,9.32,7.06,18.55,10.57,27.84
		c1.7,4.5,3.28,9.04,5.49,15.15c-2.5-3.69-4.93-6.1-5.95-9c-4.52-12.82-8.67-25.77-12.88-38.69c-1.07-3.28-1.91-6.63-2.85-9.95
		C218.67,292.02,225.33,298.01,231.99,304.01z"/>
	<path d="M321.02,174.48c-1.21,2.16-2.42,4.33-3.71,6.63c1.14-0.34,2.4-0.71,3.65-1.09c-11.16,9.23-23.2,16.38-38.33,16.19
		c-0.38,0-0.76-0.4-1.92-1.06c2.55-0.26,4.29-0.47,6.04-0.6c11.96-0.9,21.27-6.81,29.23-15.34
		C317.55,177.53,319.33,176.05,321.02,174.48z"/>
	<path d="M171.95,185.48c-3.7-2.92-7.34-5.92-11.12-8.73c-4.58-3.42-7.44-7.58-7.12-13.77c6.72,7.6,13.06,14.76,19.39,21.93
		C172.72,185.09,172.33,185.28,171.95,185.48z"/>
	<path d="M344.41,169.37c-8.46,11.57-18.54,20.88-33.18,23.88c14.06-3.91,22.92-14.64,32.38-24.6
		C343.87,168.89,344.14,169.13,344.41,169.37z"/>
	<path d="M156.12,153.06c7.14-10.88,15.72-20.72,17.07-34.07C175.67,125.61,164.09,149.14,156.12,153.06z"/>
	<path d="M238.35,22.4c-5.69,5.89-7.13,13.41-7.67,21.28c-0.51-0.09-1.02-0.17-1.54-0.26c0.39-3.7,0.78-7.39,1.22-11.5
		c-1.32,1.17-2.45,2.16-3.57,3.16c-0.38-0.35-0.76-0.71-1.14-1.06c4-4.13,8-8.26,12-12.39C237.89,21.89,238.12,22.15,238.35,22.4z"
		/>
	<path d="M217.01,72.02c3.1,1.81,6.2,3.62,9.67,5.65c-0.68-1.61-1.21-2.86-1.74-4.12c4.45,2.7,8.9,5.41,12.93,7.85
		C232.31,83.04,221.6,78.49,217.01,72.02z"/>
	<path d="M325.39,266.95c-8.8,6.68-17.61,13.37-26.41,20.05C307.78,280.32,316.59,273.64,325.39,266.95z"/>
	<path d="M233.92,145.48c0.11,0.57-1.3,1.42-2.01,2.14"/>
	<path d="M440.77,207.43c11.68,31.68-22.88,159.54-48.56,180.23c17.4-26.84,30.06-55.74,37.44-86.83
		C436.94,270.15,442.23,239.2,440.77,207.43z"/>
	<path d="M377.67,247.68c6.73-22.64,10.56-45.73,10.45-70.41C392.52,186,384.61,237.64,377.67,247.68z"/>
	<path d="M77.96,262.02c-3.2,3.62-6.45,7.2-9.56,10.89c-0.71,0.83-0.96,2.05-1.42,3.09c-6.89,3.44-13.58,7.44-20.75,10.14
		c-5.49,2.07-11.6,2.49-17.63,2.81c19.03-2.73,34.51-11.66,47.32-25.65C76.44,262.73,77.28,262.44,77.96,262.02z"/>
	<path d="M66.99,276c5.99-4.32,11.98-8.65,17.97-12.97C78.97,267.35,72.98,271.67,66.99,276z"/>
	<path d="M554.93,252.57c-1.67-8.09-3.2-16.22-5.04-24.27c-6.46-28.29-16.12-55.5-27.24-82.28c-4.12-9.91-6.53-20.54-9.64-30.86
		c-0.36-1.19-0.2-2.54,0.45-4.04c0.33,0.62,0.88,1.21,0.97,1.86c2.66,18.89,11.56,35.66,18.13,53.22
		c10.09,26.99,18.44,54.47,23.23,82.94c0.18,1.1,0.17,2.24,0.24,3.35C555.67,252.51,555.3,252.54,554.93,252.57z"/>
	<path class="st0" d="M284.46,54.76c7.15,8.64,5.6,26.47-2.55,30.83c-2.67,1.43-5.95,2.07-9.01,2.31c-3.12,0.25-6.4-0.81-7.57,3.59
		c-0.15,0.56-2.21,0.61-3.39,0.9c-0.3-1.31-1.09-2.75-0.77-3.88c0.37-1.31,1.72-2.34,2.93-3.85c-4.59-7.75-6.89-16.26-5.96-25.5
		c0.45-4.52,1.95-8.5,6.16-10.74c1.09-0.58,2.7-0.17,4.07-0.21c-0.37,1.21-0.38,2.83-1.18,3.56c-7.28,6.6-0.81,22.31,5.51,25.16
		c3.83,1.72,7.87,0.26,10.14-3.76C286.15,67.32,285.7,61.09,284.46,54.76z"/>
	<path class="st0" d="M279.06,52.93c-5.92-0.17-9.74-3.81-9.6-9.16c0.15-5.85,5.04-10,11.52-9.78c5.91,0.2,9.28,3.72,9.1,9.49
		C289.88,49.59,285.77,53.12,279.06,52.93z"/>
	<path class="st0" d="M274.8,57.51c-1.82,1.6-3.03,2.67-4.25,3.73c-0.79-1.04-2.4-2.3-2.19-3.08c0.38-1.43,1.83-2.58,2.83-3.85
		C272.16,55.17,273.13,56.03,274.8,57.51z"/>
	<path class="st0" d="M129,124.02c2.07,2.5,3.7,5.68,6.31,7.36c7.85,5.07,7,12.71,7.44,21.42c-2.54-1.12-4.64-1.46-5.83-2.68
		c-3.33-3.43-6.94-6.85-9.27-10.95c-6.65-11.67-12.05-23.92-14.14-35.51c4.56,6,10.01,13.15,15.45,20.31
		C128.96,123.97,129,124.02,129,124.02z"/>
	<path class="st0" d="M126.09,54.1c2.22-14.02,4.39-27.71,6.56-41.4c0.25,0.04,0.51,0.08,0.76,0.11
		c2.81,11.09,5.62,22.17,8.38,33.05C137.12,48.31,132.23,50.88,126.09,54.1z"/>
	<path class="st0" d="M128.03,171.03c3.25,1.76,6.37,3.87,9.8,5.19c3.9,1.5,7.02,7.96,4.56,11.16c-0.69,0.89-3.44,1.39-4.31,0.76
		c-4.92-3.54-10.45-6.78-14.06-11.45c-5.11-6.62-8.74-14.4-12.06-22.27c3.47,4.27,6.8,8.67,10.47,12.75
		c1.46,1.62,3.68,2.57,5.55,3.82C127.97,170.98,128.03,171.03,128.03,171.03z"/>
	<path class="st0" d="M219.72,85.84c2.49,2.13,4.77,4.08,7.19,6.14C220.96,93.19,219.53,92,219.72,85.84z"/>
	<path d="M265.38,381.27c-5.63-5.2-11.26-10.39-17.62-16.27c2.91-0.15,4.72-0.24,5.83-0.3c0.77,8.22,9.08,10.06,12.78,15.47
		C266.04,380.54,265.71,380.9,265.38,381.27z"/>
	<path d="M474.94,364.81c3.08-2.32,5.03-3.78,6.97-5.24c0.21,0.24,0.42,0.49,0.63,0.73c-8.44,7.8-16.89,15.61-25.63,23.69
		c7.84-10.1,15.39-19.83,22.76-29.32C478.42,357.35,476.95,360.5,474.94,364.81z"/>
	<path d="M98.61,353.17c0.96,11.9,1.93,23.79,2.89,35.76C96.47,377.44,98.11,365.28,98.61,353.17z"/>
	<path class="st0" d="M349.19,352.3c4.04-16.51,8.55-35.2,13.23-53.86c0.64-2.54,2.07-4.88,3.74-7.05
		C363.29,313.45,358.41,334.83,349.19,352.3z"/>
	<path class="st0" d="M245.91,139.94c0.81,0.32,1.79,1.11,2.42,0.9c5.01-1.7,5.71,0.87,5.33,4.96c-0.36,3.85-0.49,7.72-1.39,11.52
		c0.67-7.58-1.35-11.48-7.84-13.3c0.52-1.36,1.04-2.7,1.55-4.03C245.98,139.98,245.91,139.94,245.91,139.94z"/>
	<path class="st0" d="M153.43,132.68c-8.74-8.2-7.78-19.23-9.55-29.4c0.45-0.12,0.9-0.25,1.35-0.37c0.55,2.54,1.37,5.05,1.58,7.61
		c0.45,5.34,1.98,10.05,6.07,13.77C155.58,126.76,155.64,128.39,153.43,132.68z"/>
	<path class="st0" d="M155.43,102.11c-2.09,2.1-3.36,4.45-4.63,4.45c-3.88,0-4.65-3.51-4.44-6.37c0.15-2.02,2.02-3.92,3.12-5.88
		C151.28,96.67,153.08,99.03,155.43,102.11z"/>
</g>
<rect class="st1" width="559" height="391"/>
<rect class="st1" width="559" height="391"/>
<rect x="0" y="0" class="st2" width="559" height="391"/>
<polygon class="st0" points="225.66,125.7 225.66,177.27 298.98,177.27 299.98,112.77 223.31,110.01 "/>
</svg>
