<?xml version="1.0" encoding="utf-8"?>
<!-- Generator: Adobe Illustrator 23.0.0, SVG Export Plug-In . SVG Version: 6.00 Build 0)  -->
<svg version="1.1" id="图层_1" xmlns="http://www.w3.org/2000/svg" xmlns:xlink="http://www.w3.org/1999/xlink" x="0px" y="0px"
	 viewBox="0 0 581.62 241.38" style="enable-background:new 0 0 581.62 241.38;" xml:space="preserve">
<style type="text/css">
	.st0{clip-path:url(#SVGID_2_);}
</style>
<g>
	<defs>
		<rect id="SVGID_1_" width="581.62" height="241.38"/>
	</defs>
	<clipPath id="SVGID_2_">
		<use xlink:href="#SVGID_1_"  style="overflow:visible;"/>
	</clipPath>
	<path class="st0" d="M419.81,497.44c-18.29,0-36.36,0-54.92,0c0.39-6.02,0.41-12.01,1.29-17.88c0.59-3.93-1.01-5.17-4.22-6.42
		c-18.59-7.23-37.82-11.5-57.59-13.99c-25.2-3.18-50.48-3.6-75.82-4.03c-9.71-0.17-19.48-2.18-29.03-4.22
		c-12.29-2.62-18.25-11.83-20.42-23.31c-1.29-6.8-0.92-13.92-1.14-20.9c-0.12-3.77,0.87-6.77,6.29-5.23
		c-0.26-5.07,0.58-9.69-4.66-12.47c-1-0.53-1.72-2.52-1.72-3.84c-0.02-8.66-0.09-17.34,0.51-25.97c0.17-2.4,2.49-4.68,3.92-6.95
		c1.71-2.72,4.73-5.22,5.09-8.07c1.83-14.69,3-29.46,4.39-44.2c0.19-1.99,0.56-4,0.43-5.97c-0.43-6.66-1.32-13.29-1.51-19.95
		c-0.11-4.11-1.4-8.66,2.37-12.16c0.46-0.43,0.41-1.58,0.36-2.38c-0.57-8.36-1.84-16.72-1.65-25.06
		c0.24-11.04-1.93-21.41-5.81-31.61c-2.37-6.23-5.16-12.41-6.49-18.88c-1.36-6.63-1.18-13.58-1.67-20.38
		c-0.29-4.08,0.68-7.42,4.41-9.91c1.1-0.73,1.97-3.65,1.39-4.77c-11.52-22.44-7.24-40.15,13.52-53.95c2.35-1.56,5.42-2.63,8.23-2.8
		c14.13-0.85,28.62,0.37,42.37-2.29c27.49-5.31,55.85-0.05,82.95-7.76c10.7-3.05,21.14-7.01,31.69-10.59
		c3.14-1.07,4.98-3.16,4.89-6.67c-0.11-4.15-0.38-8.32-0.06-12.45c0.11-1.45,1.75-3.97,2.72-3.98c16.78-0.25,33.56-0.18,50.37-0.18
		c2.56,35.17,5.08,69.82,7.54,103.58c11.09,0,21.87,0.07,32.65-0.03c5.16-0.04,10.33-0.34,15.48-0.62c3.81-0.21,5.59,1.48,5.45,5.29
		c-0.22,5.99-0.37,11.99-0.64,17.98c-0.15,3.26,0.68,4.68,4.52,4.55c6.16-0.21,12.2,3.19,18.61-0.64c2.44-1.46,6.52-0.12,9.85-0.14
		c4.67-0.02,6.13-2.05,4.38-6.73c-1.48-3.97-3.49-7.75-5.28-11.64c-3.36,1.56-5.21,1.13-8.85-1.45c-4.47-3.16-3.84-8.6-8.81-11.53
		c-5.15-3.03-1.7-14.42,4.28-17.82c2.27-1.29,4.33-3.17,6.76-3.95c8.27-2.68,18.65,4.02,19.66,12.73c0.2,1.69-1.12,3.65-1.97,5.36
		c-2.22,4.44-1.64,5.69,3,6.95c1.5,0.41,2.98,1.33,4.18,2.36c10.13,8.69,13.7,20.62,15.76,33.11c1.38,8.37,2.19,16.83,3.11,25.27
		c0.27,2.49,0.62,3.67,3.65,2.65c3.07-1.04,6.43-1.26,10.66-2.02c0,41.3,0,81.84,0,123.48c-4-0.55-8.43-1.16-13.5-1.85
		c-0.55,4.68-1.1,9.74-1.76,14.79c-2.05,15.59-4.24,31.19-14.97,43.74c-3.08,3.6-6.9,6.57-10.38,9.83
		c-0.53-0.29-1.05-0.59-1.58-0.88c0.46,1.32,0.85,2.66,1.39,3.95c2.44,5.87,1.52,9.23-3.87,13.96c-4.68,4.11-9.87,4.86-14.71,2.12
		c-6.4-3.62-10.05-11.65-9.77-19.04c0.16-4.27,2.46-4.87,4.24-5c1.99-3.57,3.38-6.37,5.07-8.95c0.83-1.27,2.24-2.15,3.39-3.2
		c1.14,1.31,2.36,2.56,3.4,3.94c0.57,0.76,0.86,1.73,1.91,3.91c1.59-2.29,3.4-3.74,3.64-5.42c0.81-5.75,1.2-11.57,1.42-17.37
		c0.03-0.91-1.58-2.63-2.52-2.7c-7.93-0.56-15.88-1.09-23.82-1.1c-6.46-0.01-8.28,1.89-8.54,8.4c-0.27,6.8-0.06,13.61-0.06,21.16
		c-7.96-0.51-15.35-1.14-22.74-1.43c-9.14-0.37-18.29-0.41-27.44-0.71c-4.46-0.15-5.84,1.84-6.12,6.23
		c-1.91,30.25-4.09,60.48-6.21,90.72C420.54,492.35,420.16,494.63,419.81,497.44z M207.83,197.8c-0.97,14.66-2,29.27-2.87,43.9
		c-0.29,4.98,0.49,10.12-0.43,14.95c-0.73,3.81-2.94,7.54-5.22,10.79c-1.8,2.57-2.43,10.16,0.34,11.26c4.09,1.62,4.19,4.83,4.32,8.1
		c0.71,18.81,1.32,37.62,1.94,56.43c0.06,1.92,0.01,3.85,0.01,5.97c7.52-0.4,14.24-0.75,21.08-1.11c0.25,2.22,0.4,3.63,0.52,4.66
		c49.91,0,99.49,0,149.15,0c1.21-3.65,2.16-6.55,3.23-9.79c3.94,0,7.93,0.12,11.91-0.06c1.39-0.06,3.88-0.78,3.93-1.34
		c0.27-3.55,2.64-2.21,4.39-2.2c1.58,0.01,3.16,0.2,5.06,0.33c0-2.15,0-3.72,0-5.64c2.37-0.21,4.6-0.06,6.6-0.66
		c2.67-0.81,6.02-1.51,7.59-3.45c9.6-11.84,18.49-24.12,15.44-40.82c-0.27-1.46-0.37-3.05-0.07-4.47c0.3-1.4,1.64-2.63,1.78-4.01
		c0.51-4.87,1.01-9.78,0.88-14.65c-0.06-2.1-2.16-4.11-2.43-6.27c-0.38-3.1,0.15-6.31,0.13-9.47c-0.03-6.72-0.85-12.79-5.9-18.36
		c-4.18-4.61-6.25-11.11-9.54-16.59c-0.79-1.32-2.64-2.58-4.15-2.79c-3.05-0.43-6.2-0.13-9.53-0.13c0.32-9.51-6.81-5.16-11.28-6.13
		c0.75-4.41-1.45-5.43-5.18-4.86c-3.08,0.47-6.2,0.76-9.19,1.12c-2.4-6.62-6.97-10.09-13.58-10.19
		c-16.32-0.24-32.65-0.38-48.97-0.49c-27.82-0.18-55.63-0.28-83.45-0.46c-2.8-0.02-5.45-0.43-5.08,3.92
		c0.06,0.73-2.39,2.34-3.75,2.41C220.25,197.97,214.93,197.8,207.83,197.8z M477.29,261.32c2.39-5.78,4.47-10.97,6.67-16.1
		c3.93-9.15,7.94-18.26,11.92-27.39c0.53-1.22,0.83-2.68,1.7-3.58c1.37-1.41,3.07-2.54,4.75-3.59c7.29-4.52,14.69-8.89,21.88-13.57
		c0.81-0.52,0.91-2.74,0.66-4.03c-0.14-0.7-1.74-1.56-2.69-1.57c-5.44-0.01-10.89,0.29-16.34,0.33c-2.91,0.02-4.14,0.93-3.85,4.15
		c0.59,6.49,0.39,6.86-6.41,6.42c-11.52-0.74-22.03,1.85-32.04,7.55c-3.11,1.77-3.97,3.68-3.97,7.02c0,14.65-0.11,29.31-0.54,43.96
		c-0.1,3.32-1.71,6.58-2.42,9.92c-0.29,1.34-0.57,3.63,0.1,4.08c4.4,2.98,3.12,7.25,3.11,11.31c-0.03,14.64-0.1,29.28,0.07,43.92
		c0.06,5.02,3.3,8.07,7.98,8.89c9.32,1.63,18.7,3.08,28.11,4.06c3.87,0.4,5.89,1.47,5.97,5.53c0.02,1.35,0.57,3.76,1.2,3.88
		c6.91,1.25,13.88,2.69,21.11,0.84c-0.95-5.32-3.01-9-7.68-10.93c-4.15-1.72-8.06-4.21-12.34-5.35c-4.71-1.25-6.66-4.25-8.17-8.37
		c-2.79-7.64-5.56-15.32-8.95-22.7c-3.19-6.93-7.18-13.5-10.78-20.16c-2.1,0.42-4.95,1.35-7.81,1.4c-1.2,0.02-3.17-1.65-3.44-2.85
		c-0.25-1.12,0.98-3.12,2.12-3.87c1.74-1.15,4.12-1.3,5.95-2.35c1.85-1.06,3.36-2.7,5.02-4.09c-1.92-1.59-3.63-4.06-5.81-4.61
		c-5.99-1.52-8.38-4.91-6.71-11.32C469.76,259.28,473.86,260.39,477.29,261.32z M556.71,312.99c0-26.01,0.03-51.6-0.1-77.19
		c-0.01-0.99-1.51-2.79-2.38-2.84c-5.24-0.27-10.51-0.13-15.3-0.13c0,27.25,0,53.6,0,80.15
		C544.94,312.99,550.05,312.99,556.71,312.99z M527.1,327.34c0-2.52,0-4.67,0-6.82c-0.03-13.32-0.12-26.65-0.02-39.97
		c0.01-1.53,0.81-4.08,1.82-4.4c4.51-1.48,2.29-5.55,1.35-6.25c-3.9-2.88-2.93-6.78-3.06-10.38c-0.36-9.99-0.37-19.98-0.74-29.97
		c-0.13-3.47-0.93-6.91-1.42-10.36c-3.22,1.73-5.64,3.15-8.18,4.35c-2.32,1.1-3.24,2.35-2.12,5.05c7.69,18.53,6.75,37.84,4.52,57.12
		c-1.16,10.04-3.42,19.96-5.37,29.91c-0.69,3.54,0.13,5.58,3.77,6.83C520.71,323.49,523.48,325.41,527.1,327.34z M502.64,310.11
		c0.52-0.05,1.03-0.1,1.55-0.15c1.34-10.03,4.99-19.93,1.8-30.5c-5.5,1.88-8.39,0.3-9.41-4.47c-1.2-5.59,1.14-8.32,7.1-8.04
		c2.44,0.12,4.45,0.14,4.07-3.18c-0.69-6.1-1.19-12.24-2.13-18.3c-0.41-2.62-1.73-5.09-2.63-7.63c-0.51-0.14-1.02-0.29-1.53-0.43
		c-0.25,0.62-0.42,1.29-0.77,1.86c-4.63,7.64-9.3,15.25-13.88,22.91c-0.42,0.7-0.34,1.73-0.41,2.61c-0.21,2.72-0.33,5.44-0.6,8.15
		c-0.12,1.2-1.1,2.64-0.7,3.52c2.11,4.64,4.44,9.19,6.88,13.67c1.81,3.33,4.02,6.44,5.82,9.78
		C499.56,303.24,501.04,306.71,502.64,310.11z M434.21,227.06c4.23-6.68,0.18-15.9-7.62-17.6
		C425.53,216.93,428.97,222.29,434.21,227.06z M434.6,318.03c-5.36,4.83-8.22,10.07-6.97,17.24
		C434.81,332.22,436.84,327.08,434.6,318.03z"/>
	<path class="st0" d="M98.09,383.42c2.83,3.9,5.48,7.27,7.76,10.87c0.7,1.11,0.38,2.86,0.53,4.32c-1.45-0.58-3.34-0.78-4.26-1.83
		c-2.62-2.99-4.62-6.54-7.32-9.44c-1.12-1.2-3.64-2.14-5.06-1.7c-1.32,0.41-2.46,2.7-2.92,4.37c-0.92,3.34-0.95,6.94-2.03,10.21
		c-1.52,4.6-4.74,7.37-9.94,7.76c-5.3,0.4-8.93-2.03-10.56-6.6c-1.71-4.79-2.67-9.91-3.44-14.97c-1.27-8.3-4.1-15.68-10.16-21.75
		c-3.41-3.42-2.8-5.17,1.6-6.67c5.36-1.83,10.69-3.76,17.05-6.01c-0.31-1.1-0.53-3.34-1.54-5.15c-5.33-9.57-11.04-18.95-16.22-28.6
		c-1.56-2.9-1.86-6.49-2.45-8.69c6.14-2.03,11.39-3.55,16.46-5.54c3.03-1.19,3.51-3.65,2.78-7c-3.66-16.79-5.28-33.75-5.38-51.01
		c-0.04-6.01,0.51-11.81,1.08-17.68c1.31-13.41,2.58-26.82,4.21-40.2c1.29-10.55,0.83-11.55-9.16-15.41
		c-11.16-4.32-12.16-2.14-5.33-14.91c3.52-6.57,8.05-12.61,11.48-19.23c3.03-5.85,2.17-6.6-3.12-10.7c-1.89-1.46-2.52-4.56-4.33-8.1
		c-0.73,0-2.83,0.14-4.91-0.03c-3.91-0.31-5.06-2.32-3.03-5.67c0.99-1.65,2.49-3.19,4.11-4.22c5.64-3.6,7.68-8.85,7.79-15.24
		c0.06-3.49,0.26-6.99,0.71-10.45c0.75-5.77,6.19-11.63,11.74-12.97c4.72-1.14,10.2,3.35,11.46,9.55c0.36,1.78,0.34,3.64,0.47,5.47
		c0.58,8.13,0.65,8.22,7.52,9.14c3.62-4.16,6.74-7.95,10.1-11.53c2.27-2.41,4.55-2.56,6.28,1.36c-3.69,3.3-7.46,6.66-11.18,9.99
		c1.46,2.04,3.03,3.35,3.43,4.95c1.19,4.74,2.61,6.83,8.67,5.82c7.98-1.33,11.92,3.47,11.03,11.9c-3.09-1.68-5.85-3.2-8.63-4.67
		c-2.17-1.16-3.91-1.24-4.03,1.92c-0.15,4.15-2.83,6.28-6.35,7.3c-3.93,1.15-7.91,1.57-10.71-2.61c-0.61-0.91-1.65-1.52-2.75-2.5
		c-2.57,4.81-3.28,8.81-0.21,13.66c7.15,11.26,11.62,23.51,11.31,37.14c-0.13,5.53-2.52,9.43-7.65,11.83
		c-1.31,0.61-2.87,2.49-2.87,3.79c-0.08,14.82,0.14,29.65,0.24,44.47c0.02,3.05,1.04,4.52,4.45,5.23c2.46,0.51,5.38,2.76,6.5,5.02
		c2.31,4.7,0.52,7.36-4.74,7.72c-8.42,0.59-7.68,0.3-7.54,8.58c0.26,15.15,1.05,30.28,1.57,45.42c0.1,3.03,0.72,5.02,4.57,4.87
		c1.23-0.05,3.44,2.1,3.68,3.51c1.75,10.37,0.87,20.55-3.75,30.13c-2.45,5.09-5.33,9.97-8.09,14.91c-1.44,2.58-2.16,4.69,1.18,6.63
		c1.72,1,2.8,3.1,4.19,4.74c2.24-2.85,1.32-9.06,6.05-8.06c4.1,0.87,8.82,4.02,10.98,7.56c2.64,4.32,4.3,3.62,7.08,1.18
		c2.08-1.82,4.54-4.11,6.21-0.47c0.64,1.38-1.31,5.42-2.96,6.09c-3.77,1.53-7.54,4.73-12.24,2.4c-0.49-0.24-2.32,0.85-2.28,1.09
		C106.24,380.08,101.49,381.1,98.09,383.42z M80.01,181.61c-3.9,2.07-4.11,2.42-4.91,9.82c-1.99,18.33-3.63,36.64-2.3,55.16
		c1.05,14.61,0.91,29.3,1.43,43.95c0.09,2.63,0.39,5.44,1.46,7.77c0.62,1.35,2.96,1.91,4.53,2.82c0.71-1.27,2.02-2.54,2.04-3.83
		c0.16-17.64,0.36-35.28,0.12-52.92c-0.26-18.99-0.95-37.97-1.51-56.95C80.81,185.57,80.32,183.7,80.01,181.61z M106.6,113.57
		c-1.99-1.47-3.1-2.86-4.35-2.99c-0.71-0.08-2.41,1.96-2.29,2.88c0.14,1.08,1.63,2.53,2.76,2.77
		C103.55,116.41,104.75,114.91,106.6,113.57z"/>
</g>
</svg>
