<?xml version="1.0" encoding="utf-8"?>
<!-- Generator: Adobe Illustrator 23.0.0, SVG Export Plug-In . SVG Version: 6.00 Build 0)  -->
<svg version="1.1" id="图层_1" xmlns="http://www.w3.org/2000/svg" xmlns:xlink="http://www.w3.org/1999/xlink" x="0px" y="0px"
	 viewBox="0 0 246.5 15.6" style="enable-background:new 0 0 246.5 15.6;" xml:space="preserve">
<style type="text/css">
	.st0{fill:#FFFFFF;}
</style>
<g>
	<path class="st0" d="M7.4,8.1C7.3,8.1,7.2,8.2,7,8.2C6.8,8.2,6.5,8,6.3,7.7C6.1,7.4,5.7,7,5.1,6.4C5,6.2,4.9,6,4.9,5.9
		c0,0,0-0.1,0-0.1c-0.5,0.5-1,1-1.6,1.4C3.1,7.3,2.9,7.4,2.7,7.4c-0.2,0-0.3-0.1-0.5-0.2C2.1,7.1,2.1,7,2.1,6.8
		c0-0.1,0.1-0.3,0.2-0.4c0-0.1,0.2-0.2,0.4-0.4c1.2-1.2,2.2-2.5,2.9-4c0.2-0.4,0.5-0.7,0.9-0.7c0.2,0,0.3,0,0.5,0.1
		c0.3,0.1,0.4,0.4,0.4,0.7c0,0.1,0,0.2-0.1,0.3l3.1-0.3c0.1,0,0.2,0,0.3,0c0.7,0,1.1,0.3,1.1,1c0,0.4-0.1,0.9-0.4,1.6
		c-0.6,1.6-1.5,3.2-2.8,4.5c-1.4,1.6-3.1,2.8-5,3.7C3.4,13,3.2,13.1,3,13.1c-0.2,0-0.4-0.1-0.5-0.2c-0.1-0.1-0.1-0.3-0.1-0.4
		c0-0.2,0.1-0.3,0.2-0.5c0.1-0.1,0.3-0.2,0.6-0.4C4.7,10.8,6.1,9.6,7.4,8.1z M7.9,7.5c0.7-0.9,1.2-1.9,1.6-2.9
		C9.6,4.3,9.6,4.1,9.6,4c0-0.1-0.1-0.2-0.3-0.2c-0.1,0-0.1,0-0.1,0L6.3,4.1C6,4.6,5.6,5,5.3,5.4c0.1,0,0.1,0,0.2,0
		c0.3,0,0.7,0.2,1.3,0.6c0.4,0.3,0.7,0.5,0.9,0.7c0.2,0.2,0.3,0.4,0.3,0.6C7.9,7.3,7.9,7.4,7.9,7.5z"/>
	<path class="st0" d="M23.5,11.7l-5,0.3c0,0.1,0,0.2-0.1,0.3c-0.1,0.3-0.4,0.5-0.8,0.5c-0.4,0-0.6-0.1-0.8-0.4
		c-0.1-0.1-0.1-0.2-0.1-0.4V2.7c0-0.3,0.1-0.5,0.3-0.6C17.2,2,17.4,2,17.6,2c0.4,0,0.6,0.1,0.8,0.4l5.2-0.5c0.1,0,0.2,0,0.3,0
		c0.6,0,0.9,0.2,1.1,0.6c0.1,0.2,0.2,0.5,0.2,0.9v8.8c0,0.1,0,0.3-0.1,0.4c-0.2,0.3-0.4,0.4-0.8,0.4c-0.3,0-0.6-0.1-0.8-0.3
		c-0.1-0.1-0.1-0.3-0.1-0.4V11.7z M23.5,5.9V3.9c0-0.3-0.1-0.4-0.4-0.4c0,0-0.1,0-0.1,0l-4.5,0.4v2.4L23.5,5.9z M23.5,7.5l-5,0.4
		v2.6l5-0.3V7.5z"/>
	<path class="st0" d="M35.3,3.8c0.1,0.2,0.1,0.5,0.1,0.8c0,0.7-0.2,1.6-0.6,2.7c-1,2.6-2.1,4-3.5,4c-0.5,0-1-0.3-1.5-0.8
		C29.3,9.8,29,8.9,29,7.8c0-1.2,0.5-2.2,1.4-3.2C31,3.9,31.8,3.4,32.7,3s1.8-0.6,2.8-0.6c1.3,0,2.4,0.4,3.3,1.1
		c1.1,0.9,1.6,2.1,1.6,3.5c0,1.3-0.4,2.4-1.2,3.3c-0.6,0.7-1.4,1.2-2.3,1.6c-0.2,0.1-0.4,0.1-0.6,0.1c-0.3,0-0.5-0.1-0.6-0.3
		c-0.1-0.1-0.1-0.2-0.1-0.3c0-0.2,0.2-0.4,0.5-0.6c1.7-0.9,2.5-2.2,2.5-3.8c0-1.1-0.4-1.9-1.1-2.5c-0.6-0.5-1.2-0.7-2-0.7H35.3z
		 M33.8,4.1c-1,0.4-1.8,0.9-2.4,1.6c-0.5,0.6-0.8,1.3-0.8,2c0,0.6,0.1,1.1,0.3,1.5c0.2,0.3,0.3,0.4,0.5,0.4c0.4,0,0.8-0.5,1.3-1.5
		c0.4-0.8,0.7-1.5,0.9-2.3c0.1-0.5,0.2-0.9,0.2-1.2c0-0.1,0-0.2,0-0.4C33.8,4.2,33.8,4.2,33.8,4.1C33.8,4.2,33.8,4.2,33.8,4.1
		C33.8,4.2,33.8,4.1,33.8,4.1z"/>
	<path class="st0" d="M49,3.7v8.9c0,0.2-0.1,0.4-0.2,0.5c-0.2,0.2-0.4,0.2-0.7,0.2c-0.4,0-0.6-0.1-0.8-0.4c-0.1-0.1-0.1-0.2-0.1-0.4
		V3.8L43.4,4l-0.1,0c-0.2,0-0.4-0.1-0.5-0.2c-0.1-0.1-0.2-0.3-0.2-0.6c0-0.5,0.2-0.8,0.7-0.8l10.1-0.6c0.1,0,0.3,0,0.4,0.1
		c0.3,0.1,0.4,0.4,0.4,0.7c0,0.6-0.2,0.8-0.7,0.9L49,3.7z M49.9,5.1c0.3,0,1,0.3,2,0.8c0.6,0.3,0.9,0.5,1.1,0.7
		c0.3,0.2,0.4,0.5,0.4,0.8c0,0.2-0.1,0.4-0.2,0.6c-0.2,0.2-0.4,0.3-0.7,0.3c-0.3,0-0.6-0.1-0.9-0.4c-0.4-0.4-1-0.9-1.9-1.6
		c-0.2-0.2-0.4-0.4-0.4-0.6c0-0.1,0-0.3,0.1-0.4C49.5,5.2,49.6,5.1,49.9,5.1z"/>
	<path class="st0" d="M58.7,10c0.2-0.5,0.4-0.8,0.5-1c0.1-0.2,0.2-0.2,0.4-0.2c0.1,0,0.2,0,0.2,0.1C60,8.9,60,9.1,60,9.2
		c0,0.1,0,0.2-0.1,0.4c-0.2,0.4-0.4,1.1-0.7,2c-0.2,0.6-0.5,0.9-0.9,0.9c-0.9,0-1.3-1.4-1.3-4.2c0-1.3,0.1-2.9,0.3-4.8
		c0.1-0.6,0.1-0.9,0.2-1.1c0.1-0.4,0.4-0.6,0.8-0.6c0.2,0,0.4,0,0.5,0.1c0.2,0.1,0.3,0.3,0.3,0.6c0,0.1,0,0.2-0.1,0.5
		c-0.2,1-0.3,2.1-0.4,3.5c0,0.5-0.1,1-0.1,1.5C58.6,8.9,58.7,9.5,58.7,10z M63.9,4V2.2c0-0.2,0.1-0.4,0.2-0.5
		c0.2-0.1,0.4-0.2,0.6-0.2c0.4,0,0.6,0.1,0.7,0.4c0.1,0.1,0.1,0.2,0.1,0.3v1.7l0.1,0C66.5,3.7,67,3.7,67,3.7c0.3,0,0.5,0.1,0.6,0.4
		c0.1,0.1,0.1,0.3,0.1,0.4c0,0.4-0.3,0.7-0.8,0.7c-0.2,0-0.4,0-0.9,0.1c-0.1,0-0.3,0-0.5,0c0,1.7,0,3,0.1,3.9c0.8,0.4,1.5,0.7,2,1.1
		c0.3,0.2,0.4,0.5,0.4,0.8c0,0.2-0.1,0.3-0.2,0.5c-0.2,0.2-0.4,0.3-0.6,0.3c-0.2,0-0.4-0.1-0.6-0.2c-0.4-0.3-0.8-0.6-1.1-0.8
		c-0.3,0.9-1,1.4-2.2,1.4c-0.8,0-1.4-0.2-2-0.6c-0.5-0.4-0.8-0.9-0.8-1.5c0-0.5,0.2-0.9,0.7-1.2c0.4-0.2,0.9-0.4,1.5-0.4
		c0.3,0,0.7,0,1.2,0.1l0-0.3l0-0.9c0-1,0-1.6,0-2c-0.4,0-1.2,0.1-2.2,0.2c-0.1,0-0.2,0-0.2,0c-0.5,0-0.7-0.3-0.7-0.8
		c0-0.4,0.2-0.7,0.6-0.7C61.6,4.2,62.4,4.1,63.9,4z M64,10.1c-0.5-0.2-0.9-0.3-1.3-0.3c-0.5,0-0.7,0.1-0.7,0.4
		c0,0.2,0.1,0.3,0.3,0.5c0.2,0.2,0.6,0.3,0.9,0.3c0.5,0,0.8-0.2,0.8-0.7V10.1z"/>
	<path class="st0" d="M76.5,11.1c1.5,0.4,3.2,0.6,5.1,0.7c0.5,0,0.8,0.1,0.8,0.3c0,0.1-0.2,0.3-0.5,0.5c-0.7,0.5-1.3,0.8-1.7,0.8
		c-0.3,0-0.9-0.1-1.7-0.3c-2.7-0.6-4.7-1.4-6-2.3c-0.5,0.8-1,1.4-1.6,1.9c-0.3,0.2-0.5,0.4-0.7,0.4c-0.2,0-0.3-0.1-0.4-0.2
		c-0.1-0.1-0.1-0.2-0.1-0.4c0-0.2,0.1-0.4,0.4-0.7c0.6-0.7,1.1-1.6,1.5-2.6c0.1-0.3,0.3-0.7,0.4-1c0.1-0.4,0.4-0.6,0.8-0.6
		c0.1,0,0.3,0,0.4,0.1c0.3,0.1,0.5,0.4,0.5,0.7c0,0.2-0.1,0.7-0.4,1.3c0.5,0.3,1.1,0.6,1.8,0.9V7.4c0-0.3,0.1-0.5,0.4-0.6l-4.7,0.3
		c-0.2,0-0.3,0-0.4-0.1c-0.2-0.1-0.3-0.3-0.3-0.6c0-0.5,0.2-0.7,0.6-0.8l4.2-0.3V4.1l-2.9,0.2c0,0-0.1,0-0.1,0
		c-0.2,0-0.3-0.1-0.4-0.2c-0.1-0.1-0.1-0.3-0.1-0.5c0-0.5,0.2-0.7,0.6-0.7l3-0.2V1.3c0-0.3,0.1-0.5,0.4-0.6c0.2-0.1,0.3-0.1,0.5-0.1
		c0.3,0,0.5,0.1,0.7,0.3c0.1,0.1,0.2,0.3,0.2,0.5v1.3l2.8-0.2c0,0,0.1,0,0.1,0c0.4,0,0.6,0.2,0.6,0.7c0,0.4-0.2,0.6-0.6,0.7L76.4,4
		v1.3l4.4-0.3l0,0c0.1,0,0.3,0,0.4,0.1c0.2,0.1,0.3,0.3,0.3,0.6c0,0.5-0.2,0.7-0.6,0.8L76,6.7c0.4,0.1,0.6,0.3,0.6,0.7v0.7l3-0.2
		l0,0c0.1,0,0.3,0,0.4,0.1c0.2,0.1,0.3,0.3,0.3,0.6c0,0.3-0.1,0.5-0.3,0.7c-0.1,0.1-0.2,0.1-0.3,0.1l-3.1,0.2V11.1z"/>
	<path class="st0" d="M89.7,5.8c0.7,0,1.3,0.2,1.9,0.5c0.7,0.5,1.1,1.2,1.1,2.1c0,1.4-0.8,2.5-2.3,3.2c-0.5,0.2-1,0.4-1.6,0.5
		c-0.1,0-0.3,0-0.3,0c-0.4,0-0.6-0.2-0.6-0.6c0-0.2,0.1-0.3,0.3-0.5c0.1,0,0.3-0.1,0.6-0.2c1.5-0.5,2.3-1.3,2.3-2.3
		c0-0.4-0.1-0.7-0.4-0.9c-0.2-0.2-0.6-0.3-1-0.3c-0.5,0-1.4,0.1-2.6,0.4c-1.5,0.4-2.4,0.5-2.6,0.5c-0.2,0-0.3-0.1-0.5-0.2
		c-0.2-0.1-0.2-0.4-0.2-0.6c0-0.4,0.3-0.6,0.8-0.7c0.3,0,1.1-0.2,2.4-0.4C88.2,6,89.1,5.8,89.7,5.8z"/>
	<path class="st0" d="M101.5,4.1c-1.4,0.3-3,0.5-4.8,0.8C96,5,95.5,5,95.4,5c-0.6,0-0.9-0.3-0.9-0.9c0-0.4,0.2-0.6,0.5-0.7
		c0.1,0,0.4-0.1,0.8-0.1c1.1-0.1,2.6-0.3,4.5-0.5c1.3-0.2,2.4-0.4,3.2-0.5c0.2,0,0.4-0.1,0.5-0.1c0.4,0,0.6,0.1,0.8,0.4
		c0.1,0.2,0.2,0.4,0.2,0.5c0,0.4-0.2,0.6-0.7,0.8c-0.8,0.3-1.5,0.7-2.1,1.3c-1.1,0.9-1.6,2-1.6,3.1c0,1.2,0.7,2.1,2.2,2.5
		c0.4,0.1,0.6,0.4,0.6,0.8c0,0.2-0.1,0.4-0.2,0.6c-0.1,0.2-0.4,0.3-0.6,0.3c-0.6,0-1.2-0.3-2-0.8c-1.1-0.8-1.6-1.9-1.6-3.3
		c0-1.1,0.4-2.2,1.3-3.2c0.3-0.4,0.7-0.7,1.1-1C101.4,4.1,101.4,4.1,101.5,4.1z"/>
	<path class="st0" d="M107.7,9.3c0.3,0,0.9,0.4,1.7,1.1c0.8,0.8,1.3,1.4,1.3,1.8c0,0.3-0.1,0.5-0.4,0.7c-0.2,0.2-0.4,0.2-0.6,0.2
		c-0.3,0-0.6-0.2-0.8-0.5c-0.4-0.6-0.9-1.3-1.6-2.1c-0.2-0.2-0.2-0.4-0.2-0.6c0-0.2,0.1-0.3,0.2-0.5C107.3,9.4,107.5,9.3,107.7,9.3z
		"/>
	<path class="st0" d="M120.4,3.1c-0.6,0.1-1.4,0.2-2.5,0.4c-0.3,0-0.5,0.1-0.6,0.1c-0.2,0-0.4-0.1-0.5-0.2c-0.1-0.2-0.2-0.3-0.2-0.6
		c0-0.3,0.1-0.5,0.4-0.7c0.1-0.1,0.3-0.1,0.6-0.1c1-0.1,2.3-0.2,3.9-0.4c0.2,0,0.3,0,0.4,0c0.4,0,0.7,0.1,0.9,0.4
		c0.1,0.2,0.2,0.4,0.2,0.7c0,0.3-0.1,0.5-0.3,0.7c-0.9,0.7-2.3,1.6-4.3,2.8l0,0.1c1.7-0.3,3.7-0.6,5.9-0.9c0.1,0,0.2,0,0.3,0
		c0.4,0,0.6,0.1,0.8,0.4c0.1,0.1,0.1,0.3,0.1,0.4c0,0.5-0.3,0.7-0.9,0.8c-1,0.1-1.8,0.3-2.4,0.7c-1,0.6-1.6,1.3-1.6,2.2
		c0,0.4,0.2,0.8,0.6,1.1c0.3,0.3,0.8,0.5,1.3,0.7c0.4,0.1,0.6,0.4,0.6,0.8c0,0.2,0,0.4-0.1,0.5c-0.2,0.2-0.4,0.4-0.7,0.4
		c-0.3,0-0.7-0.1-1.2-0.4c-1.4-0.7-2.1-1.6-2.1-3c0-0.7,0.3-1.3,0.8-1.9c0.3-0.3,0.6-0.6,1.1-0.8l0,0c-1.3,0.3-2.8,0.6-4.6,0.9
		C115.6,8,115.4,8,115.3,8c-0.3,0-0.5-0.2-0.6-0.5c-0.1-0.1-0.1-0.3-0.1-0.4c0-0.4,0.2-0.7,0.5-0.7c0.2,0,0.6-0.3,1.3-0.7
		C117.7,5,119.1,4.1,120.4,3.1L120.4,3.1z"/>
	<path class="st0" d="M135.1,4.4c-1.3,0.8-2.5,1.7-3.6,2.7c-0.4,0.4-0.7,0.6-0.8,0.7l0,0.3c-0.1,2.3-0.1,3.5-0.1,3.7
		c0,0.1,0,0.2,0,0.2c0,0.7-0.3,1-0.8,1c-0.3,0-0.5-0.1-0.7-0.3c-0.1-0.1-0.1-0.4-0.1-0.7c0-1.1,0-2,0-2.5c-0.3,0.3-0.7,0.7-1,1
		c-0.2,0.2-0.4,0.4-0.7,0.4c-0.2,0-0.4-0.1-0.6-0.3c-0.1-0.2-0.2-0.3-0.2-0.6c0-0.2,0.1-0.4,0.2-0.6c0.6-0.7,1.4-1.7,2.3-3.1l0-0.1
		c0-0.4,0-0.6,0-0.8c-0.9,0.4-1.5,0.5-1.6,0.5c-0.3,0-0.6-0.2-0.7-0.5c0-0.1-0.1-0.3-0.1-0.4c0-0.4,0.3-0.6,0.8-0.7
		c0.4-0.1,0.9-0.2,1.7-0.5c0.1-1.3,0.1-2,0.2-2.2c0.1-0.4,0.3-0.6,0.8-0.6c0.5,0,0.8,0.3,0.8,0.8c0,0.2,0,0.7-0.1,1.4
		c0.2,0,0.3,0.1,0.4,0.2c0.2,0.1,0.3,0.3,0.3,0.5c0,0.2-0.1,0.3-0.2,0.5c-0.2,0.3-0.4,0.6-0.6,0.9c0,0.1,0,0.2,0,0.4
		c0,0.1,0,0.2,0,0.2c1.4-1.2,2.7-2.2,3.9-3c0.4-0.3,0.7-0.4,1.1-0.4c0.2,0,0.4,0.1,0.6,0.2c0.3,0.2,0.5,0.5,0.5,0.9
		c0,0.1,0,0.2,0,0.5c-0.2,2-0.3,3.7-0.3,4.9c0,0.7,0.2,1,0.5,1c0.4,0,0.8-0.3,1.2-1c0.1-0.2,0.3-0.3,0.5-0.3c0.1,0,0.2,0,0.3,0.1
		c0.1,0.1,0.2,0.2,0.2,0.4c0,0.2-0.1,0.5-0.3,0.8c-0.2,0.4-0.5,0.8-0.9,1c-0.4,0.3-0.9,0.5-1.4,0.5c-0.6,0-1.1-0.2-1.5-0.7
		c-0.3-0.4-0.4-0.9-0.4-1.5C134.8,8.6,134.9,6.9,135.1,4.4L135.1,4.4z"/>
	<path class="st0" d="M142.9,10c0.2-0.5,0.4-0.8,0.5-1c0.1-0.2,0.2-0.2,0.4-0.2c0.1,0,0.2,0,0.2,0.1c0.2,0.1,0.2,0.2,0.2,0.4
		c0,0.1,0,0.2-0.1,0.4c-0.2,0.4-0.4,1.1-0.7,2c-0.2,0.6-0.5,0.9-0.9,0.9c-0.9,0-1.3-1.4-1.3-4.2c0-1.3,0.1-2.9,0.3-4.8
		c0.1-0.6,0.1-0.9,0.2-1.1c0.1-0.4,0.4-0.6,0.8-0.6c0.2,0,0.4,0,0.5,0.1c0.2,0.1,0.3,0.3,0.3,0.6c0,0.1,0,0.2-0.1,0.5
		c-0.2,1-0.3,2.1-0.4,3.5c0,0.5-0.1,1-0.1,1.5C142.8,8.9,142.8,9.5,142.9,10z M148.1,4V2.2c0-0.2,0.1-0.4,0.2-0.5
		c0.2-0.1,0.4-0.2,0.6-0.2c0.4,0,0.6,0.1,0.7,0.4c0.1,0.1,0.1,0.2,0.1,0.3v1.7l0.1,0c0.8-0.1,1.3-0.1,1.4-0.1c0.3,0,0.5,0.1,0.6,0.4
		c0.1,0.1,0.1,0.3,0.1,0.4c0,0.4-0.3,0.7-0.8,0.7c-0.2,0-0.4,0-0.9,0.1c-0.1,0-0.3,0-0.5,0c0,1.7,0,3,0.1,3.9c0.8,0.4,1.5,0.7,2,1.1
		c0.3,0.2,0.4,0.5,0.4,0.8c0,0.2-0.1,0.3-0.2,0.5c-0.2,0.2-0.4,0.3-0.6,0.3c-0.2,0-0.4-0.1-0.6-0.2c-0.4-0.3-0.8-0.6-1.1-0.8
		c-0.3,0.9-1,1.4-2.2,1.4c-0.8,0-1.4-0.2-2-0.6c-0.5-0.4-0.8-0.9-0.8-1.5c0-0.5,0.2-0.9,0.7-1.2c0.4-0.2,0.9-0.4,1.5-0.4
		c0.3,0,0.7,0,1.2,0.1l0-0.3l0-0.9c0-1,0-1.6,0-2c-0.4,0-1.2,0.1-2.2,0.2c-0.1,0-0.2,0-0.2,0c-0.5,0-0.7-0.3-0.7-0.8
		c0-0.4,0.2-0.7,0.6-0.7C145.7,4.2,146.5,4.1,148.1,4z M148.1,10.1c-0.5-0.2-0.9-0.3-1.3-0.3c-0.5,0-0.7,0.1-0.7,0.4
		c0,0.2,0.1,0.3,0.3,0.5c0.2,0.2,0.6,0.3,0.9,0.3c0.5,0,0.8-0.2,0.8-0.7V10.1z"/>
	<path class="st0" d="M156.2,8.5c-0.5,0.8-1,1.4-1.6,1.9c-0.3,0.3-0.5,0.4-0.7,0.4c-0.1,0-0.3-0.1-0.4-0.2c-0.1-0.1-0.2-0.3-0.2-0.4
		c0-0.2,0.1-0.4,0.4-0.7c0.7-0.9,1.4-2,2.1-3.3l-1.5,0.2c0,0-0.1,0-0.1,0c-0.2,0-0.3-0.1-0.4-0.2c-0.2-0.1-0.2-0.3-0.2-0.6
		c0-0.4,0.2-0.7,0.6-0.7l2-0.2V3.3c-0.9,0.2-1.4,0.3-1.6,0.3c-0.4,0-0.6-0.2-0.6-0.6c0-0.2,0.1-0.4,0.3-0.5c0.1,0,0.2-0.1,0.5-0.2
		c1.1-0.3,2.2-0.7,3.3-1.2c0.2-0.1,0.4-0.1,0.5-0.1c0.3,0,0.5,0.1,0.6,0.3c0.1,0.1,0.2,0.3,0.2,0.5c0,0.3-0.2,0.5-0.5,0.7
		c-0.2,0.1-0.6,0.3-1.1,0.4v1.7l1.3-0.2c0,0,0.1,0,0.1,0c0.2,0,0.4,0.1,0.5,0.2c0.1,0.1,0.2,0.3,0.2,0.6c0,0.4-0.2,0.7-0.6,0.7
		l-1.5,0.2v0.7c0.7,0.4,1.2,0.7,1.5,0.9c0.3,0.2,0.4,0.4,0.4,0.7c0,0.2-0.1,0.3-0.2,0.5c-0.1,0.2-0.3,0.3-0.5,0.3s-0.5-0.1-0.7-0.4
		c-0.2-0.2-0.3-0.3-0.5-0.5v4.4c0,0.2-0.1,0.3-0.2,0.4c-0.2,0.2-0.4,0.2-0.6,0.2c-0.4,0-0.6-0.1-0.7-0.4c0-0.1-0.1-0.2-0.1-0.3V8.5z
		 M164.5,11.5c-0.8,0.3-1.8,0.6-3.1,0.9c-0.8,0.2-1.3,0.3-1.5,0.3c-0.2,0-0.4-0.1-0.6-0.4c-0.2-0.3-0.3-0.5-0.3-0.7
		c0-0.1,0.1-0.5,0.3-1c0.4-1,0.8-2.3,1.2-3.8c0.4-1.5,0.8-2.9,1-4.1c0.1-0.5,0.4-0.7,0.8-0.7c0.2,0,0.4,0,0.5,0.1
		c0.3,0.1,0.4,0.4,0.4,0.7c0,0.3-0.2,1.2-0.7,2.8c-0.5,1.9-1.1,3.6-1.8,5.4c1-0.1,2-0.3,3.1-0.6l0.1,0c-0.2-0.4-0.3-0.8-0.4-1
		c-0.1-0.2-0.2-0.6-0.5-1.2C163,7.9,163,7.7,163,7.6c0-0.2,0.1-0.3,0.2-0.4c0.1-0.1,0.2-0.1,0.4-0.1c0.2,0,0.4,0.1,0.6,0.4
		c0.3,0.4,0.6,0.9,1,1.5c0.8,1.5,1.2,2.5,1.2,2.9c0,0.3-0.1,0.5-0.4,0.7c-0.2,0.1-0.3,0.1-0.5,0.1c-0.3,0-0.6-0.1-0.7-0.4
		c0,0-0.1-0.2-0.2-0.4C164.6,11.8,164.5,11.7,164.5,11.5z"/>
	<path class="st0" d="M174.2,3.8c0.1,0.2,0.1,0.5,0.1,0.8c0,0.7-0.2,1.6-0.6,2.7c-1,2.6-2.1,4-3.5,4c-0.5,0-1-0.3-1.5-0.8
		c-0.6-0.7-0.9-1.6-0.9-2.7c0-1.2,0.5-2.2,1.4-3.2c0.6-0.7,1.4-1.2,2.3-1.6s1.8-0.6,2.8-0.6c1.3,0,2.4,0.4,3.3,1.1
		c1.1,0.9,1.6,2.1,1.6,3.5c0,1.3-0.4,2.4-1.2,3.3c-0.6,0.7-1.4,1.2-2.3,1.6c-0.2,0.1-0.4,0.1-0.6,0.1c-0.3,0-0.5-0.1-0.6-0.3
		c-0.1-0.1-0.1-0.2-0.1-0.3c0-0.2,0.2-0.4,0.5-0.6c1.7-0.9,2.5-2.2,2.5-3.8c0-1.1-0.4-1.9-1.1-2.5c-0.6-0.5-1.2-0.7-2-0.7H174.2z
		 M172.7,4.1c-1,0.4-1.8,0.9-2.4,1.6c-0.5,0.6-0.8,1.3-0.8,2c0,0.6,0.1,1.1,0.3,1.5c0.2,0.3,0.3,0.4,0.5,0.4c0.4,0,0.8-0.5,1.3-1.5
		c0.4-0.8,0.7-1.5,0.9-2.3c0.1-0.5,0.2-0.9,0.2-1.2c0-0.1,0-0.2,0-0.4C172.7,4.2,172.7,4.2,172.7,4.1C172.7,4.2,172.7,4.2,172.7,4.1
		C172.7,4.2,172.7,4.1,172.7,4.1z"/>
	<path class="st0" d="M187.6,7.9c-0.6,0.9-1.5,2.1-2.6,3.4c1.4-0.2,2.9-0.5,4.7-0.8l0.1,0c-0.2-0.2-0.4-0.5-0.6-0.8
		c-0.2-0.2-0.2-0.4-0.2-0.6c0-0.2,0.1-0.3,0.2-0.4c0.1-0.1,0.3-0.2,0.4-0.2c0.3,0,0.9,0.4,1.7,1.3c1.1,1.2,1.6,2,1.6,2.4
		c0,0.2-0.1,0.4-0.3,0.6c-0.2,0.2-0.5,0.3-0.7,0.3c-0.3,0-0.5-0.1-0.6-0.3c0,0-0.1-0.2-0.2-0.3c-0.1-0.2-0.3-0.5-0.5-0.9l-0.1,0
		c-1.8,0.5-3.5,0.9-5.2,1.1c-0.8,0.1-1.3,0.2-1.5,0.2c-0.3,0-0.6-0.1-0.7-0.4c-0.2-0.3-0.2-0.5-0.2-0.7c0-0.1,0-0.2,0.1-0.4
		c0-0.1,0.1-0.2,0.3-0.4c0.6-0.8,1.4-1.8,2.2-3.1l-3.4,0.2c-0.1,0-0.2,0-0.3-0.1c-0.3-0.1-0.4-0.3-0.4-0.7c0-0.5,0.2-0.7,0.6-0.8
		l4.5-0.3V4.7l-2.9,0.2l-0.1,0c-0.4,0-0.7-0.3-0.7-0.8c0-0.4,0.2-0.7,0.6-0.7l3.1-0.2V1.5c0-0.3,0.1-0.5,0.4-0.7
		c0.2-0.1,0.3-0.1,0.5-0.1c0.3,0,0.5,0.1,0.7,0.3c0.1,0.1,0.2,0.3,0.2,0.5v1.6l3-0.2c0.3,0,0.5,0.1,0.6,0.4c0,0.1,0.1,0.2,0.1,0.4
		c0,0.5-0.2,0.7-0.6,0.7l-3.1,0.2v1.8l4.6-0.3l0,0c0.2,0,0.3,0,0.5,0.2c0.2,0.1,0.2,0.3,0.2,0.6c0,0.5-0.2,0.7-0.6,0.8L187.6,7.9z"
		/>
	<path class="st0" d="M201.3,5.8c0.7,0,1.3,0.2,1.9,0.5c0.7,0.5,1.1,1.2,1.1,2.1c0,1.4-0.8,2.5-2.3,3.2c-0.5,0.2-1,0.4-1.6,0.5
		c-0.1,0-0.3,0-0.3,0c-0.4,0-0.6-0.2-0.6-0.6c0-0.2,0.1-0.3,0.3-0.5c0.1,0,0.3-0.1,0.6-0.2c1.5-0.5,2.3-1.3,2.3-2.3
		c0-0.4-0.1-0.7-0.4-0.9c-0.2-0.2-0.6-0.3-1-0.3c-0.5,0-1.4,0.1-2.6,0.4c-1.5,0.4-2.4,0.5-2.6,0.5c-0.2,0-0.3-0.1-0.5-0.2
		c-0.2-0.1-0.2-0.4-0.2-0.6c0-0.4,0.3-0.6,0.8-0.7c0.3,0,1.1-0.2,2.4-0.4C199.9,6,200.8,5.8,201.3,5.8z"/>
	<path class="st0" d="M209.5,3.7c0.2-0.7,0.4-1.3,0.5-1.9c0.1-0.4,0.4-0.6,0.8-0.6c0.6,0,0.9,0.2,0.9,0.7c0,0.2-0.1,0.8-0.4,1.6
		c0.6-0.1,1-0.2,1.4-0.3c0.1,0,0.2,0,0.3,0c0.3,0,0.5,0.1,0.6,0.4c0.1,0.1,0.1,0.3,0.1,0.5c0,0.4-0.2,0.6-0.6,0.7
		c-0.5,0.1-1.3,0.3-2.3,0.4l0,0.1l-0.3,0.8c-0.9,2.7-1.6,4.5-2,5.5c-0.1,0.2-0.2,0.4-0.2,0.4c-0.2,0.3-0.4,0.4-0.8,0.4
		c-0.2,0-0.3,0-0.5-0.1c-0.3-0.2-0.4-0.4-0.4-0.6c0-0.1,0.1-0.4,0.2-0.7c0.4-0.9,0.9-2.1,1.5-3.6c0.1-0.3,0.2-0.6,0.3-0.8
		c0.2-0.6,0.3-1,0.4-1.1c-0.7,0.1-1.2,0.1-1.5,0.1c-0.3,0-0.5-0.1-0.6-0.3c-0.1-0.1-0.1-0.3-0.1-0.5c0-0.5,0.3-0.8,0.9-0.8
		C208.1,3.9,208.7,3.8,209.5,3.7z M212.3,9.7c0.2,0,0.4,0.1,0.6,0.3c0.5,0.6,1.5,0.9,2.9,0.9c0.1,0,0.2,0,0.2,0c0.1,0,0.2,0,0.2,0
		c0.2,0,0.4,0.1,0.6,0.2c0.2,0.2,0.3,0.4,0.3,0.6c0,0.2-0.1,0.5-0.2,0.6c-0.2,0.2-0.4,0.3-0.8,0.3c-1,0-1.9-0.2-2.7-0.5
		c-0.7-0.3-1.2-0.7-1.5-1.2c-0.1-0.2-0.2-0.4-0.2-0.5c0-0.2,0.1-0.3,0.2-0.5C212,9.7,212.1,9.7,212.3,9.7z M215.2,5.9
		c0.6,0,1.1,0,1.2,0.1c0.4,0.1,0.6,0.4,0.6,0.8c0,0.2-0.1,0.4-0.2,0.5c-0.2,0.2-0.4,0.2-0.6,0.2c0,0-0.1,0-0.2,0c-0.4,0-0.7,0-1,0
		c-0.6,0-1.3,0.1-2.2,0.3c-0.1,0-0.2,0-0.3,0c-0.3,0-0.5-0.1-0.6-0.4c0-0.1-0.1-0.2-0.1-0.3c0-0.3,0.2-0.5,0.5-0.6
		c0.3-0.2,0.8-0.3,1.4-0.4C214.3,6,214.8,5.9,215.2,5.9z"/>
	<path class="st0" d="M226.2,3.3l2.8-0.2c0,0,0,0,0,0c0.4,0,0.5,0.2,0.5,0.5c0,0.4-0.2,0.6-0.5,0.6l-2.8,0.2v0.5l5-0.3l0,0
		c0.1,0,0.2,0,0.3,0.1c0.2,0.1,0.2,0.3,0.2,0.5c0,0.4-0.2,0.6-0.6,0.6l-11.3,0.7c-0.4,0-0.6-0.2-0.6-0.6c0-0.4,0.2-0.6,0.5-0.6
		l4.7-0.3V4.5l-2.7,0.2c-0.2,0-0.3,0-0.4-0.1c-0.1-0.1-0.2-0.2-0.2-0.4c0-0.3,0.2-0.5,0.5-0.6l2.7-0.2V3l-3.3,0.2c0,0,0,0-0.1,0
		c-0.4,0-0.6-0.2-0.6-0.6s0.2-0.6,0.5-0.6l3.4-0.3V1.1c0-0.4,0.3-0.7,0.9-0.7c0.6,0,0.8,0.2,0.8,0.7v0.5l3.2-0.2c0,0,0.1,0,0.1,0
		c0.4,0,0.5,0.2,0.5,0.6c0,0.3-0.2,0.5-0.5,0.6l-3.3,0.2V3.3z M227.6,10.9l-4,0.2v1.6c0,0.4-0.3,0.7-0.8,0.7c-0.5,0-0.8-0.2-0.8-0.7
		V7.3c0-0.4,0.3-0.6,0.8-0.6c0.3,0,0.6,0.1,0.7,0.2l4.5-0.3c0,0,0.1,0,0.1,0c0.5,0,0.8,0.2,1,0.5c0.1,0.2,0.2,0.4,0.2,0.6v4.6
		c0,0.8-0.4,1.2-1.1,1.2c-0.4,0-1.1-0.2-2-0.6c-0.3-0.1-0.5-0.3-0.5-0.5c0-0.3,0.2-0.5,0.5-0.5c0.1,0,0.2,0,0.3,0
		c0.3,0.1,0.6,0.1,0.8,0.1c0.2,0,0.3-0.1,0.3-0.3V10.9z M227.6,8.2V7.9c0-0.2-0.1-0.2-0.2-0.2c0,0,0,0,0,0l-3.7,0.3v0.5L227.6,8.2z
		 M227.6,9.3l-4,0.2v0.6l4-0.2V9.3z"/>
	<path class="st0" d="M242.5,8.6c0,0.1,0,0.3,0,0.4v3.8c0,0.2-0.1,0.3-0.2,0.4c-0.2,0.2-0.4,0.3-0.7,0.3c-0.4,0-0.7-0.2-0.8-0.5
		c0-0.1,0-0.1,0-0.2l-3,0.1c0,0.1-0.1,0.2-0.1,0.2c-0.2,0.2-0.4,0.3-0.7,0.3c-0.3,0-0.6-0.1-0.7-0.4c-0.1-0.1-0.1-0.2-0.1-0.3v-4
		c-0.6,0.5-1.3,1.1-2.1,1.7c-0.2,0.2-0.4,0.2-0.6,0.2s-0.3-0.1-0.4-0.2c-0.1-0.1-0.2-0.2-0.2-0.4c0-0.2,0.1-0.3,0.2-0.4
		c0-0.1,0.2-0.2,0.4-0.3c0.8-0.6,1.5-1.3,2.2-2.1l-2,0.1c-0.2,0-0.3,0-0.4-0.1c-0.2-0.1-0.3-0.3-0.3-0.5c0-0.4,0.2-0.6,0.6-0.7
		l3-0.2c0.1-0.2,0.2-0.4,0.4-0.7l-1.6,0.1c0,0,0,0-0.1,0c-0.2,0-0.3-0.1-0.4-0.2C235,5,235,4.8,235,4.7c0-0.4,0.2-0.6,0.5-0.6
		l2.3-0.2c0.1-0.2,0.1-0.4,0.2-0.5c0,0,0-0.1,0-0.1l-2.6,0.2l-0.1,0c-0.2,0-0.4-0.1-0.5-0.2c-0.1-0.1-0.1-0.3-0.1-0.4
		c0-0.4,0.2-0.6,0.6-0.6l3.1-0.2c0-0.2,0.1-0.5,0.2-0.7c0.1-0.5,0.4-0.7,0.8-0.7c0.1,0,0.2,0,0.3,0c0.3,0.1,0.5,0.4,0.5,0.7
		c0,0.1,0,0.3-0.1,0.6l3.3-0.2c0,0,0,0,0.1,0c0.2,0,0.4,0.1,0.5,0.3c0.1,0.1,0.1,0.2,0.1,0.4c0,0.4-0.2,0.6-0.5,0.6l-3.7,0.3
		c0,0.1-0.1,0.4-0.2,0.6l3.5-0.2c0.2,0,0.4,0.1,0.5,0.2c0.1,0.1,0.1,0.2,0.1,0.4c0,0.4-0.2,0.6-0.5,0.6l-2,0.1
		c0.2,0.2,0.3,0.4,0.5,0.7l3.2-0.2c0,0,0,0,0,0c0.2,0,0.4,0.1,0.5,0.2c0.1,0.1,0.2,0.3,0.2,0.5c0,0.4-0.2,0.6-0.6,0.6l-2.2,0.1
		c1,0.9,1.9,1.7,2.9,2.3c0.3,0.2,0.5,0.3,0.5,0.5c0,0.1-0.1,0.2-0.4,0.3c-0.6,0.2-1,0.3-1.3,0.3c-0.2,0-0.5-0.1-0.7-0.3
		C243.4,9.4,242.9,9,242.5,8.6z M241.8,7.7c-0.3-0.4-0.5-0.7-0.7-0.8l-3.3,0.2c-0.2,0.2-0.3,0.5-0.5,0.7c0.1,0,0.3,0.1,0.4,0.2
		l3.4-0.3c0.1,0,0.1,0,0.2,0C241.6,7.7,241.7,7.7,241.8,7.7z M240.9,9.7V9.2c0-0.2-0.1-0.3-0.3-0.3h0L238,9.1v0.7L240.9,9.7z
		 M240.9,10.8l-3,0.2v0.8l3-0.1V10.8z M239.8,5L239,5c-0.2,0.3-0.3,0.6-0.3,0.7l1.6-0.1C240.1,5.4,239.9,5.2,239.8,5z"/>
</g>
<g>
</g>
<g>
</g>
<g>
</g>
<g>
</g>
<g>
</g>
</svg>
