<?xml version="1.0" encoding="utf-8"?>
<!-- Generator: Adobe Illustrator 23.0.0, SVG Export Plug-In . SVG Version: 6.00 Build 0)  -->
<svg version="1.1" id="图层_2" xmlns="http://www.w3.org/2000/svg" xmlns:xlink="http://www.w3.org/1999/xlink" x="0px" y="0px"
	 viewBox="0 0 89.3 144.6" style="enable-background:new 0 0 89.3 144.6;" xml:space="preserve">
<style type="text/css">
	.st0{fill:#FFFFFF;}
</style>
<path class="st0" d="M8.8,9.4L8.1,11l-0.5,0.9l-0.3,0.8L7,13.5l-0.3,0.7l-0.6,0.8l-0.5,0.4l-0.7,0.5l-0.5,0.5l-0.6,0.3l-0.6,0.2
	l-0.8,0.2l-0.7,0.1l-0.5,0.3c0,0-0.3,0.2,0.1,0.3S2,17.8,2,17.8l0.4-0.1l0.5-0.1l0.4-0.1c0,0,0.6-0.1,0.7-0.1c0.1,0,0.6-0.1,0.6-0.1
	s0.2,0,0,0.1s-0.4,0.4-0.4,0.4l-0.6,0.8l-0.3,0.4l-0.3,0.7l-0.3,0.6l-0.1,0.4c0,0-0.1,0.4,0.2,0.2c0.3-0.2,0.6-0.5,0.6-0.5
	c0,0,0.3-0.5,0.3-0.5s0.3-0.3,0.4-0.4c0,0,0.5-0.4,0.5-0.4l0.5-0.4l0.3-0.1l0,0.1L5.1,19l-0.4,0.6l-0.1,0.5l-0.1,0.4l-0.2,0.7
	l-0.1,0.5l0,0.5l0,0.6l0,0.8l0,0.7c0,0,0,0.1,0.2,0C4.5,24.2,4.6,24,4.6,24l0.2-0.5L5,23l0.2-0.4l0.3-0.5l0.3-0.5L6,21.1l0.3-0.3
	l0.1,0l0,0.4l0,0.7l0.1,0.5l0.1,0.4l0.1,0.5l0.2,0.3l0.6,1.2l0.3,0.7L8.2,26l0.4,0.5l0.4,0.4l0.5,0.5l0.4,0.4l0.5,0.4l0.2,0.2
	l0.1,0.1v0.3v0.3l-0.3,0.3L10.1,30l-0.4,0.3l-0.4,0.4L9,31l-0.3,0.5L8.5,32l0,0.5l0,0.6l0.2,0.4c0,0,0.2,0.6,0.2,0.6
	s0.3,0.5,0.3,0.5l0.2,0.4l0.6,1.4l0.4,0.8l0.4,1l0.5,0.9l0.6,1l0.5,0.7l0.5,0.5l0.5,0.5l0.8,0.6l0.6,0.3l1.1,0.4l0.8,0.1h1.3
	c0,0,0.9,0,0.9,0s0.8,0,0.8,0s0.9-0.1,0.9-0.1s0.6-0.2,0.6-0.2s0.6-0.2,0.7-0.2c0.1,0,0.6-0.2,0.7-0.2c0,0,0.6-0.3,0.6-0.3l0.5,0
	l0.3,0.1l0.3,0.3l0.3,0.3v0.3l-0.2,0.2l-0.6,0.3l-0.7,0.5l-0.5,0.6l-0.6,0.8l-0.7,1l-0.4,0.7l-0.3,0.5L20,47.8l-0.2,0.1h-0.2
	l-0.5-0.1l-0.4,0.1l-0.6,0.4l-0.3,0.3l-0.4,0.3l-0.2,0.1l-0.3-0.1l-0.4,0l-0.5,0L16,48.9l-0.2,0.2l-0.2,0.2l-0.2,0.2l-0.1,0.1
	l-0.2,0.1L15,49.7l0,0.8l-0.1,0.3L14.4,51l-1,0.4l-1.1,0.3l-1.5,0.4l-1.2,0.3l-1,0.2H7.9H7.1l-0.4-0.2l-0.1-0.4l-0.3-0.4l-0.2-0.5
	L6,50.5L6,50l0-0.8l0-0.4l0.1-0.3l1.2-0.8l0.5-0.6l0.5-0.5l0.4-0.4l0.2-1.4l-0.2-0.7l-0.4-0.4l-0.5-0.1l-0.3-0.1l-0.2-0.2l0-0.4
	L7,42.5v-1.4l-0.2-0.3l-0.4-0.4l-0.3-0.3L5.8,40l-0.6,0l-0.3,0.2l-0.4,0.3l-0.1,0.2H3.9l-0.4,0l-0.6,0.2l-0.2,0.3l-0.2,0.3l0,0.4
	l-0.9,0l-0.2,0l-0.4,0.5v0.5L0.9,43v0.2v0.1l-0.4,0l-0.3,0.3L0,44l0,0.3v0.9l0.2,0.5l0.3,0.5l0.2,0.8l0.3,0.5L1,47.9l0,0.4l0,2.2
	l0,3.1l-0.1,1.4v1l0,1.1L1.1,58l0.1,0.7l0.5,1.1c0,0,0.3,0.4,0.3,0.5c0,0,0.3,0.4,0.3,0.4l0.5,0.1l0.5,0h1.2h1l1-0.1
	c0,0,1-0.2,1.1-0.2c0.1,0,1.1-0.2,1.1-0.2c0,0,1.1-0.2,1.2-0.2c0.1,0,1.4-0.2,1.4-0.2l1.6-0.4c0,0,1-0.2,1.1-0.2c0.1,0,1-0.3,1-0.3
	s0.9-0.3,1-0.3s0.9-0.3,0.9-0.3s0.5-0.2,0.5-0.2l0.3,0.1l0.1,0.3l0.2,0.4l0.2,0.5l0.2,0.4l0.4,0.2l0.5,0l0.7-0.2l0.5-0.2
	c0,0,0.4-0.3,0.4-0.3s0.2-0.3,0.2-0.3l0-0.1l0.3-0.1L22,59l0.7-0.2l0.7-0.3l0.6-0.4l0.4-0.1v0.7l0.1,0.8l0.2,1.9l0.3,1.1l0.2,0.8
	l0.4,2l0.2,1.4l0.6,2.7l0.4,1.5l0.6,2.5l0.4,1.5l0.8,2.9l0.5,1.5l1.1,3.2l0.7,1.7l1,2.5l0.6,1.3l0.9,1.9l0.4,0.9l0.2,0.5l0.5,0.4V92
	v0.8l-0.2,0.3h-0.5H33l-0.5,0.2l-0.4,0.4L32,94.2c0,0,0,0.6,0,0.6s0,0.8,0,0.8l0,0.4l-0.7,0.1l-0.6,0.4L30,97.2l-1.3,1.2l-1.1,0.9
	l-1.1,0.9c0,0-1.1,0.8-1.1,0.8s-0.7,0.4-0.7,0.4l-0.7,0.4l-0.5,0.1l-0.5,0.1l-0.3,0.1l-0.3,0.2l-0.4,0.3l-0.3,0.3l-0.3,0.3l-0.2,0.1
	h-0.6l-0.7,0.1l-0.2,0.3l0,0.4l-0.4,0.4l-0.2,0.3l-0.2,0.5l0,1.4l0,0.4l1.5,1.6l0.5,0.5l0.3,0.3v0.2l-0.5,0.5l-0.3,0.5l-0.1,0.3
	l-0.1,1.2l-0.2,1l0,1.2l0,1.1l0.1,0.6l0,3l0.1,1.7l0.1,3.2l0,2l0,1.4l-0.1,2.8l-0.1,0.9l-0.3,1.6l-0.3,1.1l-0.7,0.7l-0.7,0.6l-1,0.5
	l-0.7,0.3l-0.7,0.1l-0.5,0.1c0,0-0.8-0.1-0.8-0.1c0,0-0.6,0-0.6,0l-0.7-0.6l-0.4-0.3l-0.3-0.1l-0.4,0l-0.3,0.1l-0.2,0.2l-0.1,0.1
	l-0.2,0c0,0-0.1-0.2-0.2-0.2s-0.2,0-0.2,0l-0.3,0.1l-0.3,0.2l-0.3,0.3l-0.2,0.2l0,0.5l0.1,0.4l0.4,0.2l0.4,0.2l0.3,0.1l0.1,0.2
	l0.2,0.3l0.9,0.7c0,0,0.4,0.2,0.4,0.2c0,0,0.4,0.1,0.5,0.1c0,0,0.4,0.2,0.4,0.2s0.4,0.2,0.4,0.2l1.4,1l0.9,0.6c0,0,0.7,0.6,0.8,0.6
	c0.1,0,1.3,1.1,1.3,1.1c0,0.1,1,0.7,1,0.7s1,0.6,1,0.6l0.6,0.3l1.1,0h1c0,0,0.4-0.2,0.4-0.2s0.6-0.5,0.6-0.5l0.7-0.7l0.2-0.7
	l0.1-0.6l0.1-0.8l-0.1-0.4l0-2.3l0.1-1.1l0.2-0.4l0.3-1.4l0.1-0.3l0.4-1.2l0.4-1.3l1-3.2l0.7-2.1l0.5-1.8l0.3-2.4l0-1.5l-0.1-1.5
	l-0.1-0.3l0-0.2l0.2,0.1l0.3,0.2l0.5,0.1l0.4-0.1l0.3-0.3l0.2-0.4c0,0,0.6-0.7,0.6-0.7c0,0,0.3-0.7,0.3-0.7l0.2-0.6l0.2-0.5l0-0.7
	l0.3-0.1l0.8,0l1.2-0.4c0,0,1.4-0.6,1.5-0.6c0,0,1.8-0.7,1.8-0.7l1-0.4l1-0.4l2.3-1c0,0,1.9-0.9,2-0.9c0,0,1.6-0.8,1.6-0.8
	c0,0,1.1-0.8,1.1-0.8l1.3-1.1l0.7-0.8l0.2-0.4l0.3,0.4l0.4,0.7l1.3,2.3l1.1,1.5l1.5,2.1l1.1,1.2l1.3,1l1.3,0.5l1,0.2l0.9,0.2
	l0.7,0.1l0.4,0.1v0.6v0.6l0.7,0.5l1,0.5l1,0.3l0.8,0.2l1,0l0.4-0.5c0,0,0.3-0.8,0.4-0.8c0,0,0.9-2.4,1-2.6c0-0.1,0.8-2.4,0.8-2.4
	l0.5-0.9l1.6-0.7l2-1.2c0,0,5.2-2.9,5.3-2.9c0.1-0.1,1.6-1.1,1.8-1.1c0.1-0.1,1.6-1,1.6-1s0.7-0.2,0.8-0.2s0.9,0,1,0
	s0.5,0.2,0.5,0.2c0,0,0.4,0.4,0.5,0.4c0.1,0.1,0.6,0.7,0.6,0.7s0.6,0.8,0.7,0.8c0.1,0.1,0.6,0.7,0.6,0.7l0.7,0.9
	c0,0,0.4,0.7,0.5,0.7c0,0,0.3,0.7,0.3,0.8c0,0.1,0.2,0.4,0.2,0.4s0,0.5,0,0.5c0,0-0.2,0.4-0.2,0.4l0,0.6l0,0.6l0.2,0.4
	c0,0,0.3,0.3,0.4,0.3c0,0.1,0.3,0.3,0.4,0.4c0,0,0.4,0.1,0.4,0.1s0.6,0,0.6,0S88,115,88,115s0.2-0.3,0.2-0.4c0-0.1,0-0.5,0-0.5
	s0.1-0.6,0.1-0.7c0-0.1,0-0.6,0-0.6c0,0,0.2-0.6,0.2-0.7c0-0.1,0.2-0.8,0.2-0.9s0.1-0.5,0.1-0.5l0.2-0.4l0.1-0.3l0.2-0.4l0.1-0.1v-2
	l-0.2-0.5l-0.3-0.9l-0.3-0.7l-0.6-1.2l-0.2-0.8l-0.2-0.6l-0.1-0.8l-0.2-0.8l0-0.7l-0.1-0.7l-0.2-1.4l-0.5-0.6l-0.5-0.4l-0.6-0.2
	l-0.4,0.1l-0.6,0.3l-0.6,0.3l-0.6,0.5l-0.8,0.8l-0.8,0.8c0,0-0.4,0.4-0.4,0.5s-0.7,0.6-0.7,0.6s-0.8,0.3-0.8,0.3
	c-0.1,0-1.1,0.4-1.1,0.4l-1.1,0.4l-1.5,0.4l-1.1,0.3l-1.7,0.2c0,0-0.8,0.2-0.8,0.2s-0.8,0.2-0.8,0.2l-0.7,0.1l-0.4,0.1l-0.1,0.1
	l-0.4,0c0,0-0.1-0.2-0.1-0.2s0-0.9,0-0.9l0-1.3l-0.1-0.5l-0.2-0.2l-0.3-0.3l-0.5-0.2l-0.4-0.2l-0.5-0.3l-0.4-0.2L67,99.5l-0.4,0.1
	l-0.2,0.2l-0.1,0.3l-0.2,0l0-0.3L66,99.6l-0.5-0.1l0-1.8l0-1.2c0,0,0-2.3,0-2.3s0-1,0-1l-0.7-2L64.2,90L63,87.9l-0.9-1.4l-0.9-1.4
	l-1.2-2l-0.1-0.6l0.2-0.6l0.3-0.4l0.5-0.6l0.3-0.6l1-1.6l0.5-0.8l0.2-0.9l0-0.5l-0.2-0.5l-0.3-0.5L62,75.2l-3-3.3l-2.1-2.3l-2.1-2.4
	L52.5,65l-0.7-0.7L50.6,63l-0.5-0.6l-0.4-0.3l-0.5-0.6l-0.1-0.7l-0.2-0.5l-1-2.9c0,0-0.6-1.7-0.7-1.8c0,0-0.6-1.7-0.6-1.7l-0.4-1.1
	l-0.2-0.4l0.2-0.1l0.5,0c0,0,0.5-0.1,0.6-0.1c0,0,0.9-0.5,1-0.6c0.1,0,0.8-0.4,0.8-0.4l0.7-0.3c0,0,0.8-0.4,0.8-0.5s0.4-0.4,0.4-0.4
	s0.2-0.4,0.2-0.4l0.1-0.4c0,0,0.2-0.1,0.3-0.1c0.1,0,0.6,0,0.7,0c0,0,0.6-0.1,0.6-0.1l0.3-0.3l0.1-0.4l0-0.8l0-0.6c0,0,0-1.4,0-1.4
	s0.1-0.2,0.1-0.3c0,0,0.4-0.4,0.4-0.4c0.1,0,1-0.4,1-0.4l0.7-0.1c0,0,0.4,0.3,0.4,0.4c0,0.1,0.4,0.7,0.4,0.7s0.4,0.6,0.5,0.7
	s0.5,0.6,0.5,0.7c0,0.1,0.6,0.6,0.6,0.6s0.7,0.8,0.7,0.8s0.6,0.6,0.6,0.6c0,0.1,1.1,1.2,1.1,1.4c0.1,0.1,0.8,1.3,0.8,1.3l0.6,0.8
	c0,0,0,1,0,1s0.2,0.3,0.2,0.3l0.2,0.5l0.1,0.5l-0.6,0.5L61,55.7l-0.3,0.3l-0.3,0.4l0,0.3l0,2.5l0.2,0.3l0.2,0.1l0.1,0.1l0,0.3
	l0.1,0.2l0.4,0.4l0.5,0.1c0,0,0.3,0.3,0.4,0.4c0,0,0.5,0.3,0.5,0.3l1.1,0.3l0.5,0h0.6l0.2-0.1l0.1-0.1l0.1-0.1c0,0,0.6,0,0.7,0
	c0.1,0,0.5,0.2,0.5,0.2l0.4,0l0.4-0.2l0.3-0.3c0,0,0.6-0.8,0.6-0.9c0,0,0.2-0.7,0.2-0.7c0,0,0.2-0.5,0.2-0.5l0-1.7l-0.1-0.6l-1.4-2
	l-0.3-0.4l-0.5-1l-0.3-0.6l-0.2-0.7l-0.5-1.3l-0.2-0.4l-0.5-1.4l-0.3-0.7L64,47.3l-0.2-0.9l-0.5-1.5l-0.4-0.6l-0.4-1.1l-0.1-0.6
	l-0.2-0.4l-0.3-0.7c0,0-0.4-0.9-0.5-1.1c0-0.1-0.5-1-0.5-1l-0.6-0.9l-0.7-0.6l-0.7-0.2L58,37.7l-0.8,0.2l-1.1,0.3l-0.9,0.2l-0.6,0.1
	l-0.7,0.1l-0.5,0.1l-0.3,0.3l-0.7,0.1h-0.8l-1.1,0.1l-1.7,0l-1.4-0.1l-0.6,0l-0.6,0.3l-0.6,0.3l-0.7,0.2l-0.6,0.3l-0.5,0L43.4,40
	l-0.6-0.3l-0.4-0.2l-0.6-0.3l-0.6-0.1h-0.9l-0.7,0l-0.3,0.2L39,39.8l-0.6,0.3L38,40.3L37.6,40l0-0.3l-0.4-1l-0.5-0.4
	c0,0-0.4-0.1-0.5-0.1c0,0-0.3,0.1-0.4,0.2c-0.1,0-0.4,0.2-0.4,0.2c-0.1,0-0.5,0.2-0.5,0.2s-0.3,0-0.3-0.1c0-0.1-0.1-0.3-0.2-0.4
	s-0.2-0.3-0.2-0.4c0-0.1-0.1-0.3-0.1-0.4s0-0.4,0-0.4c0.1-0.1,0.2-0.4,0.2-0.5c0,0,0.7-0.8,0.7-0.8s0.4-0.3,0.4-0.3
	c0.1,0,0.6-0.3,0.7-0.4c0.1,0,0.8-0.4,0.8-0.4l0.8-0.5c0,0,0.3-0.2,0.3-0.3c0,0,0.3-0.3,0.3-0.3s0.4-0.2,0.5-0.2s0.4-0.2,0.5-0.2
	s0.4,0,0.5,0c0.2,0,0.6,0,0.7,0c0.2,0,0.7,0,0.8,0c0.1,0,0-0.3,0-0.3l-0.3-0.2l-0.3-0.1l-0.4-0.2c0,0,0-0.1,0.1-0.2
	c0.1,0,0.4-0.1,0.6-0.1c0.1,0,0.7-0.2,0.8-0.2s0.8-0.3,0.8-0.3c0,0,1.1-0.5,1.2-0.5c0.1,0,0.7-0.4,0.8-0.4c0,0,0.4-0.5,0.4-0.5
	s0.2-0.2-0.1-0.2c-0.3,0-0.9,0-1,0c-0.1,0-0.8,0-0.8,0c0,0-0.9,0-0.9,0s-0.7-0.1-0.1-0.3c0.6-0.1,0.7-0.2,0.8-0.2
	c0.1,0,0.5-0.1,0.8-0.1s0.7,0,0.9,0s0.6,0.1,0.6,0.1c0,0,0.5,0,0.3-0.2c-0.2-0.2-1.2-0.8-1.2-0.8s-0.4-0.3-0.5-0.3
	c0,0-0.4-0.3-0.5-0.4s-0.4-0.2-0.5-0.2s-0.5-0.1-0.5-0.1s-0.3-0.2,0-0.3c0.3-0.1,0.5-0.2,0.5-0.2c0.1,0,0.4-0.2,0.5-0.2
	c0.1,0,0.8-0.1,0.9-0.1c0,0,0.3-0.2,0.3-0.2c0.1,0,0.4,0,0.6,0c0.1,0,1.6,0,1.7,0c0.1,0,1.5,0,1.5,0c0.1,0,0.7-0.1,0.7-0.1
	s0.5,0,0.2-0.3c-0.3-0.3-0.6-0.7-0.6-0.7l-0.9-0.9l-0.6-0.5l-0.8-0.4l-0.8-0.2l-0.1-0.2c0,0-0.1-0.2,0-0.2s0.7-0.1,0.7-0.1
	s0.5-0.2,0.6-0.2c0.1,0,0.8-0.3,0.8-0.3s0.3-0.2,0.3-0.2c0,0,0.6-0.2,0.6-0.2l0.6-0.1c0,0,0.8,0,0.8,0c0.1,0,0.3,0,0.3,0
	s0.6-0.2,0-0.4s-1-0.4-1-0.4l-0.3,0l0-0.3c0,0-0.3,0-0.4,0c-0.1,0-0.9,0-0.9,0s-0.4-0.1,0.1-0.3c0.5-0.2,1.4-0.7,1.4-0.7
	c0,0,1-0.9,1-0.9l0.7-0.9l0.4-0.6c0,0,0.3-0.3-0.3-0.3c-0.6,0-1.1,0-1.1,0l-1.9,0L47,17.5l-0.4-0.2l-0.1-0.5l-0.3-0.4l-0.5-0.8
	l-0.6-0.7l-0.6-0.5L44.1,14l-0.4-0.2c0,0-0.4-0.4,0-0.3c0.4,0.1,0.6,0.1,0.7,0.1c0.1,0,0.5,0,0.6,0c0.1,0,0.7-0.1,0.8-0.1
	c0.1,0,0.6,0,0.7-0.1c0.1,0,0.5-0.1,0.6-0.1c0.1,0,0.5-0.1,0.5-0.2c0.1,0,0.5-0.1,0.5-0.1c0,0,0.7-0.2,0.7-0.2
	c0.1,0,0.3-0.2,0.4-0.2s0.8-0.2,0.1-0.4s-1-0.2-1-0.2c0,0-0.8-0.1-0.8-0.1l-0.6-0.1l-0.7-0.2c0,0-0.5-0.2-0.6-0.3s-0.5-0.2-0.6-0.2
	c-0.1,0-0.7-0.3-0.8-0.3c0,0-0.7-0.3-0.7-0.3l-0.6-0.4c0,0-0.4-0.3,0-0.2s0.7,0.1,0.8,0.1c0.1,0,0.6,0,0.8,0s0.4-0.1,0.5-0.1
	c0.1,0,0.5-0.1,0.7-0.1s0.5,0,0.5,0s0.8-0.2,0-0.3c-0.8-0.2-1.1-0.3-1.1-0.3l-0.5-0.1L44.1,9c0,0-0.3,0-0.4,0c0,0-0.3,0-0.3,0
	l-0.6-0.4l-1-0.3l-0.7-0.5L40,6.3l-1.4-1.7l-1.4-1.3l-1-0.6L35,2l-1.3-0.8l-1-0.4l-0.5-0.1l-0.6,0H31h-0.5h-0.3l-0.3,0.2l-0.7,0.1
	L29,1.2l-0.2,0.1l-0.2-0.2L28.4,1c0,0-0.2-0.2-0.2-0.3c0,0-0.4-0.4-0.4-0.4l-0.3-0.2l-0.3-0.1L26.8,0c0,0-0.7,0-0.8,0s-0.8,0-0.8,0
	s-0.3,0.2-0.4,0.2c0,0-0.4,0.3-0.5,0.3c0,0-0.3,0.2-0.4,0.2c0,0-0.5,0.2-0.5,0.2l-0.9-0.1l-0.2-0.1l-0.5-0.1c0,0-0.9,0.1-0.9,0.1
	s-0.7,0.2-0.7,0.2L19.9,1l-0.7,0.3l-1.6,1l-1.4,1L15.3,4l-0.7,0.8l-0.5,0L13.6,5l-0.5,0.2l-0.5,0.3l-1.1,0.8l-0.7,0.6l-0.5,0.6
	L9.8,8L8.9,9.1L8.8,9.4z"/>
</svg>
