<?xml version="1.0" encoding="utf-8"?>
<!-- Generator: Adobe Illustrator 23.0.0, SVG Export Plug-In . SVG Version: 6.00 Build 0)  -->
<svg version="1.1" id="图层_1" xmlns="http://www.w3.org/2000/svg" xmlns:xlink="http://www.w3.org/1999/xlink" x="0px" y="0px"
	 viewBox="0 0 540 40.2" style="enable-background:new 0 0 540 40.2;" xml:space="preserve">
<style type="text/css">
	.st0{fill:#FFFFFF;}
</style>
<g>
	<path class="st0" d="M12.6,7.8c0.3-1.5,0.5-2.6,0.7-3.4c0.3-1,0.9-1.5,2-1.5c0.5,0,0.9,0.1,1.2,0.2c0.8,0.3,1.1,0.8,1.1,1.5
		c0,0.2,0,0.5-0.1,0.8c-0.1,0.4-0.2,1.1-0.4,1.9c1.8-0.3,3.5-0.6,5.1-1c0.3-0.1,0.6-0.1,0.9-0.1c0.9,0,1.5,0.5,1.8,1.4
		C25,7.7,25.1,8,25.1,8.2c0,1-0.6,1.6-1.8,2c-1.6,0.4-3.9,0.8-6.8,1.2c-0.1,1-0.3,2.3-0.4,3.7c1.5-0.4,3-0.7,4.6-0.8
		c0-0.2,0.1-0.3,0.1-0.5c0.1-0.6,0.3-0.9,0.5-1.1c0.3-0.3,0.7-0.5,1.3-0.5c1.6,0,2.4,0.6,2.4,1.8c0,0.2,0,0.4-0.1,0.7
		c1.9,0.5,3.4,1.3,4.6,2.3c1.9,1.7,2.9,3.8,2.9,6.4c0,3.9-1.8,6.7-5.4,8.7c-1.1,0.6-2.3,1-3.5,1.3c-0.5,0.1-1,0.2-1.3,0.2
		c-1,0-1.6-0.5-1.6-1.6c0-0.7,0.5-1.2,1.4-1.6c2-0.8,3.4-1.7,4.3-2.7c1-1.2,1.5-2.7,1.5-4.5c0-2.8-1.4-4.6-4.1-5.4
		c-2,4.3-4.4,7.6-7.2,9.8l0,0.1c0.2,0.8,0.3,1.3,0.4,1.5c0.1,0.4,0.2,0.8,0.2,1.2c0,0.9-0.4,1.5-1.2,1.8c-0.4,0.2-0.8,0.2-1.1,0.2
		c-0.9,0-1.5-0.5-1.8-1.4c-0.1-0.4-0.2-0.6-0.2-0.7c-2,1.2-3.6,1.7-4.8,1.7c-1.3,0-2.2-0.5-2.9-1.6c-0.6-0.9-0.9-2.1-0.9-3.7
		c0-3.8,2.5-7.1,7.6-10c0-1.3,0.2-2.9,0.3-5C10.3,12,9.1,12,8.4,12c-0.6,0-1.1-0.1-1.5-0.4c-0.5-0.4-0.7-0.9-0.7-1.6
		c0-0.9,0.3-1.5,1-1.8C7.6,8.1,7.9,8,8.3,8h0.3C9.6,8,11,7.9,12.6,7.8z M11.6,21.1c-2.3,1.8-3.4,3.5-3.4,5.2c0,1,0.3,1.5,0.8,1.5
		c0.6,0,1.6-0.5,3-1.4C11.8,24.6,11.6,22.8,11.6,21.1z M19.4,17.7c-1.2,0.2-2.4,0.5-3.6,1c0,0.5,0,0.9,0,1.2c0,0.9,0,1.9,0.1,3.1
		C17.3,21.5,18.5,19.7,19.4,17.7z"/>
	<path class="st0" d="M45.9,8.7c0.6-1.5,1.1-3,1.5-4.3c0.4-1.1,1-1.7,2-1.7c0.3,0,0.6,0.1,0.9,0.2c0.9,0.3,1.3,0.9,1.3,1.8
		c0,0.6-0.4,1.8-1.1,3.4c0.3-0.1,0.8-0.2,1.4-0.3c0.2,0,0.4-0.1,0.7-0.1c0.2,0,0.4-0.1,0.6-0.1c0.8,0,1.3,0.3,1.6,1
		c0.1,0.3,0.2,0.7,0.2,1.1c0,1-0.5,1.6-1.4,1.9c-0.8,0.2-2.4,0.5-4.7,0.8c-1.7,4-3.3,7.3-4.9,9.9c-0.3,0.4-0.4,0.7-0.5,0.8
		c-0.4,0.6-1,0.8-1.7,0.8c-0.4,0-0.8-0.1-1.1-0.3c-0.7-0.4-1-1-1-1.7c0-0.4,0.2-1,0.7-1.7c1.1-1.7,2.4-4.1,3.8-7.2
		c-1.5,0.2-2.5,0.3-3,0.3c-0.6,0-1-0.2-1.3-0.5c-0.3-0.4-0.5-0.8-0.5-1.4c0-1.3,0.8-2,2.3-2C42.8,9,44.1,8.9,45.9,8.7z M55.1,23
		v-3.3c0-0.6,0-1.2,0.1-1.7c0.1-1.2,0.8-1.8,1.9-1.8c0.5,0,1,0.1,1.4,0.4c0.5,0.4,0.7,0.8,0.7,1.5c0,0.1,0,0.2,0,0.4
		c0,0.5-0.1,1-0.1,1.3v4.1c2.1,0.7,3.9,1.5,5.4,2.4c0.8,0.5,1.2,1.2,1.2,2.1c0,0.4-0.1,0.7-0.3,1.1c-0.4,0.7-0.9,1-1.6,1
		c-0.4,0-0.9-0.2-1.5-0.6c-0.8-0.6-1.9-1.3-3.3-2v0.5c0,1.3-0.3,2.3-1,3.1c-0.9,1.1-2.3,1.7-4,1.7c-2,0-3.8-0.7-5.2-2
		C47.6,30,47,28.7,47,27.2c0-1.2,0.5-2.2,1.6-3c1.2-0.9,2.8-1.4,4.7-1.4C53.7,22.9,54.3,22.9,55.1,23z M55.1,26.5
		c-0.9-0.1-1.6-0.2-2-0.2c-0.8,0-1.5,0.2-1.9,0.5c-0.2,0.2-0.4,0.4-0.4,0.7c0,0.4,0.2,0.8,0.5,1.1c0.6,0.6,1.4,0.9,2.4,0.9
		c0.9,0,1.3-0.5,1.3-1.4V26.5z M63,13.8c-0.6-0.9-1.7-1.8-3.2-2.9c-0.5-0.3-0.7-0.7-0.7-1.2c0-0.9,0.5-1.3,1.5-1.3
		c1,0,2.5,0.7,4.4,2.1c2,1.4,3,2.8,3,4c0,1.2-0.8,1.8-2.4,1.9c-0.5,0-1.4,0.1-2.6,0.3c-0.2,0-0.3,0-0.4,0c-0.8,0-1.3-0.3-1.5-0.8
		c-0.1-0.2-0.1-0.3-0.1-0.5c0-0.5,0.2-0.8,0.6-1C62,14.1,62.5,13.9,63,13.8z"/>
	<path class="st0" d="M83.4,9.6c0.5-1.8,0.9-3.4,1.2-4.8c0.2-1.1,0.9-1.7,2.1-1.7C88.2,3.2,89,3.8,89,5c0,0.6-0.3,2-0.9,4.1
		c1.4-0.2,2.6-0.4,3.5-0.7c0.3-0.1,0.6-0.1,0.8-0.1c0.7,0,1.3,0.3,1.5,0.9c0.2,0.4,0.3,0.8,0.3,1.2c0,1-0.5,1.6-1.6,1.9
		c-1.4,0.4-3.3,0.7-5.9,1l-0.1,0.4l-0.7,2c-2.3,6.9-4,11.7-5.2,14.2c-0.3,0.6-0.4,0.9-0.5,1c-0.4,0.7-1.1,1.1-2,1.1
		c-0.5,0-0.9-0.1-1.3-0.4c-0.7-0.4-1-0.9-1-1.7c0-0.4,0.2-1,0.6-1.8c1.1-2.3,2.4-5.4,3.8-9.2c0.3-0.8,0.5-1.5,0.7-2.1
		c0.5-1.5,0.8-2.5,0.9-2.9c-1.9,0.2-3.1,0.3-3.8,0.3c-0.7,0-1.2-0.3-1.5-0.8c-0.2-0.3-0.4-0.8-0.4-1.3c0-1.3,0.7-2.1,2.2-2.1
		C79.7,9.9,81.3,9.8,83.4,9.6z M90.6,24.8c0.6,0,1,0.2,1.5,0.7c1.3,1.5,3.8,2.3,7.5,2.3c0.2,0,0.5,0,0.6,0c0.2,0,0.4,0,0.4,0
		c0.6,0,1,0.1,1.4,0.4c0.5,0.4,0.8,1,0.8,1.7c0,0.6-0.2,1.2-0.6,1.6c-0.4,0.5-1.1,0.7-2,0.7c-2.5,0-4.9-0.4-6.9-1.2
		c-1.9-0.7-3.2-1.8-3.9-3.1c-0.3-0.5-0.4-0.9-0.4-1.3c0-0.5,0.2-0.9,0.5-1.2C89.8,25,90.1,24.8,90.6,24.8z M98.2,15.3
		c1.7,0,2.7,0.1,3.2,0.2c1,0.3,1.5,1,1.5,2c0,0.5-0.2,1-0.5,1.3c-0.4,0.4-0.9,0.6-1.5,0.6c-0.1,0-0.2,0-0.5,0
		c-1.1-0.1-1.9-0.1-2.5-0.1c-1.5,0-3.4,0.2-5.7,0.7C91.9,20,91.6,20,91.4,20c-0.8,0-1.3-0.3-1.6-0.9c-0.1-0.3-0.2-0.5-0.2-0.8
		c0-0.7,0.4-1.3,1.2-1.7c0.9-0.4,2.1-0.8,3.6-1C95.7,15.4,97,15.3,98.2,15.3z"/>
	<path class="st0" d="M122.3,11.4h0.7c4,0,6,1.8,6,5.3c0,2.4-0.5,5.2-1.4,8.4c-0.8,2.8-1.7,4.8-2.7,6c-0.9,1.1-1.9,1.7-3.1,1.7
		c-1.3,0-2.6-0.9-4-2.6c-0.6-0.7-0.9-1.3-0.9-1.8c0-0.3,0.1-0.6,0.3-0.8c0.2-0.3,0.6-0.4,0.9-0.4c0.3,0,0.7,0.2,1.1,0.5
		c0.8,0.6,1.3,0.9,1.6,0.9c0.4,0,1-0.6,1.5-1.8c0.7-1.4,1.2-3.1,1.7-5.2c0.4-1.7,0.6-3.1,0.6-4.3c0-1.2-0.7-1.9-2-1.9
		c-0.3,0-0.7,0-1,0s-0.7,0-0.9,0c-1.6,4.2-3.3,8-5.2,11.3c-0.4,0.7-0.7,1.2-0.8,1.3c-0.5,0.7-1.1,1.1-1.9,1.1
		c-0.4,0-0.8-0.1-1.2-0.4c-0.6-0.5-0.9-1.1-0.9-1.8c0-0.4,0.2-1,0.7-1.8c1.7-2.9,3.2-6,4.6-9.3c-1.5,0.2-2.5,0.3-3.1,0.4
		c-0.2,0-0.4,0.1-0.6,0.1c-0.5,0-0.9-0.2-1.2-0.5c-0.3-0.4-0.5-0.9-0.5-1.5c0-1.2,0.7-1.9,2.1-2c1.8-0.2,3.4-0.4,4.9-0.5
		c0.9-2.5,1.6-4.6,2.1-6.4c0.3-1.1,1-1.7,2-1.7c0.5,0,0.9,0.1,1.4,0.4c0.6,0.4,0.9,0.8,0.9,1.5C124.1,6,123.5,8,122.3,11.4z
		 M133.1,10.3c0.9,0,2.2,1,4,3c2.6,2.9,3.9,5,3.9,6.4c0,0.8-0.4,1.4-1.1,1.9c-0.4,0.2-0.8,0.4-1.3,0.4c-0.7,0-1.3-0.3-1.8-0.9
		c-0.1-0.1-0.3-0.5-0.5-1c-1-2.1-2.5-4.4-4.4-6.9c-0.3-0.4-0.5-0.8-0.5-1.2c0-0.5,0.2-0.9,0.5-1.2C132.3,10.5,132.7,10.3,133.1,10.3
		z M135.4,5.5c0.7,0,1.7,0.7,3.2,2c1.2,1.1,1.8,2,1.8,2.6c0,0.5-0.2,0.8-0.6,1.2c-0.3,0.3-0.7,0.4-1.1,0.4c-0.5,0-1-0.3-1.4-0.9
		c-0.7-1.1-1.5-2.2-2.5-3.2c-0.3-0.3-0.5-0.7-0.5-1.1C134.4,5.8,134.7,5.5,135.4,5.5z M138.5,2.6c0.7,0,1.7,0.6,3,1.7
		c1.2,1,1.8,1.9,1.8,2.6c0,0.5-0.2,0.9-0.6,1.2c-0.3,0.2-0.6,0.3-0.9,0.3c-0.5,0-0.9-0.3-1.3-0.9c-0.7-1-1.5-2-2.5-2.9
		c-0.4-0.4-0.6-0.7-0.6-1.1c0-0.2,0.1-0.5,0.3-0.7S138.2,2.6,138.5,2.6z"/>
	<path class="st0" d="M150.3,8.1c1,0,1.7,0.4,2,1.1c0.2,0.3,0.2,0.8,0.2,1.5c0,4.7,0.6,8.4,1.6,11c0.4,1,0.9,2,1.5,2.9
		c0.1,0.2,0.3,0.3,0.4,0.3s0.3-0.2,0.5-0.6c0.7-1.3,1.2-2.3,1.5-2.8c0.4-0.6,0.8-0.8,1.4-0.8c0.3,0,0.6,0.1,0.8,0.2
		c0.6,0.3,0.9,0.8,0.9,1.4c0,0.3-0.1,0.8-0.4,1.4c-0.8,2-1.4,3.6-1.9,5c-0.5,1.4-1.3,2.1-2.5,2.1c-1.6,0-3.3-1.4-4.9-4.3
		c-2.3-4-3.4-9.3-3.4-15.9c0-1,0.3-1.7,0.9-2.1C149.4,8.3,149.8,8.1,150.3,8.1z M168.3,8.4c0.7,0,1.3,0.3,2,1
		c1.1,1.2,2.2,2.6,3.3,4.3c2,3.1,3,5.3,3,6.6c0,0.9-0.4,1.5-1.2,2c-0.4,0.2-0.9,0.4-1.4,0.4c-0.7,0-1.3-0.3-1.7-0.8
		c-0.2-0.2-0.4-0.7-0.6-1.5c-0.9-2.8-2.5-5.8-4.7-8.9c-0.3-0.5-0.5-0.9-0.5-1.3c0-0.4,0.1-0.8,0.4-1.1
		C167.4,8.6,167.8,8.4,168.3,8.4z"/>
	<path class="st0" d="M189.9,8.7c0.6-1.5,1.1-3,1.5-4.3c0.4-1.1,1-1.7,2-1.7c0.3,0,0.6,0.1,0.9,0.2c0.9,0.3,1.3,0.9,1.3,1.8
		c0,0.6-0.4,1.8-1.1,3.4c0.3-0.1,0.8-0.2,1.4-0.3c0.2,0,0.4-0.1,0.7-0.1c0.2,0,0.4-0.1,0.6-0.1c0.8,0,1.3,0.3,1.6,1
		c0.1,0.3,0.2,0.7,0.2,1.1c0,1-0.5,1.6-1.4,1.9c-0.8,0.2-2.4,0.5-4.7,0.8c-1.7,4-3.3,7.3-4.9,9.9c-0.3,0.4-0.4,0.7-0.5,0.8
		c-0.4,0.6-1,0.8-1.7,0.8c-0.4,0-0.8-0.1-1.1-0.3c-0.7-0.4-1-1-1-1.7c0-0.4,0.2-1,0.7-1.7c1.1-1.7,2.4-4.1,3.8-7.2
		c-1.5,0.2-2.5,0.3-3,0.3c-0.6,0-1-0.2-1.3-0.5c-0.3-0.4-0.5-0.8-0.5-1.4c0-1.3,0.8-2,2.3-2C186.8,9,188.1,8.9,189.9,8.7z M199.1,23
		v-3.3c0-0.6,0-1.2,0.1-1.7c0.1-1.2,0.8-1.8,1.9-1.8c0.5,0,1,0.1,1.4,0.4c0.5,0.4,0.7,0.8,0.7,1.5c0,0.1,0,0.2,0,0.4
		c0,0.5-0.1,1-0.1,1.3v4.1c2.1,0.7,3.9,1.5,5.4,2.4c0.8,0.5,1.2,1.2,1.2,2.1c0,0.4-0.1,0.7-0.3,1.1c-0.4,0.7-0.9,1-1.6,1
		c-0.4,0-0.9-0.2-1.5-0.6c-0.8-0.6-1.9-1.3-3.3-2v0.5c0,1.3-0.3,2.3-1,3.1c-0.9,1.1-2.3,1.7-4,1.7c-2,0-3.8-0.7-5.2-2
		c-1.2-1.1-1.8-2.4-1.8-3.8c0-1.2,0.5-2.2,1.6-3c1.2-0.9,2.8-1.4,4.7-1.4C197.7,22.9,198.3,22.9,199.1,23z M199.1,26.5
		c-0.9-0.1-1.6-0.2-2-0.2c-0.8,0-1.5,0.2-1.9,0.5c-0.2,0.2-0.4,0.4-0.4,0.7c0,0.4,0.2,0.8,0.5,1.1c0.6,0.6,1.4,0.9,2.4,0.9
		c0.9,0,1.3-0.5,1.3-1.4V26.5z M207,13.8c-0.6-0.9-1.7-1.8-3.2-2.9c-0.5-0.3-0.7-0.7-0.7-1.2c0-0.9,0.5-1.3,1.5-1.3
		c1,0,2.5,0.7,4.4,2.1c2,1.4,3,2.8,3,4c0,1.2-0.8,1.8-2.4,1.9c-0.5,0-1.4,0.1-2.6,0.3c-0.2,0-0.3,0-0.4,0c-0.8,0-1.3-0.3-1.5-0.8
		c-0.1-0.2-0.1-0.3-0.1-0.5c0-0.5,0.2-0.8,0.6-1C206,14.1,206.5,13.9,207,13.8z"/>
	<path class="st0" d="M222.3,8.1c1,0,1.7,0.4,2,1.1c0.2,0.3,0.2,0.8,0.2,1.5c0,4.7,0.6,8.4,1.6,11c0.4,1,0.9,2,1.5,2.9
		c0.1,0.2,0.3,0.3,0.4,0.3s0.3-0.2,0.5-0.6c0.7-1.3,1.2-2.3,1.5-2.8c0.4-0.6,0.8-0.8,1.4-0.8c0.3,0,0.6,0.1,0.8,0.2
		c0.6,0.3,0.9,0.8,0.9,1.4c0,0.3-0.1,0.8-0.4,1.4c-0.8,2-1.4,3.6-1.9,5c-0.5,1.4-1.3,2.1-2.5,2.1c-1.6,0-3.3-1.4-4.9-4.3
		c-2.3-4-3.4-9.3-3.4-15.9c0-1,0.3-1.7,0.9-2.1C221.4,8.3,221.8,8.1,222.3,8.1z M240.3,8.4c0.7,0,1.3,0.3,2,1
		c1.1,1.2,2.2,2.6,3.3,4.3c2,3.1,3,5.3,3,6.6c0,0.9-0.4,1.5-1.2,2c-0.4,0.2-0.9,0.4-1.4,0.4c-0.7,0-1.3-0.3-1.7-0.8
		c-0.2-0.2-0.4-0.7-0.6-1.5c-0.9-2.8-2.5-5.8-4.7-8.9c-0.3-0.5-0.5-0.9-0.5-1.3c0-0.4,0.1-0.8,0.4-1.1
		C239.4,8.6,239.8,8.4,240.3,8.4z"/>
	<path class="st0" d="M279.5,28.5l-19.3,0.8c-0.1,1.2-0.8,1.8-2.3,1.8c-1.4,0-2.1-0.6-2.1-1.9l-0.8-20c0-0.2,0-0.2,0-0.3
		c0-1.1,0.8-1.7,2.3-1.7c1.2,0,1.9,0.4,2.2,1.2l21.5-1.6c0.2,0,0.4,0,0.6,0c2.4,0,3.7,1.2,3.7,3.7c0,0.1,0,0.3,0,0.5l-1.1,18.3
		c-0.1,1.3-0.8,1.9-2.3,1.9s-2.2-0.7-2.2-2c0,0,0-0.1,0-0.2L279.5,28.5z M279.7,24.7l0.7-12.8c0-0.1,0-0.1,0-0.1
		c0-0.6-0.3-0.9-0.8-0.9c-0.1,0-0.1,0-0.2,0l-4.8,0.3v4.9c0,0.4,0.1,0.6,0.2,0.7c0.1,0.1,0.4,0.2,0.9,0.2c0.4,0,1.1-0.1,1.9-0.3
		c0.3-0.1,0.5-0.1,0.7-0.1c0.4,0,0.8,0.2,1.1,0.5c0.4,0.4,0.5,0.8,0.5,1.4c0,1.1-0.5,1.8-1.5,2c-0.7,0.2-1.9,0.3-3.4,0.3
		c-1.6,0-2.7-0.2-3.3-0.5c-0.8-0.5-1.1-1.3-1.1-2.7v-6.1l-4.3,0.3c1,0.3,1.5,0.9,1.5,1.9c0,1.6-0.6,3.4-1.7,5.2
		c-0.8,1.4-1.8,2.5-2.9,3.3c-0.6,0.4-1.1,0.6-1.5,0.6c-0.3,0-0.7-0.1-0.9-0.4c-0.4-0.3-0.5-0.7-0.5-1.1c0-0.4,0.2-0.8,0.5-1.2
		c1.5-1.8,2.4-4,2.8-6.6c0.1-0.9,0.5-1.5,1.2-1.8l-5.2,0.4l0.5,13.3L279.7,24.7z"/>
	<path class="st0" d="M311.2,22.1L300.5,23c-0.6,3.6-1.7,6.6-3.4,9.1c-0.4,0.6-0.7,0.9-0.9,1.1s-0.6,0.3-1,0.3c-0.5,0-1-0.2-1.4-0.5
		c-0.4-0.3-0.6-0.7-0.6-1.1c0-0.4,0.2-0.8,0.5-1.4c1.1-2,1.8-4.3,2.3-6.7c0.4-2.4,0.6-5.3,0.6-8.6s-0.1-6.5-0.4-9.4
		c0-0.2,0-0.4,0-0.5c0-0.8,0.3-1.4,1-1.7c0.4-0.2,0.8-0.2,1.2-0.2c1.1,0,1.8,0.4,2.1,1.1l10.9-1.2c0.3,0,0.7-0.1,1-0.1
		c2.2,0,3.3,1.1,3.3,3.3v24c0,0.8-0.1,1.5-0.4,2.1c-0.5,1.1-1.4,1.7-2.5,1.7c-1.3,0-2.9-0.5-4.9-1.5c-1.2-0.6-1.9-1-2.3-1.3
		c-0.4-0.4-0.6-0.7-0.6-1.2c0-0.3,0.1-0.6,0.3-0.9c0.2-0.3,0.5-0.4,0.9-0.4c0.2,0,0.7,0.1,1.4,0.2c1,0.2,1.9,0.4,2.7,0.4
		c0.4,0,0.7-0.1,0.8-0.4c0-0.2,0.1-0.4,0.1-0.6V22.1z M311.2,10.9v-3c0-0.5-0.2-0.7-0.7-0.7c-0.1,0-0.2,0-0.2,0l-9.5,1.1
		c0,1.4,0.1,2.5,0.1,3.3l0,0.4L311.2,10.9z M311.2,18.4v-3.8l-10.2,1c0,1,0,2.3-0.1,3.8L311.2,18.4z"/>
	<path class="st0" d="M328.2,24c0.9,0,2.3,1,4.3,2.9c2.1,2.1,3.2,3.7,3.2,4.7c0,0.7-0.3,1.4-0.9,1.9c-0.5,0.4-1,0.6-1.7,0.6
		c-0.8,0-1.5-0.5-2.1-1.4c-1-1.6-2.4-3.4-4-5.5c-0.4-0.5-0.6-1-0.6-1.5c0-0.5,0.2-0.9,0.5-1.3C327.3,24.2,327.7,24,328.2,24z"/>
	<path class="st0" d="M381.6,20.6c4.3,3.6,8.3,6.2,12,7.7c0.9,0.4,1.3,0.8,1.3,1.2c0,0.3-0.3,0.6-0.9,0.8c-1.8,0.6-3.2,0.9-4.1,0.9
		c-0.6,0-1.2-0.2-1.8-0.6c-2.3-1.4-5-4-8.2-7.7v9.9c0,0.4-0.1,0.8-0.4,1.1c-0.4,0.5-1,0.7-1.8,0.7c-0.9,0-1.6-0.3-2-1
		c-0.2-0.3-0.2-0.6-0.2-0.9V24c-2.3,2.4-5.2,4.6-8.6,6.6c-1.7,1-2.9,1.5-3.5,1.5c-0.5,0-0.9-0.2-1.2-0.6c-0.2-0.3-0.3-0.6-0.3-0.9
		c0-0.5,0.2-0.9,0.6-1.2c0.1-0.1,0.5-0.3,1.3-0.8c1.9-1.1,4.1-2.8,6.5-4.9c0.9-0.8,1.8-1.7,2.6-2.5l-8.4,0.5c-0.1,0-0.1,0-0.2,0
		c-1.1,0-1.6-0.6-1.6-1.8s0.5-1.8,1.6-1.9l11.4-0.7v-6.9l-8.8,0.6c-0.1,0-0.1,0-0.1,0c-0.6,0-1-0.2-1.3-0.6
		c-0.2-0.3-0.4-0.8-0.4-1.3c0-1.1,0.5-1.8,1.6-1.8l9-0.6V3.2c0-0.6,0.2-1.1,0.6-1.4c0.4-0.3,0.9-0.5,1.6-0.5c1,0,1.7,0.4,2,1.1
		c0.1,0.2,0.2,0.5,0.2,0.8v3.2l8.5-0.6c0.1,0,0.1,0,0.2,0c1.1,0,1.7,0.6,1.7,1.9c0,1.1-0.5,1.8-1.6,1.8l-8.8,0.6V17l3.1-0.2
		c-0.3-0.2-0.5-0.5-0.5-0.8c0-0.3,0.1-0.8,0.4-1.4c0.4-0.9,0.8-1.9,1.1-3c0.3-1.1,0.9-1.6,2-1.6c0.5,0,0.9,0.1,1.4,0.4
		c0.6,0.4,0.9,0.9,0.9,1.5c0,0.7-0.4,1.7-1.2,2.9c-0.7,0.9-1.2,1.6-1.6,1.9l6.4-0.4c0.1,0,0.1,0,0.1,0c1.1,0,1.6,0.6,1.6,1.8
		c0,1.2-0.5,1.9-1.6,1.9L381.6,20.6z M369,11.1c0.6,0,1.4,0.5,2.3,1.5c1.1,1.1,1.6,2,1.6,2.7c0,0.6-0.3,1-0.8,1.4
		c-0.5,0.3-0.9,0.5-1.5,0.5c-0.9,0-1.5-0.5-1.8-1.5c-0.2-0.7-0.6-1.5-1.1-2.4c-0.2-0.3-0.3-0.6-0.3-0.9c0-0.4,0.2-0.8,0.6-1
		C368.3,11.2,368.6,11.1,369,11.1z"/>
	<path class="st0" d="M412.9,7.6V4.2c0-0.6,0.2-1,0.6-1.3c0.4-0.3,0.8-0.4,1.4-0.4c1.4,0,2.1,0.6,2.1,1.8v3.2c1.5-0.1,2.8-0.1,4-0.1
		c1.7,0,2.5,0.6,2.5,1.9c0,0.9-0.4,1.5-1.1,1.8c-0.3,0.1-0.7,0.2-1.3,0.2c-1.1,0-2.3,0-3.8,0.1l-0.4,0v4c1-0.1,1.9-0.2,2.8-0.5
		c0.3-0.1,0.5-0.1,0.8-0.1c1.2,0,1.8,0.7,1.8,2.1c0,0.9-0.5,1.5-1.6,1.8c-0.7,0.2-2,0.4-3.8,0.6v5.5c2.8,1,4.9,1.9,6.3,2.7
		c1,0.6,1.5,1.3,1.5,2.1c0,0.4-0.1,0.7-0.3,1.1c-0.3,0.7-0.9,1.1-1.7,1.1c-0.5,0-1-0.2-1.6-0.6c-1.3-0.9-2.8-1.7-4.5-2.5
		c-0.5,1.7-1.5,2.9-3,3.5c-1.1,0.5-2.5,0.7-4.3,0.7c-1.9,0-3.6-0.5-4.9-1.4c-1.5-1-2.2-2.3-2.2-3.8c0-1.1,0.5-2.1,1.6-2.9
		c1.3-1,3.1-1.5,5.3-1.5c1.1,0,2.3,0.1,3.6,0.4v-4c-1,0-1.8,0.1-2.6,0.1c-1.7,0-2.9-0.1-3.6-0.2c-1.1-0.2-1.7-0.8-1.7-1.9
		c0-1.3,0.6-1.9,1.8-1.9c0.1,0,0.4,0,0.7,0c0.8,0.1,1.8,0.1,3,0.1c0.8,0,1.6,0,2.4-0.1v-4.2c-2.6,0.2-5,0.4-7.2,0.7
		c-0.2,0-0.4,0.1-0.6,0.1c-1.4,0-2.1-0.7-2.1-2.1c0-1,0.6-1.6,1.7-1.8C406.5,8.1,409.3,7.8,412.9,7.6z M412.9,27.1
		c-1.5-0.4-2.8-0.7-3.8-0.7c-0.9,0-1.7,0.2-2.3,0.5c-0.4,0.2-0.6,0.5-0.6,0.8c0,0.4,0.2,0.7,0.7,1c0.7,0.5,1.6,0.7,2.6,0.7
		c1.7,0,2.8-0.5,3.1-1.6C412.8,27.7,412.8,27.4,412.9,27.1z"/>
	<path class="st0" d="M444.3,3.8c1.5,0,2.3,0.8,2.3,2.4c0,0.4-0.1,2.2-0.3,5.2l-0.2,2.8c-0.2,3.7-0.3,6.5-0.3,8.4
		c0,3.6,1.5,5.3,4.4,5.3c1.9,0,3.6-0.5,4.9-1.6c1.5-1.1,2.6-2.5,3.4-4.2c0.4-0.7,0.9-1.1,1.7-1.1c0.5,0,0.9,0.2,1.3,0.5
		c0.3,0.3,0.5,0.7,0.5,1.2c0,0.7-0.4,1.7-1.2,3.1c-2.5,4.3-6.1,6.5-10.7,6.5c-3.4,0-5.9-1.2-7.3-3.7c-0.9-1.5-1.4-3.5-1.4-5.8
		c0-1.9,0.1-5.1,0.4-9.5c0.2-2.7,0.2-4.5,0.2-5.2l0-2C442,4.6,442.8,3.8,444.3,3.8z"/>
	<path class="st0" d="M479.4,9.6c0.5-1.8,0.9-3.4,1.2-4.8c0.2-1.1,0.9-1.7,2.1-1.7c1.5,0,2.3,0.6,2.3,1.8c0,0.6-0.3,2-0.9,4.1
		c1.4-0.2,2.6-0.4,3.5-0.7c0.3-0.1,0.6-0.1,0.8-0.1c0.7,0,1.3,0.3,1.5,0.9c0.2,0.4,0.3,0.8,0.3,1.2c0,1-0.5,1.6-1.6,1.9
		c-1.4,0.4-3.3,0.7-5.9,1l-0.1,0.4l-0.7,2c-2.3,6.9-4,11.7-5.2,14.2c-0.3,0.6-0.4,0.9-0.5,1c-0.4,0.7-1.1,1.1-2,1.1
		c-0.5,0-0.9-0.1-1.3-0.4c-0.7-0.4-1-0.9-1-1.7c0-0.4,0.2-1,0.6-1.8c1.1-2.3,2.4-5.4,3.8-9.2c0.3-0.8,0.5-1.5,0.7-2.1
		c0.5-1.5,0.8-2.5,0.9-2.9c-1.9,0.2-3.1,0.3-3.8,0.3c-0.7,0-1.2-0.3-1.5-0.8c-0.2-0.3-0.4-0.8-0.4-1.3c0-1.3,0.7-2.1,2.2-2.1
		C475.7,9.9,477.3,9.8,479.4,9.6z M486.6,24.8c0.6,0,1,0.2,1.5,0.7c1.3,1.5,3.8,2.3,7.5,2.3c0.2,0,0.5,0,0.6,0c0.2,0,0.4,0,0.4,0
		c0.6,0,1,0.1,1.4,0.4c0.5,0.4,0.8,1,0.8,1.7c0,0.6-0.2,1.2-0.6,1.6c-0.4,0.5-1.1,0.7-2,0.7c-2.5,0-4.9-0.4-6.9-1.2
		c-1.9-0.7-3.2-1.8-3.9-3.1c-0.3-0.5-0.4-0.9-0.4-1.3c0-0.5,0.2-0.9,0.5-1.2C485.8,25,486.1,24.8,486.6,24.8z M494.2,15.3
		c1.7,0,2.7,0.1,3.2,0.2c1,0.3,1.5,1,1.5,2c0,0.5-0.2,1-0.5,1.3c-0.4,0.4-0.9,0.6-1.5,0.6c-0.1,0-0.2,0-0.5,0
		c-1.1-0.1-1.9-0.1-2.5-0.1c-1.5,0-3.4,0.2-5.7,0.7c-0.3,0.1-0.5,0.1-0.7,0.1c-0.8,0-1.3-0.3-1.6-0.9c-0.1-0.3-0.2-0.5-0.2-0.8
		c0-0.7,0.4-1.3,1.2-1.7c0.9-0.4,2.1-0.8,3.6-1C491.7,15.4,493,15.3,494.2,15.3z"/>
	<path class="st0" d="M511.9,23c0.9,0,1.8,0.2,2.6,0.7c0.8,0.4,1.4,1,1.9,1.7c0.7,0.9,1,2,1,3.1c0,1-0.3,1.9-0.8,2.8
		c-0.5,0.8-1.2,1.5-2,2s-1.8,0.7-2.7,0.7c-1.1,0-2.1-0.3-3-0.9c-1.6-1.1-2.5-2.6-2.5-4.6c0-0.9,0.2-1.7,0.7-2.5
		c0.8-1.5,2-2.4,3.6-2.8C511.1,23,511.5,23,511.9,23z M511.9,25.9c-0.7,0-1.3,0.3-1.9,0.8c-0.5,0.5-0.7,1.1-0.7,1.8
		c0,0.5,0.1,0.9,0.4,1.4c0.5,0.8,1.2,1.2,2.2,1.2c0.6,0,1.2-0.2,1.7-0.6c0.6-0.5,0.9-1.2,0.9-2c0-0.9-0.4-1.6-1.1-2.1
		C512.9,26.1,512.4,25.9,511.9,25.9z"/>
</g>
<g>
</g>
<g>
</g>
<g>
</g>
<g>
</g>
<g>
</g>
</svg>
