<?xml version="1.0" encoding="utf-8"?>
<!-- Generator: Adobe Illustrator 23.0.0, SVG Export Plug-In . SVG Version: 6.00 Build 0)  -->
<svg version="1.1" id="图层_2" xmlns="http://www.w3.org/2000/svg" xmlns:xlink="http://www.w3.org/1999/xlink" x="0px" y="0px"
	 viewBox="0 0 482.3 309.7" style="enable-background:new 0 0 482.3 309.7;" xml:space="preserve">
<style type="text/css">
	.st0{fill:#FFFFFF;}
</style>
<path class="st0" d="M149.3,7.3l-0.9-1.4L147.9,5l-1-0.5L146,3.9l-0.9-0.4l-0.9-0.4h-1.1h-0.6h-0.4l-0.9,0.1l-0.7,0.2l-0.8,0.1
	L139,4l-0.5,0.4l-0.8,0.4l-0.8,0.6L136,6.1l-0.5,0.4L135.2,7l-0.5,0.5L134,8.1l-0.6,0.5L133,9.1l-0.8,0.7l-0.6,0.7l-0.4,0.5
	l-0.6,0.6l-0.5,0.6l-0.6,0.8l-0.6,0.8l-0.5,0.7l-0.6,0.9l-0.7,1.1l-0.4,0.9l-0.5,0.8l-0.3,0.7l-0.4,1l-0.3,0.8l-0.3,0.8l-0.3,1
	l-0.3,1l-0.3,0.9l-0.2,0.8l-0.2,0.8l-0.3,1.3l-0.3,1.1l-0.3,1.2l-0.2,1.1l0.4-0.6l0.5-0.7l0.6-0.7l0.6-0.7l0.9-0.9l1.2-0.9l1.2-0.7
	l0.9-0.4l0.8-0.4l0.7-0.5l1.1-0.5l0.6-0.2l0.7-0.4l0.5-0.2l0.6,0l0.5-0.2l0.4-0.2l0.7-0.1l0.5,0l0.9-0.3l0.7-0.3l0.4-0.2l0.3-0.1
	l0.6,0l0.5-0.3l0.3-0.1l0.3-0.1l0.3-0.3l0.4,0l0.1-0.3l0.2-0.1L141,20l0.3,0l0.3-0.1l0.1-0.2l0.4-0.4l0.3-0.4l0-0.1l0.3-0.4l0.2-0.4
	l0.2-0.2l0.2-0.4l0.3-0.2l0-0.5l0.1-0.2l0-0.5l0.1-0.2l0.1-0.5v-0.6l0.1-0.6h0.3l0.2,0.4l0.1,0.6v0.8l0,1.1l-0.1,1l0,0.9l-0.2,0.9
	l-0.2,0.7l-0.3,0.8l-0.3,0.7l-0.6,0.9l-0.6,0.7l-1.2,1.2l-0.7,0.8l-0.6,0.9l-0.5,0.5l-0.3,0.7l-0.5,0.2l-0.6,0.8l-0.5,0.6l-0.6,0.7
	l-0.5,0.6L136,31l-0.5,0.7l-0.9,1.2l-0.5,0.9l-0.5,1l-0.4,1l-0.4,0.8l-0.5,1l-0.5,1.1l-0.4,0.9l-0.5,1.2l-0.3,1l-0.7,1.9l-0.5,1.8
	l-0.3,2l-0.1,1.3l-0.1,1.9l0.2,2.2l-0.1,2.1l0.3,1.7l0.2,1.8l0.2,2l0.4,1.9l0.4,1.9l0.4,2.4l0.5-0.9l0.5-1.4l0.5-1.5l0.8-1.5
	l0.8-1.9l1.1-1.9l1.2-2.2l1.1-1.9l1.3-1.9l0.9-1.5l1.3-1.9l1.3-1.3l0.7-0.4l0.2,0.2l0.2,0.8l0,0.9l0,3.7l0,1.2l0,0.8l0.1,0.4
	l0.1,0.7v0.7l0.1,0.3l0,0.8l0.1,0.5l0,0.8l0.1,0.3l0,0.4l0.2,0.3l0,0.3l0.2,0.2l0.2,0.4l0,0.6l-0.1,0.4l-0.2,0.4L144,62l-0.2,0.5
	l-0.2,0.4l-0.3,0.5l-0.1,0.3l-0.1,0.5l0,0.7l0.3,0.2l0.2,0.2l-0.1,0.3l0,0.5l0.6,0.9l0.4,0.7l0.6,0.8l0.5,0.8l0.6,0.7l0.7,0.6
	l0.7,0.6l1,0.7l0.7,0.6l0.8,0.7l1,0.9l1.9,1.7c0,0,0.8,0.9,0.9,1s1.7,1.8,1.7,1.8l1.7,2.3l1.1,1.7l0.9,1.6l0.5,1.3l0.9,2.4l0.6,1.6
	l0.5,1.6l0.3,1.5l0.2,1.1l0.4,1.5l0.2,1.5l0.1,1.1v3.8l-0.1,1.5l-0.2,1.6l-0.4,2.2l-0.4,2.1l-0.4,1.9l-0.4,1.5l-0.6,2l-0.6,1.6
	l-0.6,1.4l-0.7,1.7l-0.5,1.4l-0.6,1.2l-0.6,1.4l-0.7,1.5l-0.6,1.3l-0.7,1.4l-1.4,2.2l-1.5,2.5l-1.3,2.2l-1.7,2.6l-0.9,1.5l-1.1,1.7
	L146,141l-1.1,1.6l-1.5,2l-1.7,2.1l-1.7,1.7l-2.5,2.5l-2.3,2l-2.2,1.9l-2.2,1.9l-1.5,1.2l-0.3,0.3l0.4,0.6l1.2,0.3l0.8,0.5l0.9,0.4
	l0.6,0.3l1.2,0.3l1,0.2l1.1,0.4l0.6,0.3l0.9,0.4l1.1,0.3l0.8,0.2l2.3,0.7l1.7,0.4l1.5,0.3l1.4,0.2l1.5,0.2l1.2,0.1l1.2,0.1h1.4
	l2.5,0.2l0.6,0.3h1.5h1.9h2.6l2,0.1l1.9,0.1h1.9h2.3h2.1h1.8h2.3h1.5l1.3-0.2l0.9-0.2l0.8,0l1-0.2l0.9-0.2l0.9-0.1l1.2-0.2l1.1-0.2
	l1.2-0.3l0.9,0l1-0.2l0.7,0l0.6-0.1l0.9-0.2l1.3-0.1l2.6-0.4l1.1-0.1l1-0.1l2.8-0.2l1.5-0.1l1.8-0.1l4.2-0.2l1.7-0.1
	c0,0,2-0.1,2.2-0.1c0.1,0,3.2,0,3.2,0l2.2,0.2c0,0,0.9,0.2,0.9,0.2c0,0,1.3,0.3,1.4,0.4c0,0,2.6,0.6,2.6,0.6l1.1,0.7l1.2,0.5
	l1.1,0.9l1.4,0.6l0.7,0.8l0.5,0.4l0.5,0.5l0.4-0.5l0.4-0.1l0.3-0.3l0.5-0.2l1,0.2l0.8,0.3l1,0.4l1.3,0.6l1.1,0.4l1,0.5l0.6,0.5
	l0.4,0.3l0.5-0.3l0.6-0.3l0.7-0.4l1-0.5l0.7-0.2l0.6-0.3l0.8-0.2l0.6-0.2l0.4-0.1l0.5-0.1l1.6-0.2l0.5-2.4l0.3-1.4l0.4-1.2l0.6-1.7
	l0.3-1l0.3-0.6l0.4-1.3l0.4-1.3l0.4-1.2l0.4-0.9l0.4-1.4l0.5-1.6l0.6-1.6l0.7-1.6l0.5-1.6l0.5-1.2l0.5-1.3l0.8-2l0.7-1.8l0.6-1.3
	l0.6-1.4l0.7-1.9l0.8-2.1l0.9-2.1l1.2-2.8l1-2.4l1.1-2.4l0.6-1l0.2-0.5l0.4-1.2l0.8-1.6l0.7-1.1l1-2.3l0.5-1.3l0.4-0.8l0.4-0.9
	l0.9-2.1l0.6-1.4l0.3-0.8l0.4-1l0.6-1.9l0.7-1.3l0.2-0.4l0.2-0.6l0.2-0.9l0.6-1.1l0.6-1.1l0.6-1.2l0.9-1l0.9-0.7l1.1-0.5l0.8-0.3
	l0.9-0.3l1.4-0.3l1.5-0.3l1.6-0.3l2-0.2l2.1,0l1.9,0.1l0.8,0.3l0.9,0l1.2,0.2l1.4,0.3l1.7,0.5l1.4,0.3l1.1,0.5l2,0.7l1.8,0.7
	l1.2,0.4l1.3,0.4l1.2,0l1.6,0.4l1.4,0.4l1.5,0.4l2.2,0.6l1.5,0.3l1.9,0.3l1.5,0.4l2,0.4l1.5,0.2l5.6,1.1l3.8,0.7l1.8,0.3l1.5,0.1
	l0.7-0.2l1.5-0.4l1-0.3l1.2-0.3l1.3-0.2l1.1-0.6l0.8-0.1l1.1-0.3l0.9-0.4l0.9-0.1l0.9-0.4l0.8-0.3l1.3-0.3l1.5-0.1l1.7-0.5l1.8-0.4
	l2.2-0.6l0.8-0.3l0.7-0.2l2.1-0.3l0.8-0.4l0.9-0.1l0.9-0.3l1.8-0.4l1.6-0.5l1.6-0.5l1.2-0.2l2.3-0.7l2.8-0.8l1.1-0.4l0.7-0.5
	l0.9-0.1l0.9-0.3l0.7-0.1L373,93l0.8-0.3l1.2-0.4l2.1-0.7l1.8-0.6l1.3-0.4l1.4-0.3l1-0.2l0.6-0.4l2.1-0.4l1.5-0.5l1.4-0.4l1.7-0.7
	l1.8-0.7l1.6-0.7l1.6-0.3l1-0.4l0.7,0l0.7-0.3l0.4-0.5l0.9-0.1l1-0.4l1-0.4l0.7-0.3l1.1-0.5l1.1-0.4l1.9-0.7l1-0.2l1.2-0.4l1-0.4
	l1.2-0.4l1.9-0.6l1.6-0.7l1.5-0.6l1.2-0.6l1.3-0.5l1.3-0.5l1.3-0.6L421,76l1.1-0.8l1.2-0.6l1.4-0.6l1.9-1l2.1-0.8l1-0.7l1.2-0.7
	l1.3-0.8l2.2-1.6l1.5-1.1l0.9-0.5l1.6-0.9l0.8-0.4l0.6-0.6l0.9-0.7l0.9-0.3l1.7-1.6l1-0.8l1.2-0.9l1.8-1l1.5-1l1.2-0.7l1.6-1.2
	l1.6-1l0.8-0.6l2-1.1l1.4-0.8l1.3-0.7l1.4-0.7l1.3-0.6l1.3-0.5l1.1-0.6l1.3-0.7l0.5-0.3l0.5-0.6l0.4-0.8l0.5-0.9l0.5-1l0.4-1.1
	l0.4-0.9l0.4-0.6l0.5-0.6l0.8-0.4l0.9-0.2l0.6-0.3l0.7-0.7l1-1.1l1.1-0.8l0.7-0.4l0.9-0.4l0.4-0.2l0.7-0.1l0.4-0.5l0.2-0.7l0.3-0.5
	l0.5-0.3c0,0,0.7,0,0.9,0s0.9,0.3,0.9,0.3s0.5,0.4,0.5,0.4c0,0,0.5,0.6,0.5,0.6s0.2,0.4,0.3,0.4c0,0,0.2,0.7,0.2,0.7l0.3,0.6
	l0.2,1.2c0,0,0.1,0.9,0.1,1c0,0.1,0,1.5,0,1.5l0,1.6l-0.3,0.8l-0.6,1.1c0,0-0.3,0.6-0.4,0.6c-0.1,0.1-0.6,0.8-0.6,0.8l-0.7,1
	l-0.3,0.5l-0.1,0.5c0,0-0.1,0.5-0.1,0.5s-0.2,0.9-0.2,0.9l0,1c0,0-0.1,0.6-0.1,0.8c0,0.1-0.2,0.9-0.2,1s-0.1,0.8-0.1,0.9
	c0,0.1-0.2,0.4-0.2,0.6c0,0.2-0.2,1.1-0.2,1.1l-0.8,2.4l-0.7,1.9l-0.6,1.1l-0.6,0.8l-0.6,0.7l-1,1.1l-0.9,0.7l-1,0.6l-0.8,0.5
	l-0.7,0.2l-0.7,0.4l-1,0.7l-0.7,0.4l-0.7,0.5l-0.9,0.7l-0.9,0.7l-0.8,0.8l-0.4,0.4l-0.7,0.8l-0.5,0.6l-0.5,0.6l-0.7,0.9l-0.5,0.8
	l-0.4,0.6l-0.3,0.5l-0.7,1c0,0-0.4,0.6-0.4,0.7c0,0.1-0.5,1-0.5,1l-0.2,0.7l-0.5,1.6c0,0-0.3,0.9-0.3,1c0,0-0.6,1.8-0.6,1.8
	s-0.3,1.2-0.3,1.2l-0.7,1.8l-0.4,1.1l-0.5,0.7l-0.5,0.9l-0.7,0.9l-0.6,0.8l-0.7,0.7l-0.7,0.6l-0.8,0.6l-1.1,0.5l-0.6,0.2l-0.9,0.1
	l-1.3,0l-1.1-0.2l-0.6-0.3l-0.9-0.4l-0.9-0.5l-1.6-0.8l-0.9-0.4c0,0-0.9-0.3-0.9-0.3c0,0-0.9-0.4-0.9-0.4l-1.1-0.5l-0.9-0.3
	l-1.1-0.1l-1.9-0.2l-0.9-0.2l-1.2,0l-1.2,0l-1.8,0.1l-1.1,0.4l-1.2,0.4l-1.4,0.6l-2,0.8l-2,1l-1.9,0.9l-1.9,1l-1.6,0.9l-1.7,1
	l-2,1.1l-2.6,1.5l-1.4,0.7l-2.2,1.5c0,0-1.4,0.8-1.5,0.8c0,0-1.4,0.7-1.4,0.7l-1.4,0.8l-2.8,2l-2.7,1.6c0,0-2.2,1.3-2.2,1.4
	s-1.9,1.1-1.9,1.1l-2.1,1.5c0,0-1.6,1-1.7,1c0,0-3.1,1.8-3.1,1.8l-1.3,0.8l-1.9,1.1c0,0-0.9,0.4-1,0.4c-0.1,0-0.8,0.5-0.8,0.5
	l-0.5,0.3c0,0,0.3,0.3,0.4,0.3c0,0,0.8,0.2,0.8,0.2s0.7,0.1,0.8,0.2s0.6,0.2,0.8,0.2c0.3,0,1,0.2,1.2,0.2c0.2,0,0.7,0.1,1,0.2
	s1,0.1,1.2,0.2c0.2,0,0.7,0.1,0.8,0.2s0.7,0.5,0.7,0.5s1.1,0.2,1.4,0.2c0.3,0.1,1.2,0.2,1.6,0.2c0.4,0,1.8,0.2,1.9,0.3
	c0.1,0,1.2,0.4,1.4,0.4c0.2,0,1.2,0.1,1.3,0.2s1.6,0.2,1.8,0.3c0.2,0.1,1.6,0.4,1.6,0.4s1,0.1,1.1,0.1s1.5,0.2,1.5,0.2l2.5,0.5
	c0,0,0.9,0.3,1,0.4c0.1,0,1.1,0.2,1.2,0.3c0.1,0,1.6,0.2,1.8,0.2c0.2,0,2,0.2,2.1,0.3c0.1,0,1.8,0.3,1.9,0.3c0.1,0,1.4,0.2,1.6,0.2
	s1.1-0.1,1.3-0.1s1.9-0.3,2.1-0.3s1.7-0.2,1.8-0.3c0.1,0,1.6-0.2,1.7-0.2s1.6-0.4,1.6-0.4s2.8-0.6,2.8-0.6s1.8-0.5,2.1-0.5
	c0.4,0,2.1-0.5,2.1-0.5l3.2-0.9l2.4-0.8c0,0,3.6-1.2,3.7-1.2s1.5-0.3,1.7-0.3c0.3-0.1,1.9-0.6,1.9-0.6l2.1-0.6c0,0,1.6-0.4,1.7-0.4
	c0,0,1.7-0.5,1.7-0.5l1.5-0.6l1.4-0.6l1.2-0.6l1.6-0.4l1.3-0.5l0.7-0.1c0,0,0.9-0.4,1-0.4s1-0.3,1-0.3l1.3-0.5l0.6-0.3l0.6-0.4
	l0.4-0.5l0.7-0.6l0.5-0.6l0.6-0.8c0,0,0.4-0.6,0.5-0.7c0.1,0,0.6-0.6,0.6-0.6l0.6-0.6l0.7-0.5l0.8-0.6l0.3-0.2l0.3-1.4l0.2-0.9
	l0.2-0.6l0.2-1.1l0.1-0.8l0.2-0.8c0,0,0-0.6,0-0.6c0,0,0.1-0.5,0.1-0.5l0.3-0.4l0.7-1l0.3-0.7l0.4-0.9c0,0,0.3-0.7,0.3-0.8
	c0,0,0.3-0.6,0.3-0.6c0,0,0.4-0.8,0.4-0.8l0.5-0.2c0,0,0.5,0.1,0.6,0.1s0.3,0.1,0.4,0.2c0,0.1,0.3,0.3,0.4,0.4
	c0,0.1,0.3,0.3,0.3,0.4c0,0.1,0.3,0.6,0.3,0.7c0,0,0.1,0.2,0.1,0.2s0.3-0.4,0.4-0.4c0-0.1,0.5-0.3,0.5-0.3l0.5-0.1l0.6,0.3
	c0,0,0.1,0.3,0.1,0.3c0,0,0.1,0.4,0.1,0.4s0,0.1,0.1,0.1s0.4-0.1,0.4-0.1l0.3,0.1l0.2,0.2l0.2,0.3l0.2,0.3l0.1,0.6
	c0,0,0.1,0.4,0.1,0.5c0,0,0,0.5,0,0.5v0.7c0,0,0,0.5-0.1,0.5c0,0.1,0.1,0.1,0.1,0.1c0.1,0,0.6,0,0.6,0s0.3,0.1,0.3,0.1
	c0,0,0.2,0.3,0.2,0.3s0.2,0.3,0.2,0.4c0,0,0,0.3,0,0.4s-0.2,0.5-0.2,0.5l-0.1,0.7l-0.1,0.4l-0.1,0.3l-0.3,0.4l-0.1,0.3l-0.6,0.7
	l-0.4,0.4l-0.5,0.3l-0.3,0.2l-0.2,0.1l-0.2,0.2l-0.3,1.2l-0.2,0.3c0,0-0.2,0.5-0.2,0.5c0,0-0.5,1-0.5,1l-0.1,0.6l0,0.8l-0.1,2.1
	l-0.1,0.7l-0.2,0.9l-0.2,0.8l-0.2,0.7l-0.3,0.7l-0.3,0.5l-0.3,0.9l-0.4,0.6l-0.4,0.5l-0.3,0.5l-0.4,0.9l-0.6,1l-0.4,0.6l-0.4,0.6
	l-0.6,0.6l-1,1.3l-1.5,1.9l-0.9,1.3l-1,1l-0.7,0.8l-0.9,1.1l-0.7,0.7l-1.3,1.1l-1.1,0.7l-1.4,0.9l-1.4,0.7L455,133l-0.8,0.3
	l-0.8,0.5l-0.8,0.6l-0.8,0.6l-0.6,0.6l-1.3,1.2l-0.3,0.3c0,0-0.7,0.6-0.7,0.6c0,0.1-0.5,0.7-0.5,0.7l-0.6,0.9l-0.4,0.7l-0.5,0.8
	l-0.7,1l-0.5,0.9l-0.7,1.4l-0.9,1.1l-1.3,1.4l-1.5,1.4l-0.5,0.5l-0.6,0.6l-0.6,0.3l-1,0.7l-1.3,0.6l-1.2,0.4l-1,0l-0.9,0l-0.9-0.4
	l-0.3-0.3l-0.7-0.2l-0.7-0.3l-0.6-0.3l-0.8-0.5l-0.6-0.6l-2.4-1.5l-1.6-1.1l-1-0.6l-1.1-0.7l-1.2-0.6l-1.8-0.9l-0.7-0.5l-1.4-0.7
	l-1.3-0.7l-0.8-0.5l-1.2-0.7l-0.8-0.4l-0.9-0.4l-0.7-0.4l-1.2-0.4l-1.9-0.4l-1.2-0.2l-1.3-0.2l-2-0.3l-0.8-0.2l-1.1-0.1l-1.2-0.1
	h-1.5l-1.1-0.2l-2.3-0.1l-1.1-0.1l-5.3-0.3l-3.4-0.1h-4.3l-4-0.1h-4.1l-3.2,0h-2.9l-3.9,0.1l-3.5,0.1h-4.6h-3.8l-5.3,0l-3.8-0.2
	l-2.9,0.1c0,0-1.7,0.6-1.9,0.6c-0.2,0-3.4,0.9-3.6,1c-0.2,0-3.3,1.1-3.3,1.1l-6.5,1.1l-5.4,1.4l-2.1,0.4l-3.5,0.9l-1.6,0.7l-1.7,1.1
	l-1.2,1.5l-0.7,0.8c0,0-0.3,1.3-0.3,1.5c0,0.2-0.3,2.9-0.3,2.9l-0.4,3.3l-1.2,9.9l-0.6,4l-0.9,5.6l-0.7,3.5l-0.8,3.6l-1.2,7.4
	l-1.1,4.7l-0.4,2.7l-0.6,3l-0.8,3.7l-0.8,3.1l-0.9,3.4l-1,3.5l-0.7,2.9l-0.6,2.3l-0.3,1l-0.4,1.3l-0.2,0.9l-0.4,2.2l-0.3,1.1
	l-0.3,1.5l-0.5,1.8l-0.3,1.2l-0.5,1.4l-0.5,1l-0.4,2l-0.4,1l-0.4,1l-0.3,0.7l-0.3,1l-0.2,0.3l0,0.6c0,0,0.3,0.4,0.3,0.5
	s0.2,0.7,0.2,0.7l0.3,0.6l0.2,0.5l0.3,0.9l0.2,0.5l0.2,0.7l0.2,0.7l0.3,0.6l0.2,0.7l0.2,0.6l0.2,0.8l0.1,0.8l0,0.7l-0.1,0.8
	l-0.2,0.9l-0.7,1.4l-0.8,1.3l-1.3,1.9l-1.3,2l-1.1,1.1l0.9,0.9l0.4,0.6l0,0.4l-0.2,0.5l-0.3,0.3l-2.8,3.1l-0.8,0.8l-1.5,1.6
	l-1.7,1.7l-1.4,1.5l-3.3,2.9l-1.5,1l-1.9,0.9l-2.3,0.9l-2.7,1l-3.3,1l-3.3,1.1l-2.4,0.6l-1.4,0.4l-1.5,0.2l-1.3,0.2L254,278h-1.4
	l-0.9,0.4l-1.3,0.3h-1.6l-1.4,0.2l-1.1,0.2l-1.5,0.1h-1.3l-0.8,0.2l-1.6,0.2l-0.5-0.2H240h-0.6l-2.6,0.3H236l-0.8-0.2l-0.6,0
	c0,0-0.4,0.4-0.4,0.5c0,0.1-0.2,0.8-0.2,0.8l-0.4,0.5l-0.7,0.4l-1.7,0.2l-2.7,0.2l-1.8-0.2l-1.8,0l-1.7-0.2l-2.3-0.3l-2-0.4
	l-1.8-0.3l-1.7-0.4l-2.1-0.5l-6.3-1.5l-1.8-0.5l-3.1-0.9l-4.3-1.4l-1.8-0.8l-3.2-1.1l-6.7-2.5l-1.3-0.5l-1.4-0.7l-2-0.7l-1.8-0.8
	l-2.5-1l-7.1-3l-1.5-0.8l-1.9-0.9l-2-1.1l-2.6-1.1l-4.1-1.9l-1.4-0.7l-2.2-1l-1.6-0.7l-2.4-1.2l-2.1-1l-3.7-1.6l-1.8-0.8l-1.9-0.8
	l-1.3-0.5l-1.2-0.5l-2.1-0.9l-0.6-0.2l-0.6-0.1l-1-0.1c0,0-0.7-0.3-0.7-0.3s-1.2-0.1-1.2-0.1c0,0-1.1-0.3-1.1-0.3l-0.8-0.2l-0.7-0.1
	l-1.2-0.2l-0.6-0.2l-0.6,0l-0.4,0l0.4,0.4l0.3,0.4l0.2,0.4l0.3,0.4l0.3,0.4l0.4,0.7l0.4,0.7l0.1,0.4l0.1,0.7c0,0-0.1,0.5-0.1,0.6
	s0,1,0,1s0.2,0.4,0.3,0.4c0.1,0.1,0.2,0.2,0.4,0.4c0.3,0.2,0.5,0.1,0.5,0.1s0.3-0.2,0.4-0.2c0.1,0,0.7-0.3,0.7-0.3s0.5-0.2,0.5-0.2
	c0,0,0.5-0.2,0.6-0.2c0.1-0.1,1-0.4,1-0.4c0.1,0,0.3-0.2,0.6-0.2c0.2,0,1.4,0.2,1.4,0.2s0.3,0.2,0.4,0.2c0.1,0,0.5,0.3,0.5,0.3
	s0.5,0.3,0.5,0.3s0.3,0.3,0.3,0.3l1.5,1.1c0,0,0.5,0.5,0.6,0.5c0.1,0.1,1.1,0.9,1.1,0.9l0.8,0.6l3.4,2.6l0.7,0.5
	c0,0,0.6,0.6,0.6,0.6c0,0,0.8,0.4,0.9,0.5s0.6,0.5,0.7,0.5c0,0,0.7,0.6,0.7,0.6l1.6,1.2l1.5,1.1c0,0,0.7,0.3,0.7,0.4
	c0,0,0.5,0.2,0.6,0.3c0.1,0,0.7,0.1,0.8,0.1s0.7,0,0.7,0s0.7,0.2,0.8,0.2c0.1,0,1,0.3,1.1,0.3c0.1,0,0.9,0.2,1,0.3s0.8,0.3,0.8,0.3
	l2,0.5l1.3,0.4c0,0,2.1,0.6,2.2,0.6s1.4,0.3,1.4,0.3s1.4,0.3,1.5,0.4s1.6,0.3,1.6,0.3l1.3,0.5l3.1,1.1c0,0,1.3,0.4,1.5,0.5
	c0.2,0.1,1.3,0.6,1.4,0.6c0.1,0,1.7,0.5,1.7,0.5s1.3,0.5,1.4,0.6c0,0,1.3,0.5,1.3,0.5l1.2,0.4l2.3,0.9c0,0,1,0.4,1.1,0.5
	s1.6,0.6,1.7,0.6s1.8,0.7,1.8,0.7s0.5,0.1,0.6,0.1c0,0,1,0.4,1,0.4l1.2,0.4l0.4,0.4l0.7,0.5l0.7-0.3l1.2,0l1.5,0.1l1.7,0.3l1.9,0.3
	l2,0.4l1.9,0.6l1.8,0.3l2.3,0.6l1.5,0.4l0.9,0.4l1.7,0.7l0.6,0.8v0.7l0,1.1l0.1,1.3l0,0.7l0,0.3l1,0.1h0.8l0.6,0.2l0.6,0.3l0.3,0.4
	l0.3,0.8v0.4l0.1,0.3l0.5-0.2l0.4-0.3l0.6-0.3c0,0,0.6-0.2,0.7-0.2c0,0,0.7-0.2,0.8-0.3c0.1,0,1-0.2,1-0.2l1.7-0.1l1.5,0.1
	c0,0,1.3,0,1.5,0s1.1,0,1.2,0.1c0.1,0,1,0.1,1.1,0.2c0,0,0.7,0.3,0.7,0.3c0,0,0.9,0.2,0.9,0.2l1.1,0.3c0,0,0.8,0.2,0.9,0.2
	s0.5,0.2,0.6,0.2c0.1,0,0.6,0.1,0.6,0.1c0,0,1.2,0,1.2,0l0.8-0.1l0.7-0.2l0.6-0.2l1.9-0.3l2.4-0.3l1.4,0l1.3,0.2l1,0.4l0.7,0.5
	l0.1,1.1v0.6l-0.3,0.5l-0.5,0.4l-0.9,0.4l-1,0.2l-1,0.4l-0.8,0.2l-0.8,0.4l-0.9,0.4l-1.2,0.4h-0.8l-1,0.1h-0.9h-0.6l0.1,0.3l0.4,0.2
	l0.3,0.2l0.6,0.3c0,0,0.4,0.1,0.5,0.1c0.1,0,0.8,0.1,0.9,0.1s0.6,0.1,0.6,0.1s0.6-0.1,0.6,0c0.1,0.1,1,0.2,1,0.2l1.1,0.1l1.9,0.4
	c0,0,0.5,0.2,0.5,0.2c0,0,0.5,0.2,0.5,0.2c0,0,0.7,0,0.8,0c0,0,0.8,0,0.8,0l0.5,0c0,0,0.3-0.2,0.3-0.2s0.4-0.3,0.4-0.3l0.4-0.3
	l0.4-0.3l0.2-0.3l0.2-0.4l0.2-0.5l0.6-0.8l0.4-0.6l0.6-0.5l0.5-0.3l0.8-0.3c0,0,0.7-0.1,0.8-0.1c0,0,0.7,0.1,0.7,0.1l0.2,0.2
	c0,0,0,0.6,0,0.6c0,0,0,0.8,0,0.8l0.2-0.2l0.3-0.4l0.4-0.4c0,0,0.3-0.4,0.4-0.4c0.1,0,0.4-0.2,0.4-0.2l1.4-1.1l0.5-0.3l0.7-0.3
	l0.6-0.1l0.9-0.1l0.3,0.1l0.4,0l0.3,0.2l0.1,0.3l0,0.4l-0.2,0.5l-0.1,0.2l-0.2,0.3l-0.1,0.2l-0.1,0.2l0,0.2c0,0,0,0.1,0,0.1
	c0,0,0.4,0,0.4,0c0,0,0.5,0,0.5,0c0,0,0.4,0,0.4,0l0.4,0.1c0,0,0.2,0.1,0.2,0.1c0,0,0.1,0.2,0.1,0.2l0.1,0.2l0,0.2l0,0.6l-0.1,0.2
	l-0.2,0.2l-0.6,0.5l-0.4,0.1l-0.3,0.3l-0.4,0.4l-0.4,0.2l-0.4,0.4l-0.4,0.5l-0.5,0.4l-0.2,0.4l-0.4,0.7l-0.6,0.6l-0.3,0.2l-0.3,0.3
	l-0.4,0.2l-0.4,0.3l-0.5,0.2h-0.4h-0.3c0,0-0.3,0.2-0.3,0.2c0,0-0.3,0.4-0.3,0.4l-0.3,0.4l-0.9,1.1l-0.3,0.4l-0.5,0.6l-0.5,0.6
	l-0.5,0.5l-0.7,0.5l-0.5,0.2l-0.7,0.1l-0.7,0.2l-0.9,0.2l-0.5,0.1l-0.3,0.4l-0.3,0.3l-0.6,0.5l-0.5,0.2l-0.5,0.4l-0.4,0.2l-0.3,0.1
	h-0.5l-0.3,0.1l-0.7,0.1l-0.5,0.2l-0.5,0.1l-0.7,0.2l-0.8,0.2l-0.6,0.1l-0.3,0.1l-0.5,0.1l-0.8,0.1h-0.4l-0.7-0.1l-1.2-0.2l-0.8-0.3
	l-0.8-0.2l-1-0.1l-0.8-0.1l-0.9-0.1l-1.1,0l-1.1,0l-1.5-0.1l-1.7-0.1l-1.2-0.2c0,0-0.4-0.1-0.8-0.2c-0.4,0-1.9-0.1-1.9-0.1
	c-0.1,0-2.2-0.2-2.2-0.2l-1.4-0.1l-0.9-0.1l-2.3-0.2l-0.9-0.2l-1-0.2l-0.9-0.5l-0.8-0.3l-0.4-0.1l-0.3,0.4l-0.2,0.2l-0.2,0.2
	l-0.3,0.1l-0.5,0l-0.8-0.1l-0.6-0.4l-0.5-0.2H204l-0.4-0.2l-0.9-0.1l-0.6,0.2l-0.8,1l-0.7,0.5l-0.7,0.4l-1,0.1l-0.9-0.2l-0.8-0.3
	l-0.8-0.3l-2.2-0.7l-1.1-0.1l-1.1-0.3l-0.7-0.2l-0.7-0.1l-0.6-0.1l-1.1-0.1l-1-0.2l-1.4-0.3l-1.4-0.2l-1.8-0.2l-2.9-0.4l-1.9-0.4
	l-2.7-0.4l-1.9-0.6l-1.5-0.4l-2.2-0.6l-1.4-0.4l-3.8-1.4l-2.4-0.7l-1.6-0.7l-3.5-1.2l-1.3-0.5l-0.9-0.3l-1.5-0.6l-1.5-0.5l-3.1-1.2
	l-1.1-0.6l-1.5-0.6l-1.6-0.8l-2.6-1.2l-1-0.5l-2.7-1.3l-1.6-1l-0.8-0.3l-1.1-0.7l-1-0.7l-0.7-0.5l-0.9-0.6l-0.9-0.4l-0.6-0.4
	l-1.8-0.7l-1.2-0.7l-0.7-0.4l-0.9-0.3l-0.8-0.4l-1.1-0.4l-1.2-0.6l-0.9-0.4l-0.9-0.4l-1.1-0.4l-1.1-0.5l-1.6-0.4l-1.8-0.8l-1.5-1.1
	l-1.2-1.1l-1.6-1.4l-1.9-2.3l-1.1-1.4l-0.8-1.4l-1.1-1.3l-0.8-0.9l-3.2-4.5l-1.2-1.7l-0.9-1.2l-0.7-1.1l-1-1.2l-1.5-2.2l-0.7-1.2
	l-0.9-1.2l-0.9-1.4l-1.1-1.2l-1.1-1.7l-0.7-1l-0.6-0.7l-1.2-1.5l-2.1-1.8l-1.1-0.8l-0.9-0.8l-0.9-0.7l-0.6-0.7c0,0-0.8-0.5-1.1-0.8
	c-0.3-0.3-1.1-1-1.1-1l-1.2-1.1l-0.6-0.6v-0.8v-3.3l-1.1-0.9l-0.7-0.7l-1.2-1.1l-0.9-0.9l-2.8-2.7l-0.8-1l-1.3-1.1l-0.8-0.8
	l-0.8-0.6l-0.6-0.7l-3.1-3.5l-1.1-1.3l-0.6-0.8l-0.5-0.8l-1.6-2.5l-1.1-1.5l-0.3-0.7l-0.6-1.1c0,0-0.3-1.2-0.4-1.3
	c0-0.1-0.9-1.6-0.9-1.6l-0.6-1.1l-0.6-1.7l-0.4-1l-0.3-0.7l-0.3-1.4v-1.1l0.2-1.2l0.4-0.9l0.8-1.4l0.3-0.7l0.4-0.6l0.4-0.7l0.1-0.5
	l-0.1-0.7l-0.3-0.3l-1-0.5l-0.9-0.4l-1-0.3l-1.1-0.3l-1.3-0.4l-1.2-0.3l-1.3-0.5l-1,0l-1.3,0l-2.3,0H46l-2,0.5h-1.6c0,0-1.4,0-1.5,0
	s-1.9-0.1-1.9-0.1l-2.2-0.3l-2-0.9l-1.3-0.7l-2.2-1.1l-1-0.7l-2-1.4l-1-0.9l-3.1-3l-1.4-1.6l-1.1-1.3l-2.2-2.8l-1.1-1.4l-1-1.2
	l-2.6-3.4l-0.9-1.2l-1.2-1.3l-1.9-2.4l-1-1.3l-1.1-1.7l-2-3l-1.1-1.5l-1.7-2.8l-1.3-2.4l-0.9-2l-0.9-2.9l-0.3-1.5l-0.2-1l-0.2-2.6
	L0,141.2v-2.6l0.1-1.2l0.2-0.7l0.4-1l0.5-0.8l-0.6-0.7l-0.4-1L0,132.2v-2.8l0.2-1l0.4-1.9l0.6-1.2l0.7-1.2l0.8-1l0.1-1.2l0-2
	l0.4-0.7l0.8-1l0.3-0.2l0.1-2.6v-1.3l0.3-2.9l0.1-1.1l0.2-0.9l0.2-1.3l0.2-0.7l0.2-0.8L6,106l0.4-1l0.1-1.1v-1L6.3,99l-0.1-2.2
	l0.1-3l0.3-3.3l0.5-2.7l1.4-4.7l1.1-2.7l1.1-2.6l1.7-2.7l1-1.2l1.5-1.1l2-1l2.6-0.2c0,0,1.3,0.4,1.4,0.4c0.1,0,1.1,0.8,1.2,0.9
	c0.1,0.1,1.2,1.1,1.3,1.2c0.1,0.1,0.3,1,0.3,1.1c0,0.1,0.2,0.4,0,0.4s-0.3-0.1-0.3-0.1l-0.3-0.3L23,74.7l-0.3-0.4l-0.3-0.1l-0.3-0.1
	L21.4,74c0,0-0.6,0-0.6,0c-0.1,0-0.7,0-0.8,0s-0.4,0-0.5,0S19.1,74,19,74c0,0-1.2,0.4-1.2,0.4s-0.4,0.3-0.5,0.3
	c-0.1,0.1-0.4,0.3-0.5,0.4s-0.6,0.4-0.6,0.4c0,0-0.7,0.6-0.7,0.6c0,0.1-0.4,0.3-0.4,0.4c0,0.1-0.6,0.5-0.6,0.5l-1,1.1l-0.6,0.6
	l-0.4,0.5l-0.4,0.7l-0.4,0.6l-0.3,0.8L11,82.3l-0.4,1.2l-0.3,0.8l-0.4,1l-0.2,0.5l-0.1,0.4c0,0-0.1,0.6-0.1,0.6c0,0,0,0.5,0,0.5v0.7
	L9.5,89c0,0,0,0.7,0,0.7s0.1,0.4,0.1,0.4l0.1,1.6l0.1,0.5l0.2,1.1l0.2,1l0.2,0.6l0.1,0.6l0.1,0.7l0,1.5l0,0.8v0.7v0.6l0,1.1
	l-0.1,0.8l0,0.7l-0.1,1.3l-0.1,0.8l0.1,0.1l0.3-0.1c0,0,0.3-0.3,0.3-0.4c0-0.1,0.3-0.4,0.3-0.5c0.1-0.1,0.7-0.9,0.7-0.9
	s0.5-0.7,0.6-0.8c0.1-0.1,0.4-0.5,0.5-0.6c0-0.1,0.8-1,0.8-1s0.4-0.6,0.5-0.6c0,0,0.4-1,0.4-1l0.6-1.8l0.1-1.2l0.1-1.5l0.1-2.7
	L16,90l0.3-1.9l0.7-1.7l0.5-1.3l1-2.1l0.7-0.9l0.6-0.8l0.8-1.1l0.6-0.8l0.3-0.1l0.1,0.2l0,0.5l-0.4,0.6l-0.4,0.7l-0.5,0.9l-0.3,0.6
	l-0.4,0.4l-0.2,0.5l-0.2,0.6l0,1.1l-0.1,0.4v0.7v0.9v0.8l0.1,0.4l0,0.2l0.1,0.4l0.1,0.4l0,0.3l0.2,0.7l0,0.6l0,0.4l0.1,0.5l0,0.5
	l0.1,0.6l0.1,0.5l0.1,0.5l0,0.5l0,0.6l0,0.3l0.3-0.1l0.3-0.3c0,0,0.4-0.2,0.4-0.3c0,0,0.4-0.3,0.4-0.3l0.8-0.5c0,0,0.7-0.5,0.7-0.6
	c0,0,0.8-0.7,0.8-0.7l0.9-0.8l0.9-0.7l1-1l0.5-0.5l0.6-0.5l0.5-0.5l0.5-0.8l0.6-0.9l0.6-0.8l0.5-1l0.4-0.8l0.3-1l0.2-0.5l0-0.6
	l0.2-1l0-1.4v-2.8l-0.2-1.7l-0.3-0.7l-0.3-0.8l-0.7-1.5l-0.4-0.8l-0.5-0.9l-0.6-0.8l-0.6-1.1c0,0-0.3-0.4,0.2-0.3
	c0.4,0.1,0.6,0.4,0.6,0.4l0.5,0.5l0.2,0.3l0.3,0.3l0.5,0.5l0.4,0.5l0.6,0.6l1,1.2l0.6,1l0.5,1l0.4,0.7l0.4,0.8l0.2,0.5l0.2,0.8
	l0.2,0.6l0.1,0.7l0.2,0.7l0,0.4l0,0.8l0,0.6L35.5,82l-0.1,1c0,0,0.1,0.4,0.2,0.2c0.1-0.3,0.2-0.6,0.2-0.6l0.3-0.6l0.4-0.5l0.5-0.6
	l0.6-1l0.5-0.8l0.4-0.8l1.3-1.6l0.8-0.8l0.9-0.9l0.8-0.8c0,0,1.2-0.9,1.2-0.9c0,0,1.4-1.1,1.4-1.1l1.1-0.7l1.8-0.6l1.6-0.6l1.2-0.2
	l1.6,0l1.3,0.1c0,0,0.6,0.3,0.7,0.3c0.1,0,0.7,0.7,0.7,0.7s0.5,0.8,0,0.5c-0.6-0.3-0.7-0.4-0.7-0.4l-0.4-0.1c0,0-0.5,0-0.6,0
	c0,0-0.6,0-0.6,0l-1.1,0.1l-0.7,0.1l-0.7,0.3L49.6,72l-0.6,0.4L48.3,73l-0.3,0.3l-0.5,0.4l-0.7,0.9L45.9,76l-0.6,1.1
	c0,0-0.1,0.4-0.1,0.4c0,0,0,0.5,0,0.6c0,0,0.4,0.4,0.4,0.4l0.5,1l0.3,0.8l0.3,0.9l0.1,0.6l0.2,0.6l0.1,0.3c0.2,0,0.6-0.1,0.6-0.1
	s0.3-0.1,0.4-0.1c0,0,0.6-0.3,0.6-0.3s0.8-0.4,0.8-0.4s0.7-0.4,0.7-0.4s0.8-0.4,0.8-0.4l2.3-0.8l1.4-0.7l1.5-0.7l1.2-0.5
	c0,0,0.9-0.3,1-0.3c0.1,0,1.2-1,1.2-1l1.2-0.9l1.4-1.1l0.9-0.8c0,0,1.2-0.9,1.2-1c0,0,1.1-1.1,1.1-1.1l0.8-0.7l0.5-0.6l0.7-0.8
	l1.1-1.4l0.7-0.9l0.3-0.7l0.3-0.7l0.3-0.5l0.3-0.5l0.2-0.6l0.2-0.6l0.1-0.6l0.3-0.7l0-0.8l-0.1-1.1l0-0.8l-0.1-0.6l-0.3-0.6l-0.4-1
	l-0.5-0.8L69.4,56l-0.5-0.8L68.2,54l-0.7-0.9L67,52.2L66.3,51l-0.4-1l-0.6-0.8L65,48.8l0-0.4l-0.2-1l-0.2-0.5l-0.1-0.6l0.1-0.5
	c0,0,0.3-0.4,0.4,0c0.1,0.4,0.3,1,0.3,1s0,0.4,0.1,0.6c0,0.1,0.2,0.6,0.2,0.6l0.3,0.6c0,0,0.3,0.6,0.4,0.7c0.1,0.1,0.4,0.6,0.4,0.6
	l0.6,0.8l0.4,0.5l0.5,0.4l0.6,0.5l0.5,0.4l1.7,1.2l0.6,0.5l0.8,0.5l1.4,1.2l0.7,0.6l0.6,0.6l0.8,0.9l0.4,0.7l0.4,0.8l0.8,1.3
	l0.3,0.7l0.3,0.7l0.2,0.6l0.1,0.4l0.1,0.5l0.3,1.1l0.1,0.7l0,0.8v1.4v0.9l0,0.7l-0.1,0.7L78.2,71l-0.1,0.7l-0.3,1.2l-0.2,0.7
	l-0.4,0.9l-0.2,0.6L76.7,76l-0.5,0.9l-0.3,0.6l-0.4,0.6l-1,1.3l-0.3,0.5l-0.3,0.5L73.3,81l-1,1l-0.8,0.6l-1.6,1.2l-0.5,0.3
	c0,0-0.3,0.4,0.1,0.3c0.4-0.1,0.6-0.1,0.6-0.1l0.6-0.1l0.7-0.3l0.8-0.3l0.6-0.3l0.8-0.3l1.2-0.4l0.5-0.1l0.6-0.3
	c0,0,0.8-0.5,0.8-0.5c0,0,0.9-0.8,1-0.8s1.1-1.1,1.1-1.1s0.9-0.8,0.9-0.9c0,0,1.3-1.2,1.3-1.3s1.4-1.6,1.4-1.6l1.4-2.3
	c0,0,0.4-0.7,0.4-0.8c0-0.1,0.4-0.9,0.4-0.9l0.8-1.8l0.2-1l0.2-2.4l0-1.6l-0.2-1.9l-0.2-1.6l-0.3-2.1L85,58l-0.5-3.7l-0.2-1.8
	l-0.2-1.2l-0.2-2.1l0-3.1l0.2-1.9l0.3-1.8l0.1-2.4l0.2-1.6l0.3-1.3l0.4-1.5l0.4-1l0.6-1.4l0.6-0.9l0.5-1l0.8-1.2l0.8-1
	c0,0,0.7-0.8,0.8-0.9c0.1-0.1,0.9-0.8,1-0.8c0,0,1-0.7,1-0.7s0.8-0.5,0.8-0.5l0.7-0.3l0.5-0.2l0.7-0.2h1.9c0,0,0.9,0,1,0.1
	c0.1,0,0.9,0.4,1,0.4s0.7,0.3,0.7,0.3s0.7,0.5,0.7,0.6c0,0,0.6,0.5,0.6,0.5s0.6,0.7-0.3,0.3s-1.3-0.7-1.3-0.7l-0.3-0.2
	c0,0,0-0.2-0.4-0.3c-0.4-0.1-0.7-0.1-0.7-0.1l-0.4,0l-0.9,0l-0.6,0.2l-0.4,0.2l-0.5,0.4l-0.8,0.7l-1,0.9l-0.6,0.9l-0.4,0.6l-0.3,0.7
	L91.1,32L90.6,33l-0.2,0.7l-0.2,0.8L90,35.3l-0.1,0.9l0,0.8l0,0.7c0,0-0.1,0.5,0.4,0s0.8-0.9,0.8-0.9s0.6-0.5,0.7-0.6
	c0.1-0.1,0.8-0.5,0.9-0.6c0.1-0.1,1.4-0.7,1.4-0.7s1.2-0.2,1.2-0.2c0.1,0,1.1,0,1.1,0l0.9,0.1l1,0.3l0.6,0.5l0.5,0.7
	c0,0,0.2,0.6-0.3,0.3c-0.5-0.3-0.8-0.6-0.8-0.6l-0.5-0.3l-0.5-0.1c0,0-0.7-0.2-0.7-0.2s-0.9,0-0.9,0l-0.4,0.1L94.6,36l-0.6,0.5
	l-1.4,1.3l-0.5,0.6l-0.3,0.6l-0.3,0.6l-0.2,0.5l-0.1,0.9L91,41.7l-0.2,1.8l0,0.8l-0.1,1.1l0,0.8l0,0.7c0,0,0.3,0.9,0.4,0
	s0.4-1.6,0.4-1.7s0.4-1.3,0.4-1.4c0-0.1,1.3-1.9,1.3-1.9l1.4-1.5l0.9-0.8l1.4-0.6l1.1-0.3l1.2-0.3l0.4,0l2.6-0.1l1,0.2l1,0.3
	c0,0,1.1,0.5,1.1,0.6c0,0,0.7,0.5,0.8,0.5s0.6,0.6,0.6,0.6l0.7,0.6l0.4,0.7l0.4,0.6l0.3,0.8l0.2,1.2l0,0.8l-0.1,0.8
	c0,0-0.1,0.4-0.1,0.4c0,0-0.2,0.8-0.2,0.9c0,0-0.3,0.6-0.4,0s0-0.9,0-0.9c0-0.1,0-0.7,0-0.8s0.1-0.8,0.1-0.8l-0.1-0.9l-0.1-0.5
	l-0.6-1.2l-0.7-0.6l-0.6-0.5l-0.7-0.2l-0.7-0.2l-0.7-0.1l-1.2,0l-0.7,0.2l-0.6,0.2l-0.6,0.3l-0.5,0.5l-0.6,0.5l-0.7,0.6l-0.8,1.2
	l-0.8,1.2L97.4,46l-0.3,0.6c0,0-0.2,0.5-0.2,0.6s-0.2,2-0.2,2l-0.1,1.4l-0.1,1.3l-0.1,1.8l0.1,1.1l0.2,1.2l0.1,0.7l0.2,0.9
	c0,0,0.1,0.6,0.2,0.6c0,0.1,0.2,1.3,0.2,1.3l0.3,1.5l0.2,0.7l0.7,1.7l0.4,1l0.3,0.9l0.3,0.8l0.1,0.6l0.2,1.1l0.3,0.6l0.1,0.7
	l0.1,0.7l0,0.7l0,0.9l0,3.1l0,1.1l0,0.9l-0.2,1.2l-0.2,0.6l-0.8,2.6l-0.4,1.2l-1.2,3.1l-1.6,3.4l-0.7,1.2l-2.1,3.1l-1.4,1.9l-2,2.6
	l-0.9,1.1l-0.9,0.9l-0.8,0.8l-0.8,0.8c0,0-1.1,0.8-0.1,0.4c1-0.4,1.4-0.7,1.5-0.7c0.1,0,0.7-0.4,0.8-0.5c0.1,0,0.8-0.4,0.9-0.4
	c0.1,0,0.7-0.4,0.8-0.5c0.1,0,0.8-0.4,0.8-0.4s0.7-0.4,0.8-0.5c0.1,0,0.6-0.5,0.7-0.5s1.2-0.8,1.2-0.8s1.2-1,1.3-1.1
	c0,0,0.8-0.8,0.8-0.9s0.9-1,1-1.1c0.1-0.1,1.3-1.2,1.3-1.2l1.5-1.7l0.8-0.9c0,0,0.8-1,0.8-1s0.6-0.9,0.6-0.9l1.3-2.1l0.8-1.4
	c0,0,1.8-2.8,1.8-2.8s0.6-1.2,0.6-1.2l1.4-2.8l0.8-1.7l0.7-1.1l0.4-1.4l1.1-2.4l0.5-1.1l0.3-0.7l0.6-2l0.5-1.3l0.2-0.9l0.8-2.4
	l0.5-1.4l0.4-1.9c0,0,0.4-0.9,0.4-0.9s0.3-1,0.3-1l0.3-2.2l0.1-0.7l0.2-3.2l0.1-1.9l-0.1-1.8l0-3.4l-0.2-2l-0.3-2.9l-0.5-3.2l-0.4-2
	l-0.4-1.1l-0.8-2.3l-0.5-1.4l-0.5-1.2l-0.9-2.2l-0.7-1.5l-0.9-1.3l-0.9-1.2l-1.5-1.4l-0.9-0.9l-1-0.7l-1.1-0.6l-1.1-0.4l-1-0.4
	l-1.4-0.1h-0.9L98.7,18l-1,0.3L97,18.7l-0.6,0.4l-0.5,0.7l-0.5,0.6l-0.5,0.6c0,0-0.2,0.6-0.2,0.8c-0.1,0.1-0.9,0.7-0.7,0
	s0.5-1.4,0.5-1.4l0.6-0.9l1.3-1.7c0,0,1.8-1.7,1.8-1.8s1.5-1,1.5-1l2.1-1.1l2.1-0.1c0,0,2.3-0.2,2.4-0.1c0.2,0,2.3,0.3,2.3,0.3
	s1.5,0.7,1.7,0.7c0.1,0.1,1.6,1.2,1.7,1.3s1.5,1.5,1.5,1.5s0.8,1.2,0.9,1.3s0.9,1.3,0.9,1.3l1,2l0.5,1.4l0.4,1.4l0.6,2L118,28
	l0.3,1.6l0.3,1.2c0,0,0,2,0.4-0.1c0.4-2.1,0.8-3.9,0.8-3.9l0.3-2.2l0.4-1.6l1-3l0.8-2.1l1.9-3.9l1-2l2.2-3.5l1.5-1.9l2.7-3l1.9-1.5
	l2.1-1.1l1.9-0.7l1.8-0.3l2.2,0.1c0,0,1.5,0.4,1.6,0.4c0.1,0,1.5,0.6,1.5,0.6l1.1,0.6l0.8,0.7l1,0.7l0.6,0.8l0.1,0.4l0.4,0.4
	l0.4,0.4l0.6,0.8l0.1,0.6l0.1,0.6l0,0.5c0,0-0.2,0.1-0.3,0C149.2,7.5,149.3,7.3,149.3,7.3z"/>
</svg>
