<?xml version="1.0" encoding="utf-8"?>
<!-- Generator: Adobe Illustrator 23.0.0, SVG Export Plug-In . SVG Version: 6.00 Build 0)  -->
<svg version="1.1" id="图层_2" xmlns="http://www.w3.org/2000/svg" xmlns:xlink="http://www.w3.org/1999/xlink" x="0px" y="0px"
	 viewBox="0 0 118.2 233.6" style="enable-background:new 0 0 118.2 233.6;" xml:space="preserve">
<style type="text/css">
	.st0{fill:#FFFFFF;}
</style>
<path class="st0" d="M80.1,12.2l-0.3,1.4l-0.1,1.1v0.8l0.2,0.9l0.2,0.8l0.1,0.5l0.1,0.6l0.2,0.6l0.2,0.3c0,0,0.3,0.2,0.4,0
	c0-0.2,0-0.5,0-0.5l-0.1-0.1l-0.1-0.3v-0.4l0-0.8l-0.1-0.7l0.1-0.5l0.1-0.6l0.3,0c0,0,0.1,0.3,0.1,0.3c0,0,0.1,0.5,0.1,0.5l0.2,0.5
	l0.2,0.4l0.4,0.6l0.2,0.3l0.2,0.3l0.2,0.4l0.3,0.2l0.2,0.2l0.3,0.5l0.2,0.3c0,0,0.7,0.1,0.4-0.4s-0.5-0.8-0.5-0.8l-0.4-0.5l-0.2-0.3
	L83,17.6l-0.1-0.3c0,0,0.3-0.7,0.3-0.7s0-0.7,0-0.7l0.1-0.5l0-0.3c0,0,0.4-0.1,0.5-0.1c0.1,0,0.5,0,0.5,0v0.2v0.6v0.6l0.1,0.4
	l0.1,0.5l0.1,0.2v0.5l0.1,0.3V19v0.6l-0.3,0.7l-0.1,0.5L83.9,21l-0.3,0.5c0,0-0.2,0.3-0.3,0.4c0,0.1-0.5,0.4-0.5,0.4l-0.5,0.3
	l-0.6,0.5l-0.4,0.3c0,0-0.1,0.3-0.1,0.4s0,0.6,0,0.6l0.3,0.4l0.2,0.5l0.2,0.6c0,0,0.3,0.5,0.3,0.5c0,0,0.2,0.5,0.2,0.5
	s0.2,0.4,0.2,0.4l0.2,0.3l0,0.3l-0.2,0.3l0,0.4l0.2,0.5l0.2,0.4c0,0,0.2,0.5,0.2,0.5c0,0,0.2,0.5,0.2,0.5l0.2,0.4l0.2,0.5l0.3,0.7
	l0.1,0.6l0.1,0.6l0.3,0.8l0.3,0.6l0.3,0.4c0,0,0.3,0.3,0.4,0.3s0.4,0.2,0.4,0.2l0.6,0.1l0.7,0.1h0.6c0,0,0.7,0,0.7,0s1,0,1,0
	l0.6-0.1l0.5-0.1l0.3,0.1l0.1,0.2l0.1,0.4v0.3l-0.3,0.3L90.6,37l-0.3,0.2L90,37.4l-0.3,0.2L89.6,38l-0.3,0.3l-0.3,0.4l-0.2,0.3
	l-0.2,0.2h-0.4l-0.6,0.1l-0.7,0.1l-0.8,0.2l-0.8,0.3l-0.5,0.3L84,40.3l-0.5,0.2l-0.6,0.2l-0.4,0.2l-0.6,0.6L81.2,42l-0.5,0.3
	l-0.6,0.5l-0.6,0.6l-0.3,0.4L79,44v0.5l-0.2,0.3v0.6l-0.2,0.4l-0.1,0.3v0.3l-0.1,1.1c0,0,0,0.8,0,0.9c0,0-0.1,0.6-0.1,0.6l-0.4,0.6
	l-0.5,0.7l-0.6,1L76,53l-1.2,1.8l-0.8,1l-0.6,1.1l-0.9,1.2l-1.1,1.8l-1,1.8l-0.5,1l-0.5,0.8l-1.7,2.2l-0.6,0.7l-1.2,1.7l-0.8,1
	l-0.7,1.1l-0.4,0.2h-0.4l-0.5,0.1l-0.5,0.3L62,71.7l-0.8,1.5L60.9,74v0.4l-0.8,0.8l-1,1l-1,0.9l-1.1,1.1l-0.6,0.6l-0.6,0.7L55.6,80
	l-0.2,0.2l-0.3,0.2l-0.5,0.2l-0.4,0.6l-0.3,0.3l-0.2,0.3l-0.2,0.4l-0.1,0.2l-0.1,0.2l-0.3,0.1l-0.3,0.1l-1,1L51.5,84
	c0,0-0.1,0.1-0.1,0.1s-0.2,0.5-0.2,0.5l-0.5,0.6l-0.6,0.5l-0.4,1l-0.3,0.5l-0.3,0.5l-0.3,0.9l-0.4,0.5L48.3,90c0,0,0,0.7,0,0.7
	s0.2,0.7,0.2,0.7l0.3,0.8l0.2,0.7l0.3,0.5l0.5,0.7l0.5,0.9l0.2,0.4l0.2,0l0,0.3l-0.3,0.2l-0.5,0.4l-0.6,0.3L48.4,97l-0.7,0.4
	l-0.7,0.5L46.6,98l-0.4,0.3l-0.4,0.3L45.6,99c0,0,0.1,0.4,0.2,0.5c0,0.1,0.2,0.4,0.2,0.4l0.3,0.2l0.7,0.6l0.7,0.7l0.5,0.5l0.3,0.2
	l0.3,0.4l0.3,0.5l0.4,0.6l0.5,0.7l0.1,0.3l0.2,0.2l0,0.2l-0.1,0.3l-0.4,0.2l-0.8,0.5l-0.6,0.4l-0.7,0.3l-0.3,0.4l0,0.5l0.3,0.2
	l0.4,0.3c0,0,0.3,0.2,0.3,0.2c0,0.1-0.4,0.4-0.4,0.4l-0.4,0.3l-0.3,0.3l-0.2,0.1l0,0.5c0,0-0.1,0.2,0,0.2c0,0,0.3,0.1,0.3,0.1l0,0.4
	l0,0.5l0.2,0.1l0.1,0.1l0,0.3l0.1,0.4h0.2l0.1,0.3h0.1l0,0.2l0.4,0.3l0.2,0.6l0.3,0.3l0.3-0.2l0.2-0.2l0.4,0.5l1.7,1.4l0.6,0.6
	l0.8,0.6l-0.6,0.8l-0.4,0.8l-1.4,2.7l-1.8,3.9l-0.8,2.1l-1,2.2l-1.2,2.6l-1,2.6l-1.3,3.2l-0.6,2l-0.7,2.3l-0.4,1.4l-0.8,3.2
	l-0.4,1.2l-0.6,1.6l-1.3,3l-0.9,1.7l-1.4,2.7l-1.9,3.5l-2.7,4.9l-4.1,7.4l-2.3,4.1l-1.5,2.8l-2.8,5.4l-1,2l-1.1,1.7l-0.1,0.6
	l-0.8,1.1l-1.6,2l-0.8,0.9l-0.6,0.5l-0.4,0.2l-0.3,0.1l-0.5-0.1l-0.7-0.3l-0.4-0.1l-0.8-0.7l-0.5-0.5l-0.6-0.6l-1.5-1.6l-0.3-0.2
	L9,189l-0.2-0.4v-1.9l0-0.3l-0.5-0.5L8,185.6l-0.1,0l-0.9,0l-0.1-0.2l-0.6-0.6l-0.5-0.3l-0.6,0l-0.6,0l-0.2,0.3l-0.3,0.4L4,185.5
	l-0.1,0.1l-0.2,0l-0.2,0l-0.1-0.2l-0.1-0.2l-0.2-0.1l-0.3,0l-0.2,0l-0.1-0.1l-0.3,0l-0.3,0l-0.1,0.2l-0.1,0.2v0.3l-0.4,0l-0.1-0.1
	l-0.4,0l-0.4,0.1l-0.1,0.2l-0.1,0.3l-0.1,0.7l0.2,0.4l0.3,0.3l0.4,0.2c0,0,0.3,0.3,0.4,0.3s0.4,0.3,0.4,0.3s0.2,0.3,0.2,0.4
	c0,0,0.1,0.3,0.1,0.3l0,0.2c0,0-0.2-0.1-0.2-0.1c0,0-0.2-0.2-0.2-0.2l-0.4,0l-0.5,0l-0.2,0.2l-0.2,0.2l-0.1,0.3l0.1,0.6l0.2,0.3
	l0.2,0.2l-0.3,0.1L0.2,191L0,191.3v0.5l0.1,0.5l0.3,0.5l0.4,0.5l0.5,0.6l0.7,0.8l0.7,0.9l0.6,0.7l1.2,0.9l0.5,0.3l0.5,0.5l0.4,0.2
	l0.4,0.3l0.5,0.1l0.3,0.3l0.3,0.5l0.2,0.3l0.2,0.5l0.3,0.4c0,0,0.3,0.6,0.3,0.6s0.4,0.5,0.4,0.5l0.2,0.5l0.2,0.5l0.3,0.6l0.3,0.5
	l0.4,0.5l0.5,0.2l0.7,0.2l1.1,0.1h0.7h1c0,0,1-0.1,1.1-0.1c0.1,0,0.6-0.2,0.7-0.2s0.3-0.3,0.4-0.3c0.1-0.1,0.4-0.5,0.4-0.6
	s0.2-0.5,0.2-0.5l0.4-0.9l0.2-0.7l0.4-1.2l0-0.5l0.5-0.4v-0.8l0.4-0.4l0.1-0.5l0.4-0.6l0.2-0.8l0.2-0.4l0.2-0.7l0.6-0.4l0.7-1.1
	l1.3-1.4l1.1-1.5l2.1-2.3l1.1-1.2l1.2-1.1l1.4-1.3l2.3-2.6l1.9-1.9l2.3-2.3l1.6-1.6l2.8-3l2-2.4l3.1-4l1-2l0.8-2.8l0.4-1.5l1.5-2.6
	l1-1.4l1.8-2l1.4-2.5l1.1-1.4l1.1-1.5l1.4-1.7l1-1.4l1.1-1.8l1.1-2.2l1.4-1.9l1.4-2.4l1.1-2l1-1.1l0.9-1.7l1.1-1.6l0.7-1.1l0.6-0.7
	l0.8-1.4l0.6-1c0,0,0.2-0.4,0.3,0.3c0,0.7,0.1,1.1,0.1,1.1s0.1,1.3,0.2,1.4c0,0,0.3,1.4,0.3,1.4l0.4,1.1l0.2,1.1l0.1,1l0.6,3.4
	l0.4,2l0.5,2.9L73,145l0.3,1.7l0.2,1.7l0.4,1.7l0.4,1.9l0.3,1.6l0.2,1.7l0.3,1.6l0.3,1.4l0.3,1.7l0.2,1.4l0.5,1l0.7,0.7l0.6,1.1
	l0.3,1.3l0.8,2.4l0.5,2.3l0.4,1.4l0.2,1.5l0.1,1.4l0.4,2.9l0.2,2.4l0.1,1.9l0.1,1.7l0.4,1.4l0.1,1l0,1.7l0.1,3l0.2,4.1l0.1,2.9
	l0,1.9v4.4v2.5l-0.1,2.8l0,1.9l-0.1,2.5l-0.3,2.5l-0.4,1.7l-0.2,1.3l-0.7,1.5l-0.9,1.2l-1.5,1.7l-1.2,1.2l-1.3,1.2l-1.5,1.3
	l-1.4,1.2l-0.8,0.5l-0.7,0.1h-0.7h-0.7l-0.8-0.1l-0.6-0.1l-0.4-0.2l-1,0l-0.8-0.1l-1.4,0.3l-0.7,0.5l-0.5,0.6l0.1,0.8l0.1,0.5
	l0.3,0.3l1,0.4l1.3,0.1h1.1l0.7,0.2l0.7,0.5l0.5,0.2c0,0,0.7,0.3,0.8,0.3c0,0,0.6,0.3,0.7,0.3c0.1,0,0.8,0.1,0.8,0.1h2.3l1.7-0.2
	l0.9-0.1l1.3-0.1l1.2-0.4c0,0,0.8-0.5,0.8-0.5s1.4,0,1.4,0l0.8,0.3l1,0.4l1,0.1h1.3l1.4-0.1l1-0.4l0.7-0.8l0.4-0.7l0.2-0.9l-0.2-0.9
	l-0.4-2l-0.4-1.3l-0.4-1.6l-0.2-1.1l-0.2-0.9l0-1.5l0.1-0.8l0.2-1.1l0-1l0.3-1.1l0.2-1.2l0.1-1.3l0.4-2.4l0.4-2.1l0.3-1l0.3-1.5
	l0.3-2.6l1-8l0.4-2.7l0.3-2.3l0.4-5.3v-3.8l-0.2-2.7l-0.4-4.6l-0.3-2l-0.3-2.3l-0.4-2.8l-0.3-1.9l-0.5-2v-2.1l-0.1-2.5l-0.5-5
	l0.1-2.4v-2.8l0.2-6.4l0.1-3.2l0.4-2.3l0.3-3.4l0-2.5l-0.1-2.1l0.4-0.3l0-0.4l0-0.4l0.3-0.1l0.6,0.1l0.4,0l0.1-0.4L91,128l0.9,0.1
	l0.4,0.1l0.6,0.3l0.5,0.1l0.6,0.1l0.7,0l0.7,0l0.2-0.1l0.1-0.3v-0.7v-0.3l0.4,0.2l0.6,0.3l0.4,0.2l0.5,0v-0.7l0.2-0.3v-0.8v-0.7
	l-0.1-0.3l-0.2-0.2l0-1.3l0-0.9l-0.1-0.2l0-0.5l0.3-0.4l0-0.2l0-1.8l-0.2-0.4l-0.2-0.3l0-0.5l-0.1-0.8l-0.2-1.1l-0.1-1
	c0,0-0.2-1-0.2-1.1s-0.2-0.7-0.2-0.7l0.4-0.2c0,0,0.9,0,1,0s1-0.1,1-0.1l0.8-0.3c0,0,0.6-0.3,0.7-0.4s0.4-0.3,0.4-0.3v-1.4v-0.7
	l0.1-0.4l0.1-1.9l0.2-1.2V106l0.4-2l0.1-1.7l0.2-1.3v-1.2l0.2-0.9l0.2-1.2v-1.1l0.2-0.8l0.2-1v-0.9l0.2-0.3l0.2-1.1l0.2-2l0.1-0.8
	v-1l0.3-2.1l0.1-1v-1.4v-0.8l-0.4-0.3l-0.3-0.3l0-0.6l0.2-0.3l0.3-0.4l0-0.3l0-1.1l0.2-0.5v-0.9l0.2-0.3l0.5-2.7l0.3-1.3l0.5-1
	l0.8-3.5l0.6-2.4l0.5-2l0.6-3l0.4-1.8l0.4-1.8l0.2-1.2l0.3-1.4l0.1-0.4l0.2-2.1v-2.5l-0.1-0.4l-0.2-0.7l-0.3-0.6l-1.1-2.3l-0.6-1.1
	l-0.9-1.5l-0.8-1.2l-0.6-1.1l-0.5-0.9l-0.3-0.3l-0.1-0.3l0-0.6l0-0.8l0.3-0.5l0.2-0.4l0-0.6l-0.1-0.4l-0.1-0.3l0.2,0l0.4,0.1
	c0,0,0.4,0.2,0.4,0.3s0.4,0.1,0.4,0.1l0.4-0.6l0.5-0.3l0.4-0.6l0.4-0.7l0.6-0.4l0.4-0.6l0.2-0.7l0.4,0.5l0.7,0.5l0.4,0.2l0.7,0.1
	h0.4l0.2,0.3l0.6,0.4l0.7,0.1l0.4,0l0.4-0.1v-0.3l-0.9-0.1l-0.3-0.2l-0.4-0.3l-0.3-0.3l-0.1-0.5l-0.1-0.5l-0.1-0.6l-0.1-0.6
	l-0.1-0.7l0-0.6l0.1-0.8l0.2-0.7l0.3-0.2l0.3,0.1l0.3,0.4l0.2,0.4l0,0.7l0.1,0.5v0.6c0,0,0,0.4,0,0.5c0,0.1-0.3,0.6-0.3,0.6
	l-0.3,0.4l0.3,0.1l0.3-0.2l0.4-0.4l0.4-0.5l0.3-0.4l0.1-0.7l0.1-1l-0.1-0.5l0.4,0.2l0.7,0.1l0.7-0.1l1.1-0.1l0.7-0.7l0.8-0.6
	l0.3-0.5c0,0-0.2-0.3-0.3-0.2s-0.5,0.5-0.5,0.5l-0.7,0.3l-0.4,0.1l-0.4-0.4l-0.5-0.5l-0.4-0.6l-0.4-0.7l-0.3-0.7l0.1-0.5l0.6-0.7
	l0.3-0.6l0.3-0.7l0.4-0.8l0.2-0.9c0,0,0.3-0.8,0.3-0.1s0,1.1,0,1.1s0,0.5,0,0.6s0,0.6,0,0.7s0,0.5-0.1,0.6s-0.2,0.5-0.2,0.5l-0.7,1
	l-0.2,0.4c0,0,0.1,0.5,0.3,0.3s0.3-0.3,0.3-0.3s0.1-0.2,0.2-0.3s0.2-0.2,0.2-0.3c0,0,0.2-0.3,0.3-0.3s0.2-0.3,0.2-0.3l0.2-0.5
	l0.2-0.3l0.3-1.3c0,0,0.1-0.8,0.1-0.9c0,0,0.1-0.9,0.1-0.9l-0.2-3l-0.3-1.9l-0.3-1.7l-0.2-1.4l-0.5-2l-0.7-2.7L115.2,8l-0.6-1.3
	l-0.6-1l-0.8-1l-1-0.9l-2.3-1.5l-1.1-0.4l-1-0.5l-0.9-0.3L106,0.8l-0.9-0.4l-1.2-0.2l-1.2-0.2L99.8,0h-1.3h-1.2h-1.2h-1.4l-0.8,0.1
	l-1.2,0.3l-1.7,0.7l-1.3,0.7l-1.3,0.7l-1.1,0.7l-1.4,1.3l-1.8,1.9l-0.9,1.1l-0.6,0.5L82,9l-1.2,1.6l-0.4,1L80.1,12.2z"/>
</svg>
