<?xml version="1.0" encoding="utf-8"?>
<!-- Generator: Adobe Illustrator 23.0.0, SVG Export Plug-In . SVG Version: 6.00 Build 0)  -->
<svg version="1.1" id="图层_3" xmlns="http://www.w3.org/2000/svg" xmlns:xlink="http://www.w3.org/1999/xlink" x="0px" y="0px"
	 viewBox="0 0 80.5 144" style="enable-background:new 0 0 80.5 144;" xml:space="preserve">
<style type="text/css">
	.st0{fill:#FFFFFF;}
</style>
<path class="st0" d="M56.7,3.1h-1.1L54.8,3L53.9,3L53,2.8l-0.8-0.1l-0.4-0.1l-0.5-0.3l-0.5-0.4l-0.1-0.3l-0.2-0.4V0.8V0.5V0.2
	c0,0-0.1-0.4-0.4,0s-0.3,0.6-0.3,0.6c0,0,0,0.4,0,0.4s0.1,0.3,0.1,0.3c0,0,0.1,0.3,0.1,0.4c0,0,0.1,0.3,0.1,0.4s0.4,0.9,0.4,0.9
	s0.2,0.3,0.2,0.3c0,0,0.3,0.4,0.3,0.4s0.4,0.2,0,0.2c-0.4,0-0.7,0.1-0.7,0.1l-0.9,0.2l-0.6,0.1l-0.8,0.1h-0.5h-0.7h-0.8h-0.4
	l-0.3-0.3l-0.4-0.2L44.8,4l-0.2,0l-0.2-0.2L44,3.4c0,0-0.3-0.3-0.3,0c0,0.3,0.1,0.6,0.1,0.6c0,0,0.3,0.5,0.3,0.5s0.5,0.7,0.5,0.7
	s0.2,0.3,0.2,0.4c0,0,0.4,0.3,0.4,0.3l0.5,0.3l0.3,0.2l0.3,0.1c0,0,0.4,0,0,0.2s-2.1,1.5-2.1,1.5L43.6,9l-0.3,0.4l-0.6,0.5l-0.3,0.4
	c0,0-0.4,0.8,0.2,0.3c0.6-0.5,1.1-0.8,1.1-0.8l0.4-0.3l0.5-0.2l0.4-0.2l0.5-0.2c0,0,0.7-0.4,0.3,0.2s-0.6,1-0.6,1L44.6,11l-0.2,0.6
	l-0.2,0.9v0.5L43.7,14l-0.5,1.1L43,15.9l-0.2,0.7v0.4l-0.1,0.2l-0.2-0.1l-0.4-0.1l-0.4,0.1l-0.3,0.3l-0.4,0.3l-0.4,0.7l-0.5,1
	l-0.4,0.7l-0.2,0.6l-0.3,0.7l-0.2,0.6l-0.1,0.4L39,23l-0.1,0.3l-0.4,0.2L37,24l-0.5,0.2l-0.4,0.4L36,25.2v0.8v0.7l0.3,0.5l0,0.3
	L36.1,28l-0.5,0.4V29l0.1,0.5l0.3,0.4l0.2,0.3l0,0.4l0.1,1.6c0,0,0.2,1.1,0.2,1.2s0.3,2,0.3,2.1s0.3,1.3,0.3,1.3l0.4,1l0,0.8
	l0.4,0.6l0.6,0.9l0.7,0.5l0.5,0.3c0,0,0.5,0.3,0.6,0.3c0,0,0.5,0.1,0.6,0.1c0,0,0.4,0.1,0.5,0.1c0.1,0,0.6,0,0.6,0c0,0,0.7,0,0.8,0
	c0.1,0,0.8,0,0.9,0c0.1,0,0.6,0,0.7,0.1c0,0,0.2-0.1,0.4,0.3s0.2,0.6,0.2,0.6l0,0.2c0,0,0.2,0.3-0.1,0.2c-0.3-0.1-0.7-0.1-0.7-0.1
	c-0.1,0-0.9,0.1-0.9,0.1l-0.7,0.1l-0.9,0.3L41,43.3l-0.7,0.4l-0.7,0.5l-0.5,0.4l-0.5,0.4l-0.5,0.4l-0.2,0.1h-0.7l-0.5,0.1L34.9,46
	l-1.1,0.2l-0.8,0.3l-1.2,0.6l-0.6,0.2l-0.2,0.1v0.4c0,0,0,0.8,0,0.8s-0.1,0.3-0.1,0.3l-0.3,0.3l-1.5,0.6l-0.8,0.3l-1.6,0.6L26,51
	l-0.7,0.2l-0.5,0.1l-0.7-0.2l-0.8,0l-1.1,0.1l-0.8,0.2l-0.1,0.1l-0.7,0.1l-0.2,0.2l-0.1,0.6l-0.2,0.4h-0.5l-0.6,0.1l-0.9,0.2l-1,0.2
	l-0.9,0.2l-0.8,0.3l-1,0.1L13.9,54l-0.4,0.2h-0.8h-1h-0.6l-0.9,0.1H9.9L9.7,54v-0.3L9.3,53l-0.2-0.6L9,51.7l-0.2-0.5
	c0,0-0.4-0.4-0.6-0.2c-0.1,0.2-0.4,0.3-0.4,0.6s0,0.7,0,0.7s-0.4,0.7-0.5,0s-0.2-1-0.2-1L6.7,50l-0.2-0.4l-0.1-0.5l-0.1-0.5L6,48.3
	l-0.3-0.1l-0.1-0.1l-0.1-0.4l-0.1-0.4L5,46.9c0,0-0.2-0.3-0.5-0.1c-0.3,0.2-0.4,0.3-0.4,0.3s-0.2,0.2-0.2,0.3s0,0.4,0,0.4L4,49.5
	l0.1,0.4l0.1,0.5L4.3,51c0,0,0,0.7-0.2,0.2c-0.2-0.4-0.7-1.8-0.7-1.8l-0.4-0.7l-0.4-0.9l-0.4-0.2L2,47.7l-0.2,0.4v0.5v0.6l0.2,0.6
	l0.2,0.6L2.4,51l0.2,0.6l0.2,0.6l0,0.3l-0.3,0L2.3,52l-0.2-0.4l-0.3-0.5l-0.2-0.4l-0.4-0.3L0.8,50l-0.5,0l-0.2,0.2L0,50.5v0.6
	l0.2,0.6l0.2,0.5l0.2,0.4L1,53.4L1.6,54l0.5,0.8l0.5,0.7L3,56l1.3,1.5c0,0,0.5,0.5,0.5,0.5s0.5,0.4,0.6,0.4s0.5,0.3,0.5,0.4
	c0,0,0.4,0.2,0.4,0.2c0,0,0.5,0.1,0.5,0.1l3.7,0.1h1.2H14c0,0,1.5,0.1,1.5,0.1s2.2,0.1,2.2,0.1h2.2l1.4-0.1l0.5-0.2l0.2,0l0,0.3
	l0,0.3l0.3,0.1l0.1,0.1l0.1,0.3l0.4,0.2l0.4-0.1l0.4-0.2c0,0,0.7-0.1,0.8-0.1s0.9,0,1,0s0.7,0,0.9,0c0.1,0,1.1-0.1,1.1-0.1l1.2-0.1
	l0.6-0.4l1-0.4l1.1-0.4l0.7-0.3c0,0,0.1,0.1,0.1,0.2c0,0.1,0,0.6,0,0.6l0.3,0.4l0.5,0.2l0.3,0.2l-0.3,0.4L32.6,61L32,62l-1.8,3.3
	l-0.9,1.6l-0.7,1.6l-0.9,2.1L26.5,74l-0.9,2.4l-0.7,1.9l-0.2,1l0,0.8c0,0-0.4,0.7-0.4,0.8c0,0.1-0.5,1.1-0.5,1.1L23.2,83l-1.3,2.2
	l-0.6,1l-0.8,1.2l-0.4,0.6l-0.9,1.1l-1,1.2l-0.5,0.8l-0.4,0.4l-0.2,0.6l0,0.5l0,0.3c0,0,0.2,0.3,0.2,0.3c0,0,0.3,0.4,0.3,0.4
	s0.3,0.2,0.4,0.2c0,0,0.2,0.1,0.3,0.2c0.1,0.1,0.4,0.3,0.5,0.3s0.5,0.2,0.5,0.2l0.1,0.2c0,0,0,0.3,0,0.3c0,0,0,0.3,0,0.3l-0.4,1.1
	l-0.4,0.9L18,99.5l-0.4,1l-0.5,1.8l-0.3,1l-0.5,2.1l-0.4,1.9l-0.8,2.9l-0.7,2.3l-0.4,1.9l-0.4,1l-0.1,1.3l0,0.8l0,1l0.3,0.7l0.2,0.4
	l0.7,1.1l0.4,0.5l0.6,0.7l0.3,0.4c0,0,0.3,0.4,0.3,0.5c0,0,0.1,0.2,0.1,0.2v0.4l-0.1,0.4l-0.1,0.6l0,0.8l-0.1,0.3l0,1l0,0.5l0.1,0.5
	c0,0,0,0.5,0,0.6c0,0.1,0,0.4,0,0.4c0,0,0.2,0.3,0.2,0.3l0,0.5l-0.2,0.1h-0.5l-0.5,0.1l-0.5,0.5l-0.2,0.4v0.5l0,0.5l0.1,0.5l0.2,0.6
	l0.2,0.8c0,0,0.1,0.5,0.1,0.5s0.3,0.6,0.3,0.6s0.1,0.3,0.1,0.3l0,0.1h-0.2l-0.6,0.2l-0.5,0.2l-0.4-0.2l-0.5-0.2l-0.3-0.1l-0.6,0
	h-0.6l-0.9,0l-0.4,0.1l-0.6-0.1l-0.5,0.2l-0.4,0.4H8.2L8,136l0,0.7l0.2,0.3l0.3,0.2l0.3,0.1l0,0.1l0,0.4l0.1,0.4
	c0,0,0.2,0.3,0.3,0.3c0.1,0,0.4,0.3,0.4,0.3l0.4,0.2l0.3,0.3l0.6,0.3l0.6,0.1h0.7l1.4,0.2l0.6,0.2c0,0,0.4,0.4,0.5,0.4
	c0,0,0.8,0.5,0.8,0.6c0.1,0,0.7,0.5,0.8,0.5c0,0,0.8,0.5,0.8,0.5l0.8,0.5l0.6,0.3l1.5,0.8l0.8,0.1c0,0,0.6,0.1,0.8,0.1
	c0.2,0,1,0,1.2,0c0.2,0,0.7-0.1,0.8-0.1c0.1,0,0.5-0.2,0.6-0.2c0.1,0,0.4-0.3,0.5-0.3c0.1,0,0.4-0.2,0.4-0.2l0.1-0.4l0.1-1.3l0-0.2
	l0.3,0l0.3,0.2c0,0,0.3,0.2,0.4,0.2c0.1,0,0.6,0,0.6,0l0.7-0.1l0.5-0.2l0.3-0.3l0.1-0.3l0.1-2.1c0,0,0.1-0.8,0.1-0.8
	s0.2-1.1,0.2-1.1l0.3-0.8l0.1-0.8l0.1-0.8l0.2-1.2l0-1l-0.2-0.7l-0.4-0.6l-0.4-0.6l-0.4-0.5l-0.3-0.3v-0.3l0.3-0.3l0.4-0.5l1.5-2
	l0.8-1.5l0.5-0.8l0.3-0.6l0.2-1.1l0-0.7c0,0-0.2-0.5-0.2-0.6c0,0-0.4-0.4-0.4-0.4l-0.4-0.6l-0.3-0.7l-0.3-0.6l-0.2-0.4l1.2-1.3
	l0.8-0.7l0.8-0.7l1.3-1.2l0.6-0.6l0.5-0.6l1.4,0.1l1.1,0.5c0,0,0.7,0.4,0.8,0.5c0.1,0.1,0.7,1,0.7,1l0.9,0.7l2.5,2.1l1.2,1.1
	l2.1,1.3c0,0,0.7,0.3,0.8,0.3c0,0,0.6,0.3,0.7,0.3c0.1,0,1.1,0.1,1.2,0.1c0.1,0,0.7,0,0.8,0c0,0,1.3,0,1.3,0l0.8-0.1l2.2-0.8
	c0,0,0.9-0.5,1-0.6c0.1,0,1.3-0.6,1.4-0.6c0.1,0,1.2-0.6,1.2-0.6s1-0.7,1.1-0.7c0.1,0,0.8-0.3,0.8-0.3s2.1-0.8,2.2-0.9
	c0.1-0.1,1.1-0.6,1.1-0.6l0.9-0.6c0,0,0.6-0.5,0.6-0.5s0.4-0.5,0.4-0.5l0.2-0.4l0.1-0.6l0.1-0.3l0.3,0.1c0,0,0.3,0.2,0.4,0.3
	c0.1,0,0.6,0.2,0.7,0.2c0.1,0,0.9,0.1,0.9,0.1l0.4,0l0.4-0.3l1.5-1.3c0,0,0.2-0.4,0.3-0.4c0,0,0.4-0.3,0.4-0.3l0.3,0
	c0,0,0.4,0.3,0.4,0.3c0.1,0,0.2,0.2,0.4,0.2c0.1,0,0.8,0.4,0.8,0.4s0.4,0,0.4,0c0,0,0.5,0,0.5,0l0.3,0.2l0.3,0.2l0.2,0.3l0.1,0.4
	c0,0,0,0.5,0,0.5c0,0.1,0.1,0.6,0.1,0.6l0.2,0.4l0.7,0.8c0,0,0.3,0.1,0.3,0.1s0.6,0,0.6,0s0.4-0.1,0.4-0.1l0.3-0.3l0.2-0.4
	c0,0,0.3-0.2,0.3-0.2s0.4-0.1,0.4-0.1l0.2-0.2c0,0,0-0.5,0-0.6s0.1-0.7,0.1-0.7v-1.9l-0.3-0.4l-0.1-0.5l0.1-0.7l0-1.9l-0.2-0.6
	l-1.1-1.4l-0.8-0.9l-2-1.7l-0.5-0.6l-0.5-0.6l-0.5-0.6l-0.2-0.5l-0.3-1l-0.3-0.5l-0.2-0.6l-0.3-0.4l-0.3-0.5l-0.4-0.3L70.3,98
	l-0.4,0L69,98h-1.1l-1.1,0l-0.5,0l-0.8,0.2l-0.5,0.2l-0.4,0.2l-0.7,0.4l-0.4,0.2l-0.2,0.2l-0.1,0.4l0,0.4l-0.1,0.6l0,0.5l0,0.5
	l0,0.3l-0.6-0.5l-0.4-0.3l-0.6-0.2l-0.7-0.2l-0.5-0.1H60l-0.7,0l-0.8,0.4l-0.5,0.2l-0.4,0.2l-0.7,0.4l-0.5,0.3l-0.7,0.6l-0.5,0.5
	l-0.2,0.2l-0.4,0.3l-0.2,0l0-0.2l0-0.2l0-1.4l-0.1-0.9v-1l0.1-2.2l-0.1-1.1l-0.1-0.3c0,0-0.1-0.2-0.2-0.2c0,0-0.1-0.2-0.1-0.2l0-0.2
	l0.1-0.2l0.3-0.2l1-0.9l0.6-0.4l0.4-0.5l0.3-0.7l0-1.3l-0.1-0.6L56.3,91l-0.1-0.5l-0.1-0.4l-0.4-1.6l-0.4-1l-0.8-1.7l-0.2-0.5
	l-0.1-0.6L54,84.4c0,0-0.2-0.3,0-0.3c0.2,0,0.4,0,0.4,0l0.1-0.4l0.1-0.4l0.1-0.6l0.1-0.8l0.1-1.1l0.2-1.4L55,78.6c0,0,0-0.5-0.3-0.8
	c-0.3-0.3-0.8-0.8-0.8-0.8l-0.4-0.3l-0.2-0.1c0,0-0.1-0.2,0.1-0.5s0.7-1.3,0.7-1.3s0.3-0.7,0.3-0.7l0.8-1.9l0.5-1.8l0.3-1l0.3-0.9
	l0.3-1.4l0.3-0.9l0-0.4l0-0.4l0.2,0.1l0.3,0.2l0.4,0.2l0.4,0.1l0.5,0l0.3-0.1l0.3-0.1l0.3-0.1l0.2-0.1l0.2,0.2l0.1,0.3l0.2,0.3
	l0.2,0.3l0.2,0.3l0.2,0.3l0.3,0.3l0.4,0.2l0.3,0.2l0.4,0l0.4,0l0.5-0.3l0.3,0.3l0.3,0.5l0.6,0.3L65,69l0.7,0.3l0.9,0.5l0.7,0.3
	l0.8,0.6l0.5,0.5l0.6,0.6c0,0,0.5,0.5,0.5,0.5s0.2,0.5,0.2,0.5s0.1,0.4,0.1,0.4c0,0.1,0,0.5,0,0.5c0,0.1-0.4,0.7-0.4,0.7
	s0,0.4,0,0.5s0.1,0.3,0.1,0.4s0.4,0.2,0.4,0.2c0,0,0.5,0,0.6,0c0.1,0,0.4-0.2,0.4-0.3c0.1-0.1,0.2-0.3,0.3-0.4
	c0-0.1,0.4-0.4,0.4-0.4l0.4-0.1c0,0,0.5-0.1,0.6-0.1c0,0,0.4,0,0.4,0c0,0,0.4,0.1,0.4,0.1s0.8,0.3,0.8,0.3s1.2,0.7,1.2,0.7
	s0.5,0.3,0.6,0.3c0.1,0,0.7,0.2,0.8,0.2c0.1,0,0.7,0.1,0.8,0.1c0.1,0,1.1,0,1.1,0l0.6-0.1l0.7-0.1l0.2-0.4v-0.4l-0.2-0.2l-0.5-0.1
	l-0.5-0.1c0,0-0.6-0.2,0.2-0.7c0.7-0.5,1.2-0.8,1.2-0.8l0.1-0.4v-0.6L80.3,72L80,71.9l-0.4,0c0,0-0.3,0.2-0.3,0.2
	c0,0-0.4,0.3-0.4,0.3s-0.4,0.1-0.4,0.1c0,0-0.4,0.1-0.4,0.1l-0.4,0c0,0-0.2-0.1,0.2-0.5c0.4-0.3,0.5-0.6,0.5-0.6
	c0,0,0.4-0.5,0.4-0.5l0-0.8c0,0,0.1-0.4-0.3-0.5c-0.4-0.1-0.6,0.1-0.6,0.1l-0.3,0.3l-0.4,0.3l-0.3,0.3l-0.4,0.5l-0.2,0l-0.2,0
	c0,0-0.1,0-0.1-0.1c0,0-0.1-0.1-0.1-0.2c0,0,0-0.2,0-0.2c0,0,0.1-1,0.1-1s0-0.5,0-0.5c0,0,0-0.3,0-0.3l-0.2-0.3l-0.3-0.1h-0.3
	l-0.3,0.1l-0.2,0.3l0,0.6L74.6,70l-0.1,0.4l-0.1,0.3l-0.3,0.2l-0.4-0.1l-0.3-0.1L73,70.4l-0.4-0.3l-0.3-0.2l-0.2-0.2L72,69.6
	l-0.2-0.5l-0.3-0.6l-0.3-0.5L71,67.6l-0.5-0.8l-0.3-0.7l-0.4-0.7L69.6,65l-0.3-0.5L69,64.1l-0.3-0.3l-0.1-0.1l0-1.2l-0.3-0.4
	l-0.5-0.5l-1.2-1l-0.7-0.6l-0.6-0.5l-0.4-0.3l-0.2,0l-0.2,0l0-0.8L64.2,58l-0.3-0.4L63.6,57l-0.9-1.1l-0.4-0.5L61.9,55l-0.4-0.2
	l-0.2,0l-0.4-1.1l-0.4-0.9l-0.8-1.3l-1.1-1.2l-0.7-0.7l-0.5-0.4L57,49L56.8,49l-0.1-0.3l0-0.4L57,48l0-0.4v-0.2l0.2-0.1l0-1.3
	l-0.1-0.4l-0.3-0.2l-0.3-0.3l-0.1-0.3l0-0.2l0.1-0.2l0-0.3l0-0.2l0.1-0.1l0.1-0.3l0.1-0.1l0-0.2l0-0.2l0-0.1l0.2-0.3l0.3-0.4
	c0,0,0.1-0.1,0.1,0.1c0,0.2,0,0.5,0,0.5l0.1,0.2l0.3,0l0.3-0.1l0.4-0.2l0.3-0.3l0.3-0.4l0.7-0.8l0.2-0.3c0,0,0.1-0.2,0.2,0
	c0.1,0.3,0.2,0.5,0.2,0.5l0.3,0.3l0.8,0.8l0.3,0.3l0.4,0.3l0.4,0l-0.1-0.3l-0.2-0.2L62,42.5L61.7,42l0-0.4l0.1-0.7l0.1-0.1
	c0,0,0.5,0,0.6,0s0.8,0,0.8,0s0.7-0.2,0.8-0.2c0.1,0,0.8-0.2,0.8-0.2s0.8-0.2,0.9-0.2c0,0,0.9-0.4,0.9-0.4l0.8-0.6
	c0,0,1.3-1.2,1.4-1.2c0,0,0.8-0.9,0.8-0.9l0.5-0.8l0.7-0.9l0.4-0.7l0.2,0l0.1,0.5v0.7l-0.1,0.5l-0.2,0.6l-0.2,0.6l-0.2,0.5l0,0.3
	c0,0,0.1,0.4,0.3,0.3c0.2-0.1,0.5-0.2,0.5-0.2l0.4-0.3l0.3-0.4l0.3-0.4l0.4-0.4l1.2-2l0.5-1.1l0.5-1.3l0.2-0.7l0.2-0.8l0.1-0.5
	l0.1-0.6v-0.4c0,0-0.1-0.6,0.3-0.1c0.3,0.5,0.7,0.9,0.7,0.9l0.8,0.9l0.4,0.3l0.6,0.4l0.6,0.3l0.9,0.4c0,0,0.4-0.1,0.1-0.3
	s-0.5-0.4-0.5-0.4l-0.5-0.6l-0.3-0.5l-0.2-0.5L78.4,30l-0.2-1.2l-0.1-0.9l0-1.2L78,24.1l-0.1-1.9l-0.2-0.9l-0.1-0.8l-0.2-1L77,18.8
	l-0.1-0.4l0-1.2l-0.1-0.7l-0.1-0.5l-0.1-0.4l-0.2-0.4l-0.2-0.4l0.4,0.2l0.3,0.5l0.3,0.6c0,0,0.3,0.6,0.3,0.6c0,0.1,0.1,0.6,0.2,0.7
	s0.4,0.6,0.4,0.6s0.3,0.4,0.4-0.1c0-0.4,0-0.9,0-0.9l0-0.6l0-0.6L78.1,14l-0.5-1.3l-1.1-1.8l-1.4-1.3l-1.1-0.5l-1.4-0.4h-0.9V7.5
	L71.5,7l-0.4-0.5l-0.4-0.4l-0.4-0.4l-0.5-0.4l-0.8-0.4l-1-0.4l-1-0.4l-0.9-0.2l-0.7-0.2l-1-0.3l-0.9-0.1l-1.1-0.1l-1.7-0.2h-1.5H58
	L56.7,3.1z"/>
</svg>
