<?xml version="1.0" encoding="utf-8"?>
<!-- Generator: Adobe Illustrator 23.0.0, SVG Export Plug-In . SVG Version: 6.00 Build 0)  -->
<svg version="1.1" id="图层_4" xmlns="http://www.w3.org/2000/svg" xmlns:xlink="http://www.w3.org/1999/xlink" x="0px" y="0px"
	 viewBox="0 0 70.5 146.4" style="enable-background:new 0 0 70.5 146.4;" xml:space="preserve">
<style type="text/css">
	.st0{fill:#FFFFFF;}
</style>
<path class="st0" d="M26.9,1.1h-1l-0.5,0.1l-0.2,0.2l-0.2,0.1l-0.2-0.1l-0.3-0.4l-0.3-0.3l-0.2-0.2l-0.4-0.2L23,0.2L22.2,0h-0.7
	h-0.6h-0.5l-0.7,0.1l-0.6,0.2l-0.6,0.2l-0.7,0.3l-0.7,0.4l-1,0.6L15.8,2l-0.5,0.4l-0.3,0.3L15,2.9L14.8,3l-0.1,0.2h-0.2L14.4,3
	l-0.3-0.1l-0.3-0.1l-0.7,0H13V2.7l-0.3,0h-0.6l-0.5,0.2l-0.5,0.3l-0.3,0.3l-0.3,0.2l-0.3,0.2L9.7,4.4L9,4.9L8.7,5.2L8.6,5.4L8.4,5.5
	H7.7H7H6.3H6L5.3,5.6L4.8,5.8L4.5,6.1l-0.8,1L2.7,8.6L2.2,9.7L2,10.2l-0.1,0.7l-0.2,1.4V13v1l-0.3,0.7l-0.3,0.7l-0.4,0.6l-0.4,1.5
	L0.2,18l-0.1,0.8L0,19.7v1.5v1.9l0.2,0.5l0.3,0.8l0.3,0.4l0.9,1.3l0.3,0.5l0.5,0.6L3,27.6l0.7,0.8l0.5,0.5l0.4,0.7l0.3,0.4l0.2,0.5
	v0.7v1.5l0,0.4l-0.2,0.3l-0.3,0.3l-0.3,0.3l-0.3,0.3l-0.3,0.4l-0.2,0.3l-0.1,0.3l0,0.6l0,0.3l0.2,1l0.2,0.5l0.4,1.3l0.6,1.3l0.3,0.6
	l0.4,0.7l0.6,1l0.5,0.6l0.5,0.5l0.6,0.6l0.6,0.5l0.8,0.5l0.9,0.4l0.5,0.2l0.9,0.3h0.6h2l0.3-0.1l0.3-0.1l0.4-0.2l0.4-0.1l0.7-0.2
	l0.6,0l0.2-0.3h0.4l0.5,0.1l0.4,0.1l0.4,0.6c0,0,0.3,0.3,0.3,0.4s0.3,0.6,0.3,0.6l0.4,0.5l0.1,0.3l-0.1,0.2L19,48.3l-0.3,0.4
	L18.6,49l-0.1,0.3l0,1.1l-0.2,0.4l0,0.9l0,1L18,53.6l0,1.7l0.1,0.3l0.4-0.3v0.3l-0.1,1l-0.1,0.7l0.1,0.7l0.1,0.3h0.5l0,0.4l0.1,0.7
	l0.1,0.7l0.1,0.7l0.4,1.3l0.4,1.3l1.1,3l1.3,3.4l0.3,0.7l0.4,1l0.5,0.7l0.3,0.5l0,0.7l-0.4,0.7l-0.1,0.5l-0.1,0.8l-0.1,3.2l-0.1,3
	L22.8,84l0,2.4l0.1,1.2l0,0.4l-0.6-0.1L22,87.8l-0.5,0H21l-0.4,0.1L20.3,88l-0.2,0.3L20,88.4h-0.4l-0.5-0.1h-0.3l-1.5,0.1h-1h-1.5
	l-1,0.1l-0.7,0.1l-0.6,0.2l-0.7,0.3l-0.4,0.2l-0.2,0.9L11,90.8l-0.5,0.5L10,91.8l-0.6,0.7L9,93.2v1.2l0,1.3l0.1,1.1l0.1,1.4l0.7,2.5
	l0.3,1l1.2,3.8l0.7,2.3l1.1,3.4l0.6,1.7l0.3,0.7l0.2,0.7l0.2,0.8l0.4,0.9l0.1,0.7l0.1,0.8l0.1,1.3l0,0.5l-0.1,0.9
	c0,0-0.2,0.6-0.2,0.7c0,0-0.3,0.7-0.3,0.7l-0.6,0.9l-0.3,0.4l-0.6,0.6l-0.5,0.4c0,0-0.4,0.2-0.4,0.3c0,0-0.6,0.3-0.6,0.3l-0.3,0.1
	h-0.3h-0.3l-0.2-0.2l-0.3-0.2l-0.3-0.2l-0.7,0.1l-0.4,0.2l-0.4,0.3L8.3,125L8,125.4c0,0,0,0.3,0,0.4c0,0.1,0.2,0.4,0.2,0.4l0.1,0.2
	l-0.1,0.4l0.1,0.6l0.2,0.3l0.3,0.4l0.5,0.2c0,0,0.6,0.1,0.6,0.1s0.7,0,0.8,0c0.1,0,0.4-0.1,0.4-0.1l0.4,0l0.3,0.1l0.3,0.1
	c0,0,0.3,0.1,0.3,0.2c0,0,0.5,0,0.5,0l0.7,0c0,0,0.5-0.2,0.6-0.2c0.1,0,1.2-0.4,1.2-0.4l0.7-0.3l0.8-0.2c0,0,0.8,0,0.8-0.1
	c0,0,0.6-0.2,0.6-0.2l0.4-0.1c0,0,0.8,0,0.9,0c0.1,0,1,0,1,0s0.5-0.1,0.5-0.1s0.6-0.3,0.7-0.4c0.1,0,0.6-0.6,0.6-0.6l0.3-0.6
	l0.1-0.7l-0.1-0.9l-0.2-0.8c0,0-0.3-0.7-0.3-0.7c0,0-0.2-0.6-0.3-0.7c0-0.1-0.4-0.8-0.4-0.8l-0.3-0.7l-0.3-0.6l-0.2-0.8l-0.1-0.6
	l-0.1-0.5l-0.2-0.6l-0.2-0.5l-0.1-1.6l-0.1-0.9l0-1.9l0-1.8l0-1.3v-1.2l-0.1-1.3l0.1-0.1l0.5,0.1c0,0,1,0,1.1,0c0.1,0,1-0.1,1.1-0.1
	c0.1,0,0.9-0.2,0.9-0.2c0.1,0,2.4-0.5,2.4-0.5s0.7-0.2,0.7-0.2c0,0,0.8-0.2,0.9-0.2c0.1,0,0.9-0.2,0.9-0.2c0,0,0.7-0.2,0.7-0.2
	l1.1,0h1.1c0,0,2,0,2.1,0s1.9,0,1.9,0l1.2,0c0,0,0.8-0.1,0.9-0.1s0.7-0.1,0.8-0.1c0.1,0,0.4-0.1,0.4-0.1l0.2-0.1
	c0,0,0.1,0.2,0.1,0.2c0,0.1,0.2,0.4,0.2,0.4l0.4,1.2l0.1,0.4l0.3,0.7l0.1,0.6l0.2,0.4l0.1,0.7l0.2,0.5l0.5,0.2l0.1,0.3
	c0,0,0.3,0.6,0.4,0.7s0.5,0.8,0.5,0.8l1.2,1.9c0,0,0.5,0.8,0.5,0.9c0,0.1,0.5,0.8,0.5,0.8l0.4,0.6c0,0,0.1,0.3,0.3,0.4
	c0.2,0.1,0.8,0.1,1,0.1c0.1,0,1.1,0,1.2,0s1.2,0,1.2,0l0.7-0.1c0,0,0.9,0,1,0s0.8-0.1,0.8-0.1H51l0.2,0.4l1.4,1.2l0.9,0.7l0.5,0.3
	l0.3,0.5l1.4,2l0.8,1.3l0.6,0.8l0.8,1l0.7,1l0.6,1l1.3,1.7l0.5,0.9l0.7,1.1l0.6,0.9l0.4,0.8l0.4,0.8l0.2,0.8l0.3,0.7l0.2,0.7
	c0,0,0,0.9,0,1s0,1,0,1.1s-0.2,1.3-0.2,1.3s-0.1,0.7-0.2,0.8s-0.2,1-0.2,1l-0.4,0.9l-0.6,0.8l-0.4,0.7l-0.5,0.4h-0.2l-0.6,0.1h-0.9
	l-1,0.4l-0.4,0.4l-0.3,0.4v0.6c0,0,0.2,0.4,0.3,0.4c0.1,0,0.4,0.5,0.4,0.5l0.6,0.5l0.5,0.3c0,0,0.5,0.3,0.6,0.3s0.7-0.1,0.8,0
	c0.1,0.1,1.4,0,1.4,0l0.8-0.1l0.4-0.4l0.3-0.3l0.6,0c0,0,0.4-0.1,0.5-0.2c0.1,0,0.8-0.2,0.8-0.2l0.5-0.3l0.3-0.5l0.2-0.6v-0.4
	l0.3-0.4l0.3-0.4l0.5-0.4c0,0,0.8-0.7,1-0.8c0.1,0,1-0.9,1-0.9L70,140l0.4-0.8l0.1-0.6v-1.5l-0.2-0.6l-0.2-0.6l-0.4-0.6l-0.4-0.7
	l-0.6-1l-0.4-0.6l-0.4-0.8l-0.4-0.6l-0.4-0.6l-0.5-1.1l-0.3-0.7l-0.3-1l-0.2-0.9l-0.4-1.2l-0.4-1.1l-0.3-1l-0.6-1.5l-0.4-0.8
	l-0.4-0.9l-0.4-0.9l-0.9-1.6l-0.6-0.8l-1-1.2l-0.5-0.5l-0.5-0.6l-0.1-0.8l-0.3-0.2l-0.1-0.6l-0.2-0.4l0.1-0.3l0.5-0.4l0.3-0.6
	l0.3-1.1l0.1-1l0-1.1l-0.1-0.6l-0.9-2.1l-0.5-1.2l-0.4-1.1l-0.4-0.8l-0.8-2.3l-0.3-1l-0.1-1v-0.7L55.8,97l-0.4-0.3l0.1-1.1l0.2-0.9
	L55,92.8l-0.6-1.5L54,90l-0.3-1.3l-0.3-1.1c0,0,1-0.7,1.1-0.8c0.2-0.1,1.1-0.9,1.1-0.9l1.1-1l0.9-1.3l0.2-1l0-0.7l-0.6-0.9l-2.5-3.3
	l-1.1-1.7l-1.3-1.3l-0.5-0.3l-0.4-0.7l-0.4-0.7l-0.7-0.9l-1-1.1l-0.9-1l-1.1-0.9l-0.2-1l-0.4-1.2l-0.9-2.4l-0.9-2.3l-0.8-1.5
	L43,58.5l-0.8-1.5l-1.1-1.8l-0.5-0.6l-0.5-1l0.1-0.4l0.6-0.5l0.4-0.6l0.2-0.7l0.3-0.4l1,0.1c0,0,0.8,0,0.9,0s1.3-0.1,1.3-0.1l1-0.1
	c0,0,0.9-0.2,1-0.3C47,50.4,48,50,48,50l1-0.5l0.8-0.6l1-0.6l1-0.7l0.6-0.5l0.6-0.5l0.3-0.6l0-0.8L53,44.5l-0.5-0.6l-0.7-0.5L51,43
	l-1-0.4l-1-0.1l-0.9-0.1l-0.7,0.2l-0.6,0.3l-0.4,0l-0.2-0.2l-0.4-0.2L45.4,42L45,41.6l0.1-0.5l0.1-0.7L45,39.6L44.8,39l-0.7-0.5
	L43.2,38l-0.9-0.5l-0.8-0.4l-0.6-0.3l-0.7-0.3l-0.8-0.2l0.3-0.6l0.7-0.9l0.6-0.7l0.7-0.7l0.6-0.6l0.5-0.5l1.2-1.3l0.6-0.8l0.6-0.9
	c0,0,1.1-1.5,1.1-1.5s0.4-0.6,0.4-0.7c0,0,1.1-1.8,1.2-1.9c0.1-0.1,0.6-1.2,0.6-1.2l0.7-1.1l0.7-1.2l0.9-1.2l0.6-0.8l0.6-1l0.3-0.3
	l0.6-0.4l0.5-0.2l0.3-0.3l0.4-0.5l0.1-0.5l0-0.5l0.3-0.1c0,0,0.3-0.2,0.3-0.2c0.1,0,0.4-0.4,0.4-0.4l0.3-0.5l0.2-0.6
	c0,0,0-0.5,0-0.6c0,0,0-0.8,0-0.8s-0.1-0.6-0.1-0.6l-0.4-0.3l-0.1-0.2l0-0.4l0-0.3l0-0.2l-0.3-0.3c0,0-0.3-0.1-0.3-0.2
	c0,0-0.3-0.1-0.3-0.1l-0.2-0.2l-0.1-0.3l0-0.3l0-0.1l-0.2-0.3l-0.4-0.2l-0.3-0.2h-0.5h-0.5l-0.2,0l-0.2-0.1l-0.1-0.2l-0.2-0.3
	L50.8,8l-0.4-0.1l-0.4,0L49.7,8l-0.3,0.3L49,9c0,0-0.2,0.5-0.2,0.6c0,0-0.3,0.5-0.3,0.5c0,0-0.1,0.2-0.1,0.2l-0.6,0.1l-0.3,0.1
	L47.2,11l-0.3,0.5l-0.3,0.4l-0.3,0.4l-0.2,0.7v0.4l0.1,0.4l0.2,0.3l0.2,0.3l0.2,0.3l0.2,0.3c0,0,0.1,0.2,0.1,0.2c0,0,0,0.3,0,0.3
	l0,0.7c0,0-0.4,0.7-0.4,0.7s-0.5,0.7-0.5,0.7l-0.7,1l-0.3,0.5L45,19.5l-0.3,0.2l-0.2,0.1l-0.3-0.1l-0.3-0.2l-0.4-0.1l-0.5-0.2
	l-0.5-0.3l-0.5-0.3l-0.5-0.3l-0.3-0.3l0-0.3c0,0,0.3-0.5,0.3-0.6c0,0,0.7-1.1,0.7-1.1c0,0,0.4-0.4,0.5-0.5s0.5-0.5,0.6-0.5
	c0,0,0.8-0.6,0.8-0.6l0.7-0.8c0,0,0.3-0.3,0.3-0.4c0,0,0.1-0.5,0.1-0.5l0-0.8L45,11.7l-0.2-0.1v-0.4l0.1-0.2l0.1-0.3l0-0.6l-0.2-0.4
	l-0.3-0.1l-0.2-0.2V9.1l0-0.6l-0.1-0.4L44,7.8l-0.5-0.1l-0.8,0l-0.2,0l-0.2,0.2l-0.3,0l0-0.3l-0.1-0.1l-0.3-0.3l-0.3-0.2l-0.5,0
	l-0.2,0.1l-0.3,0.3L40,7.7L39.9,8l-0.2,0l-0.2,0l-0.3-0.2l-0.4,0L38.5,8l-0.3,0.2c0,0-0.3,0.2-0.3,0.3s-0.2,0.4-0.2,0.4
	s-0.1,0.4-0.1,0.5s-0.1,0.3-0.1,0.3l-0.2-0.1l-0.1-0.3l-0.9-0.9l-0.5-0.5l-0.6-0.7l-0.8-0.6l-0.6-0.4L33.7,6l0-0.4l-0.1-0.4
	l-0.3-0.7l-0.5-0.6l-0.5-0.6l-1-0.7l-0.7-0.4l-0.8-0.4L29,1.6l-0.6-0.2l-0.9-0.2L26.9,1.1z"/>
</svg>
